<?xml version="1.0" standalone="no"?>
<!DOCTYPE svg PUBLIC "-//W3C//DTD SVG 20010904//EN"
 "http://www.w3.org/TR/2001/REC-SVG-20010904/DTD/svg10.dtd">
<svg version="1.0" xmlns="http://www.w3.org/2000/svg"
 width="850.000000pt" height="505.000000pt" viewBox="0 0 850.000000 505.000000"
 preserveAspectRatio="xMidYMid meet">

<g transform="translate(0.000000,505.000000) scale(0.100000,-0.100000)"
fill="#000000" stroke="none">
<path d="M50 2545 l0 -2435 24 0 c14 0 28 -4 31 -10 8 -13 8287 -14 8301 -1 5
6 8 917 6 2445 l-2 2436 -4180 0 -4180 0 0 -2435z m8350 0 l0 -2425 -4170 0
-4170 0 0 2425 0 2425 4170 0 4170 0 0 -2425z"/>
<path d="M4215 4792 c-74 -16 -56 -87 28 -106 30 -7 35 -27 12 -46 -17 -14
-51 -5 -59 15 -6 16 -36 21 -36 7 0 -26 31 -47 68 -47 47 0 72 18 72 52 0 20
-9 29 -50 46 -50 21 -63 40 -35 51 20 7 42 -2 49 -20 8 -20 26 -17 26 5 0 30
-37 51 -75 43z"/>
<path d="M3230 4705 l0 -85 48 0 c70 1 106 38 67 70 -11 9 -12 17 -5 30 23 42
-4 70 -66 70 l-44 0 0 -85z m85 35 c0 -10 -12 -16 -32 -18 -32 -3 -45 13 -26
32 13 12 58 2 58 -14z m3 -63 c17 -20 -2 -39 -34 -35 -21 2 -30 9 -32 26 -3
18 1 22 26 22 16 0 34 -6 40 -13z"/>
<path d="M3530 4706 c0 -62 3 -86 13 -86 6 0 22 -3 34 -6 27 -8 63 27 63 61 0
31 -43 77 -64 69 -10 -4 -15 2 -18 17 -2 12 -9 24 -15 27 -10 3 -13 -18 -13
-82z m71 -10 c8 -17 8 -29 -1 -45 -15 -29 -34 -22 -38 13 -7 55 19 76 39 32z"/>
<path d="M3670 4707 l0 -84 31 -7 c38 -7 65 6 73 38 11 46 -27 101 -61 89 -6
-2 -13 6 -15 18 -2 12 -9 24 -15 27 -10 3 -13 -18 -13 -81z m78 -23 c3 -32
-19 -61 -38 -49 -11 7 -14 68 -3 79 16 16 38 -1 41 -30z"/>
<path d="M3807 4783 c-4 -3 -7 -42 -7 -85 0 -63 3 -78 15 -78 12 0 15 16 15
85 0 78 -5 96 -23 78z"/>
<path d="M4637 4783 c-12 -11 -8 -23 8 -23 8 0 15 7 15 15 0 16 -12 20 -23 8z"/>
<path d="M4567 4760 c-3 -12 -13 -19 -24 -18 -10 0 -30 0 -45 0 -27 -2 -28 -4
-28 -62 0 -47 3 -60 15 -60 11 0 15 11 15 38 0 43 14 62 47 62 21 0 23 -5 23
-49 0 -36 4 -51 16 -55 22 -8 31 1 16 16 -16 16 -15 85 1 92 10 5 10 7 0 12
-7 3 -13 12 -13 19 0 23 -17 26 -23 5z"/>
<path d="M4362 4740 c-48 -20 -51 -103 -4 -121 27 -10 63 -3 74 15 15 22 8 76
-12 96 -22 22 -25 23 -58 10z m54 -44 c7 -31 -12 -68 -34 -64 -17 3 -28 47
-18 74 9 24 45 17 52 -10z"/>
<path d="M4733 4743 l-33 -4 0 -60 c0 -45 3 -59 14 -59 11 0 16 14 18 48 2 34
7 47 18 47 11 0 16 -13 18 -47 2 -34 7 -48 18 -48 20 0 19 93 -2 114 -8 9 -16
15 -17 14 -1 0 -17 -3 -34 -5z"/>
<path d="M4869 4742 c-23 -7 -39 -34 -39 -66 0 -43 13 -59 49 -60 19 -1 31 -6
31 -15 0 -14 -25 -12 -64 4 -14 6 -18 5 -14 -6 6 -20 50 -39 75 -33 26 7 33
30 33 110 0 60 -1 62 -28 66 -16 2 -35 2 -43 0z m49 -53 c3 -28 -30 -65 -47
-54 -15 9 -14 72 2 78 24 11 42 1 45 -24z"/>
<path d="M3390 4682 c0 -67 9 -77 66 -66 l34 6 0 59 c0 45 -3 59 -14 59 -11 0
-16 -15 -18 -52 -2 -39 -7 -53 -18 -53 -11 0 -16 14 -20 49 -7 74 -30 72 -30
-2z"/>
<path d="M3876 4718 c-35 -50 -10 -102 49 -102 21 0 40 6 45 15 12 18 -6 25
-25 9 -18 -15 -45 -6 -45 15 0 11 11 15 40 15 32 0 40 4 40 18 0 48 -76 70
-104 30z m62 -16 c2 -7 -6 -12 -17 -12 -21 0 -27 11 -14 24 9 9 26 2 31 -12z"/>
<path d="M4630 4680 c0 -47 3 -60 15 -60 12 0 15 13 15 60 0 47 -3 60 -15 60
-12 0 -15 -13 -15 -60z"/>
<path d="M2163 4493 c1143 -2 3011 -2 4150 0 1140 1 205 2 -2078 2 -2282 0
-3215 -1 -2072 -2z"/>
<path d="M930 4110 c0 -50 16 -70 22 -28 2 14 13 25 28 29 l25 7 -27 1 c-38 1
-36 21 2 21 17 0 30 5 30 10 0 6 -18 10 -40 10 l-40 0 0 -50z"/>
<path d="M1330 4111 c0 -28 5 -51 10 -51 6 0 10 9 10 19 0 14 8 21 28 23 21 2
27 8 27 28 0 22 -5 25 -37 28 l-38 3 0 -50z m60 21 c0 -14 -11 -21 -26 -15
-21 8 -17 23 6 23 11 0 20 -4 20 -8z"/>
<path d="M3710 4136 c0 -18 6 -25 22 -28 26 -3 38 -38 14 -38 -8 0 -20 8 -26
18 -10 15 -10 15 -8 -3 3 -15 11 -20 33 -20 25 0 30 4 30 25 0 18 -6 26 -22
28 -13 2 -23 8 -23 14 0 6 11 8 25 5 16 -3 24 0 22 7 -2 6 -18 12 -35 14 -28
3 -32 0 -32 -22z"/>
<path d="M4180 4146 c0 -8 -10 -16 -22 -18 -18 -2 -23 -10 -23 -33 0 -27 4
-30 33 -33 l32 -3 0 50 c0 28 -4 51 -10 51 -5 0 -10 -6 -10 -14z m0 -45 c0
-11 -5 -23 -11 -27 -14 -8 -29 14 -22 33 8 20 33 16 33 -6z"/>
<path d="M4310 4110 c0 -27 5 -50 10 -50 6 0 10 9 10 20 0 14 7 20 24 20 13 0
29 7 36 15 19 22 -5 45 -46 45 l-34 0 0 -50z m68 19 c-2 -6 -7 -10 -11 -10 -4
1 -14 1 -22 1 -8 0 -15 5 -15 10 0 6 12 10 26 10 14 0 24 -5 22 -11z"/>
<path d="M6480 4150 c0 -5 9 -10 20 -10 17 0 20 -7 20 -40 0 -22 5 -40 10 -40
6 0 10 16 10 36 0 23 6 42 18 50 15 12 11 13 -30 14 -27 0 -48 -4 -48 -10z"/>
<path d="M6582 4110 c-1 -27 3 -50 9 -50 5 0 9 11 9 24 0 14 5 28 10 31 6 4
10 -7 10 -24 0 -17 5 -31 10 -31 6 0 10 16 10 35 0 32 -7 40 -32 36 -5 0 -8 6
-8 14 0 8 -4 15 -9 15 -5 0 -9 -22 -9 -50z"/>
<path d="M6660 4149 c0 -5 5 -7 10 -4 6 3 10 8 10 11 0 2 -4 4 -10 4 -5 0 -10
-5 -10 -11z"/>
<path d="M6800 4145 c0 -8 -9 -15 -20 -15 -12 0 -22 -9 -26 -24 -8 -34 2 -46
37 -46 28 0 29 1 29 50 0 28 -4 50 -10 50 -5 0 -10 -7 -10 -15z m0 -44 c0 -11
-5 -23 -11 -27 -16 -9 -30 18 -17 33 15 19 28 16 28 -6z"/>
<path d="M6930 4110 c0 -27 5 -50 10 -50 6 0 10 9 10 20 0 14 7 20 23 20 32 0
49 18 36 42 -7 12 -21 18 -44 18 l-35 0 0 -50z m70 20 c0 -5 -7 -10 -15 -10
-8 0 -18 0 -22 -1 -4 0 -9 4 -11 10 -2 6 8 11 22 11 14 0 26 -4 26 -10z"/>
<path d="M1186 4142 c-7 -12 8 -75 19 -79 8 -2 10 31 6 80 -1 9 -18 9 -25 -1z"/>
<path d="M1123 4133 c-20 -7 -15 -31 7 -38 11 -3 20 -11 20 -16 0 -13 -14 -11
-28 3 -9 9 -12 8 -12 -5 0 -12 8 -17 30 -17 23 0 30 4 30 20 0 12 -10 25 -22
31 l-23 10 23 -5 c25 -5 30 9 6 18 -9 3 -16 6 -17 5 -1 0 -8 -3 -14 -6z"/>
<path d="M1443 4129 c-32 -12 -29 -22 5 -15 l27 6 -28 -16 c-35 -19 -30 -38
11 -42 30 -3 32 -2 32 31 0 38 -14 49 -47 36z m27 -44 c0 -8 -7 -15 -15 -15
-26 0 -18 20 13 29 1 1 2 -6 2 -14z"/>
<path d="M1523 4133 c-22 -8 -14 -32 13 -39 17 -5 22 -10 15 -17 -7 -7 -15 -6
-27 4 -15 12 -17 12 -12 -1 6 -21 58 -26 58 -6 0 8 -9 21 -21 30 l-21 14 23 4
c22 3 22 4 4 9 -11 3 -26 4 -32 2z"/>
<path d="M1592 4128 c-14 -14 2 -38 25 -38 8 0 11 -5 8 -10 -4 -6 -16 -8 -28
-4 -17 5 -19 3 -11 -6 16 -16 59 -9 59 10 0 8 -11 20 -25 27 l-25 13 25 0 c20
0 22 2 10 10 -19 13 -24 12 -38 -2z"/>
<path d="M3815 4124 c-9 -9 -15 -26 -13 -38 2 -16 10 -21 33 -21 25 0 31 4 33
27 4 36 -29 56 -53 32z m32 -10 c-3 -3 -12 -4 -19 -1 -8 3 -5 6 6 6 11 1 17
-2 13 -5z m5 -36 c-9 -9 -15 -9 -24 0 -9 9 -7 12 12 12 19 0 21 -3 12 -12z"/>
<path d="M3975 4127 c-10 -8 -16 -23 -13 -38 2 -19 9 -24 33 -24 25 0 31 4 33
27 4 34 -26 54 -53 35z m38 -20 c7 -19 -8 -41 -22 -33 -16 10 -14 46 3 46 8 0
16 -6 19 -13z"/>
<path d="M4428 4132 c-10 -2 -18 -8 -18 -13 0 -6 10 -7 23 -4 l22 7 -22 -17
c-33 -23 -29 -45 7 -45 27 0 30 3 30 34 0 35 -12 45 -42 38z m27 -52 c-3 -5
-10 -10 -16 -10 -5 0 -9 5 -9 10 0 6 7 10 16 10 8 0 12 -4 9 -10z"/>
<path d="M4503 4125 c-10 -7 -14 -17 -10 -21 4 -5 12 -2 17 5 4 8 15 11 24 8
9 -4 16 -2 16 2 0 16 -28 20 -47 6z"/>
<path d="M7048 4133 c-29 -7 -20 -24 10 -18 l27 5 -28 -11 c-36 -14 -32 -43 6
-47 27 -3 28 -2 25 34 -3 38 -10 45 -40 37z m32 -53 c0 -5 -7 -10 -15 -10 -8
0 -15 5 -15 10 0 6 7 10 15 10 8 0 15 -4 15 -10z"/>
<path d="M7119 4124 c-10 -13 -10 -17 2 -25 8 -5 21 -9 29 -9 10 0 11 -3 2
-12 -8 -8 -15 -8 -28 3 -15 12 -17 12 -12 -1 6 -20 63 -20 63 0 0 8 -11 20
-25 27 l-25 13 25 0 c20 0 22 2 10 10 -20 13 -25 12 -41 -6z"/>
<path d="M1033 4095 c0 -22 2 -30 4 -17 2 12 2 30 0 40 -3 9 -5 -1 -4 -23z"/>
<path d="M1060 4095 c0 -19 5 -35 10 -35 6 0 10 10 10 23 0 13 5 28 12 35 9 9
7 12 -10 12 -18 0 -22 -6 -22 -35z"/>
<path d="M3892 4098 c2 -27 7 -33 27 -33 13 0 26 7 29 15 4 12 2 13 -9 3 -20
-20 -29 -16 -29 13 0 21 4 24 20 19 11 -4 20 -2 20 4 0 6 -14 11 -31 11 -28 0
-30 -2 -27 -32z"/>
<path d="M4050 4095 c0 -19 5 -35 10 -35 6 0 10 14 10 30 0 17 5 30 10 30 6 0
10 -13 10 -30 0 -16 5 -30 10 -30 6 0 10 16 10 35 0 32 -2 35 -30 35 -28 0
-30 -3 -30 -35z"/>
<path d="M4572 4094 c0 -32 2 -35 26 -32 34 4 40 31 10 47 l-23 12 23 -5 c12
-2 22 0 22 5 0 5 -13 9 -29 9 -27 0 -29 -3 -29 -36z m38 -14 c0 -5 -7 -10 -15
-10 -8 0 -15 5 -15 10 0 6 7 10 15 10 8 0 15 -4 15 -10z"/>
<path d="M6660 4095 c0 -19 5 -35 10 -35 6 0 10 16 10 35 0 19 -4 35 -10 35
-5 0 -10 -16 -10 -35z"/>
<path d="M6700 4095 c0 -19 5 -35 10 -35 6 0 10 13 10 29 0 20 6 31 18 34 10
3 6 5 -10 6 -25 1 -28 -2 -28 -34z"/>
<path d="M7190 4115 c0 -8 12 -18 26 -21 17 -5 22 -10 15 -17 -7 -7 -15 -6
-27 4 -15 12 -17 12 -12 -1 6 -20 58 -26 58 -7 0 18 -24 39 -33 30 -4 -3 -7
-1 -7 5 0 6 10 13 23 15 16 3 13 5 -10 6 -23 1 -33 -3 -33 -14z"/>
<path d="M4505 4094 c-24 -17 -8 -37 26 -32 29 4 36 24 12 36 -13 7 -24 6 -38
-4z m35 -14 c0 -5 -7 -10 -15 -10 -8 0 -15 5 -15 10 0 6 7 10 15 10 8 0 15 -4
15 -10z"/>
<path d="M2734 3850 c-22 -11 -51 -35 -65 -53 l-24 -32 -5 -1610 c-5 -1492 -6
-1612 -22 -1634 -34 -48 -67 -61 -155 -61 l-83 0 0 110 0 110 -925 0 -925 0 0
-190 0 -190 178 0 c320 -1 1354 -1 1515 -1 l157 1 0 69 0 68 83 5 c95 5 139
25 172 80 20 33 20 55 25 1646 l5 1613 39 35 38 34 820 0 c755 0 822 -1 849
-17 49 -29 59 -66 59 -215 l0 -133 -20 25 c-16 21 -15 14 7 -48 14 -40 27 -71
29 -69 2 2 15 34 29 73 23 61 23 66 5 44 -13 -17 -20 -20 -20 -10 -13 268 -22
309 -84 346 -30 18 -68 19 -836 22 -792 2 -806 2 -846 -18z m-1839 -3360 l0
-175 -175 0 -175 0 -3 165 c-1 90 0 170 3 177 3 11 42 13 177 11 l173 -3 0
-175z m360 0 l0 -175 -170 0 -170 0 -3 178 -2 177 172 -2 173 -3 0 -175z m370
0 l0 -175 -175 0 -175 0 -3 165 c-1 90 0 170 3 177 3 11 42 13 177 11 l173 -3
0 -175z m370 0 l0 -175 -175 0 -175 0 -3 165 c-1 90 0 170 3 177 3 11 42 13
177 11 l173 -3 0 -175z m370 0 l0 -175 -175 0 -175 0 -3 165 c-1 90 0 170 3
177 3 11 42 13 177 11 l173 -3 0 -175z"/>
<path d="M690 525 c-19 -11 -21 -14 -7 -15 23 0 24 -58 1 -75 -14 -10 -11 -12
20 -13 20 -1 36 3 36 9 0 6 -4 8 -9 4 -6 -3 -11 18 -13 49 l-3 54 -25 -13z"/>
<path d="M1058 489 c-21 -25 -38 -49 -38 -53 0 -3 16 -6 35 -6 30 0 35 -3 35
-22 0 -21 1 -20 15 6 10 18 12 33 6 40 -5 6 -11 27 -13 46 l-3 35 -37 -46z
m28 -16 c-2 -10 -10 -19 -19 -21 -20 -4 -22 4 -4 23 17 19 26 18 23 -2z"/>
<path d="M1437 528 c-18 -10 -23 -38 -7 -38 6 0 10 7 10 15 0 8 7 15 15 15 26
0 18 -45 -10 -58 -14 -6 -25 -18 -25 -27 0 -12 9 -14 43 -11 56 6 58 8 17 15
l-35 7 28 14 c21 10 27 20 25 38 -3 28 -36 45 -61 30z"/>
<path d="M1806 508 c-12 -46 -7 -57 21 -55 20 1 28 -3 31 -17 5 -26 -20 -40
-35 -20 -6 9 -17 13 -23 9 -17 -10 8 -35 36 -35 43 0 70 50 42 78 -7 7 -22 12
-35 12 -14 0 -23 6 -23 15 0 10 11 15 35 15 19 0 35 5 35 10 0 6 -17 10 -39
10 -32 0 -40 -4 -45 -22z"/>
<path d="M2140 556 c-7 -9 -10 -26 -7 -38 3 -11 2 -30 -4 -40 -24 -44 49 -79
85 -39 16 18 13 51 -5 51 -5 0 -4 9 3 20 26 40 -41 82 -72 46z m60 -28 c0 -15
-32 -21 -40 -7 -13 20 9 43 26 28 8 -6 14 -16 14 -21z m-2 -76 c-2 -9 -11 -18
-21 -20 -19 -4 -32 20 -23 43 8 22 48 0 44 -23z"/>
<path d="M5602 3862 c-41 -13 -91 -61 -101 -100 -7 -25 -11 -556 -11 -1622 0
-1536 -1 -1586 -19 -1614 -35 -52 -67 -66 -158 -66 l-83 0 0 105 0 105 -925 0
-925 0 0 -190 0 -190 178 0 c306 -1 1350 -1 1515 -1 l157 1 0 74 0 73 83 5
c95 5 139 25 172 80 20 33 20 55 25 1643 5 1752 1 1634 61 1669 24 14 110 16
844 16 752 0 819 -1 846 -17 49 -29 59 -66 59 -215 l0 -133 -20 25 c-18 22
-17 16 6 -45 24 -66 34 -87 34 -72 0 4 11 37 25 74 22 60 23 65 5 43 -13 -17
-20 -20 -20 -10 -13 271 -19 296 -84 344 -27 21 -36 21 -834 23 -444 1 -817
-2 -830 -5z m-1864 -3379 l-3 -178 -170 0 -170 0 -3 165 c-1 90 0 170 2 177 4
10 46 13 176 13 l170 0 -2 -177z m367 -3 l0 -175 -170 0 -170 0 -3 178 -2 177
172 -2 173 -3 0 -175z m370 0 l0 -175 -175 0 -175 0 -3 165 c-1 90 0 170 3
177 3 11 42 13 177 11 l173 -3 0 -175z m370 0 l0 -175 -175 0 -175 0 -3 165
c-1 90 0 170 3 177 3 11 42 13 177 11 l173 -3 0 -175z m370 0 l0 -175 -175 0
-175 0 -3 165 c-1 90 0 170 3 177 3 11 42 13 177 11 l173 -3 0 -175z"/>
<path d="M3540 515 c-19 -11 -21 -14 -7 -15 22 0 24 -58 2 -66 -26 -10 -16
-20 20 -21 19 -1 35 3 35 8 0 5 -4 9 -9 9 -6 0 -11 22 -13 49 l-3 49 -25 -13z"/>
<path d="M3886 505 c-9 -23 -8 -25 9 -25 8 0 15 7 15 15 0 19 16 20 23 2 7
-18 -2 -31 -30 -46 -37 -19 -27 -31 25 -30 40 1 43 2 17 8 l-30 7 23 13 c17 9
22 20 20 39 -2 22 -9 28 -34 30 -22 2 -33 -2 -38 -13z"/>
<path d="M4286 479 c-39 -46 -38 -62 2 -57 22 2 28 -2 30 -19 4 -27 22 -31 22
-5 0 10 5 23 12 30 9 9 9 12 0 12 -7 0 -12 16 -12 40 0 22 -4 40 -9 40 -5 0
-25 -19 -45 -41z m34 -19 c0 -13 -7 -20 -20 -20 -18 0 -19 3 -10 20 6 11 15
20 20 20 6 0 10 -9 10 -20z"/>
<path d="M4656 498 c-12 -46 -7 -57 21 -55 20 1 28 -3 31 -17 5 -26 -20 -40
-35 -20 -6 9 -17 13 -23 9 -17 -10 8 -35 36 -35 43 0 70 50 42 78 -7 7 -22 12
-35 12 -14 0 -23 6 -23 15 0 10 11 15 35 15 19 0 35 5 35 10 0 6 -17 10 -39
10 -32 0 -40 -4 -45 -22z"/>
<path d="M4990 546 c-7 -9 -10 -26 -7 -38 3 -11 2 -29 -3 -39 -23 -42 32 -73
76 -44 27 18 30 29 10 47 -10 10 -11 17 -2 30 24 39 -44 79 -74 44z m60 -28
c0 -15 -32 -21 -40 -7 -13 20 9 43 26 28 8 -6 14 -16 14 -21z m0 -67 c0 -14
-28 -33 -40 -26 -11 7 -14 38 -4 48 8 8 44 -10 44 -22z"/>
<path d="M1093 3575 c-3 -9 3 -23 13 -31 17 -14 17 -15 2 -10 -10 3 -18 1 -18
-4 0 -6 9 -10 20 -10 25 0 26 17 3 43 -17 19 -17 20 0 14 9 -4 17 -2 17 3 0
16 -30 11 -37 -5z"/>
<path d="M1150 3581 c0 -5 5 -22 11 -38 10 -26 11 -27 24 -10 13 18 14 18 23
0 13 -23 21 -15 27 28 4 27 3 29 -3 9 l-8 -25 -14 25 -13 24 -10 -24 -10 -25
-4 23 c-4 21 -23 32 -23 13z"/>
<path d="M1265 3580 c-3 -6 -3 -10 2 -9 23 4 25 -3 5 -17 -26 -18 -20 -34 12
-34 21 0 23 3 17 32 -7 33 -24 47 -36 28z m25 -34 c0 -3 -4 -8 -10 -11 -5 -3
-10 -1 -10 4 0 6 5 11 10 11 6 0 10 -2 10 -4z"/>
<path d="M1325 3539 c0 -32 4 -49 12 -49 7 0 10 7 7 15 -4 10 0 15 14 15 24 0
39 35 23 54 -6 8 -21 14 -34 14 -20 0 -22 -5 -22 -49z m45 10 c0 -10 -7 -19
-15 -19 -15 0 -21 31 -9 43 11 10 24 -3 24 -24z"/>
<path d="M1401 3540 c1 -27 6 -50 10 -50 5 0 9 6 9 14 0 7 9 16 20 19 24 6 27
39 5 57 -13 11 -14 8 -9 -19 4 -20 3 -31 -5 -31 -6 0 -11 11 -11 24 0 14 -4
28 -10 31 -6 4 -9 -14 -9 -45z"/>
<path d="M1478 3555 c2 -19 8 -35 14 -35 13 0 6 63 -8 67 -6 2 -8 -10 -6 -32z"/>
<path d="M1520 3555 c0 -19 5 -35 10 -35 6 0 10 11 10 24 0 14 5 28 10 31 6 4
10 -7 10 -24 0 -17 5 -31 10 -31 14 0 12 47 -2 57 -33 20 -48 13 -48 -22z"/>
<path d="M1602 3578 c-5 -7 -9 -29 -8 -48 1 -30 4 -35 25 -35 30 0 40 24 13
32 -20 5 -20 5 -1 24 10 10 19 24 19 29 0 14 -36 12 -48 -2z m28 -19 c0 -5 -4
-9 -10 -9 -5 0 -10 7 -10 16 0 8 5 12 10 9 6 -3 10 -10 10 -16z m0 -49 c0 -5
-4 -10 -10 -10 -5 0 -10 5 -10 10 0 6 5 10 10 10 6 0 10 -4 10 -10z"/>
<path d="M3530 3553 c0 -18 5 -33 10 -33 6 0 10 11 10 25 0 34 18 32 23 -2 4
-22 4 -20 3 6 -1 28 -5 35 -23 36 -20 1 -23 -3 -23 -32z"/>
<path d="M3612 3581 c-8 -4 -12 -19 -10 -32 2 -18 9 -24 28 -24 19 0 26 6 28
24 3 20 -11 41 -28 41 -3 0 -11 -4 -18 -9z m28 -32 c0 -21 -16 -26 -23 -6 -6
17 3 38 14 31 5 -3 9 -14 9 -25z"/>
<path d="M3714 3578 c-4 -6 0 -16 9 -23 21 -15 22 -29 2 -21 -8 3 -15 1 -15
-4 0 -6 9 -10 20 -10 21 0 28 24 10 35 -5 3 -10 11 -10 16 0 6 5 7 10 4 6 -3
10 -1 10 4 0 15 -27 14 -36 -1z"/>
<path d="M3774 3558 c8 -42 13 -45 31 -22 13 17 14 17 15 2 0 -29 15 -21 33
17 14 30 15 35 2 35 -8 0 -14 -3 -14 -7 5 -29 -3 -35 -15 -14 l-14 24 -6 -21
c-4 -12 -11 -20 -16 -17 -5 3 -7 12 -3 20 3 8 0 15 -7 15 -9 0 -11 -10 -6 -32z"/>
<path d="M3885 3580 c-4 -6 -3 -10 2 -9 23 4 25 -3 5 -17 -29 -20 -28 -34 3
-34 18 0 25 5 25 19 0 41 -20 65 -35 41z m25 -40 c0 -5 -4 -10 -10 -10 -5 0
-10 5 -10 10 0 6 5 10 10 10 6 0 10 -4 10 -10z"/>
<path d="M3940 3538 c0 -26 5 -48 10 -48 6 0 10 6 10 14 0 7 9 16 20 19 14 3
20 14 20 31 0 14 -3 26 -7 27 -56 6 -53 8 -53 -43z m43 5 c-3 -7 -9 -13 -14
-13 -11 0 -12 34 -2 43 9 10 22 -13 16 -30z"/>
<path d="M866 3558 c-40 -9 -111 -47 -102 -55 2 -3 18 5 35 18 36 27 122 37
174 20 41 -14 90 -58 112 -101 19 -38 28 -39 14 -2 -31 81 -144 139 -233 120z"/>
<path d="M6440 3534 c0 -19 5 -34 10 -34 6 0 10 11 10 25 0 14 5 25 10 25 6 0
10 -11 10 -25 0 -14 5 -25 11 -25 6 0 9 14 7 32 -3 28 -7 33 -30 35 -26 2 -28
-1 -28 -33z"/>
<path d="M6532 3561 c-21 -13 -11 -55 15 -59 26 -4 41 31 23 53 -14 17 -20 18
-38 6z m28 -32 c0 -21 -16 -26 -23 -6 -6 17 3 38 14 31 5 -3 9 -14 9 -25z"/>
<path d="M6624 3558 c-4 -6 0 -16 9 -23 21 -15 22 -29 2 -21 -8 3 -15 1 -15
-4 0 -6 11 -10 25 -10 28 0 35 27 10 36 -8 4 -15 10 -15 15 0 4 7 6 15 3 8 -4
15 -1 15 5 0 15 -37 14 -46 -1z"/>
<path d="M6680 3565 c0 -4 22 -57 27 -64 6 -9 32 35 32 54 0 18 -1 18 -13 -4
-8 -15 -16 -20 -20 -12 -4 6 -4 16 -1 21 3 6 -1 10 -9 10 -9 0 -16 -2 -16 -5z"/>
<path d="M6756 3556 c3 -8 1 -17 -5 -21 -6 -3 -11 -14 -11 -23 0 -12 6 -7 20
13 24 36 25 45 5 45 -8 0 -12 -6 -9 -14z"/>
<path d="M6795 3560 c-4 -6 -3 -10 2 -9 23 4 25 -3 5 -17 -30 -21 -28 -34 8
-34 23 0 30 5 30 19 0 43 -28 68 -45 41z m25 -40 c0 -5 -4 -10 -10 -10 -5 0
-10 5 -10 10 0 6 5 10 10 10 6 0 10 -4 10 -10z"/>
<path d="M6860 3516 l0 -50 30 32 c33 37 29 64 -9 67 -19 1 -21 -4 -21 -49z
m40 19 c0 -14 -4 -25 -10 -25 -11 0 -14 33 -3 43 11 11 13 8 13 -18z"/>
<path d="M740 3546 c0 -7 -11 -35 -25 -61 -14 -26 -24 -49 -22 -52 3 -2 33 9
68 26 35 17 52 28 38 25 -33 -7 -53 17 -45 51 4 14 2 25 -4 25 -5 0 -10 -6
-10 -14z"/>
<path d="M3442 3544 c-19 -13 -22 -23 -20 -82 l2 -67 5 70 c5 63 8 70 29 73
12 2 22 8 22 13 0 13 -12 11 -38 -7z"/>
<path d="M4053 3543 c9 -2 17 -11 17 -19 0 -8 5 -14 10 -14 6 0 10 4 10 8 0
14 -23 32 -39 31 -12 -1 -12 -2 2 -6z"/>
<path d="M6359 3521 c-18 -14 -23 -31 -27 -80 -3 -39 -1 -61 6 -61 7 0 12 28
14 68 3 61 5 67 26 70 12 2 22 8 22 13 0 14 -16 11 -41 -10z"/>
<path d="M6968 3520 c12 -5 22 -17 23 -27 0 -11 3 -13 6 -5 7 17 -15 42 -36
41 -11 0 -9 -3 7 -9z"/>
<path d="M530 3321 l0 -68 -60 -6 c-69 -6 -117 -32 -145 -79 -18 -30 -20 -51
-20 -233 0 -189 1 -202 22 -236 12 -19 34 -41 48 -49 27 -14 35 -36 10 -26 -8
3 -15 1 -15 -4 0 -6 19 -10 43 -10 23 0 52 -3 65 -6 18 -5 12 4 -25 43 -27 27
-50 48 -52 47 -2 -2 2 -10 8 -18 18 -22 -4 -29 -33 -11 -49 32 -56 67 -56 277
0 172 2 196 19 222 31 47 69 66 134 66 l57 0 0 -110 0 -110 178 -1 c261 0
1332 0 1515 0 l157 1 0 190 0 190 -925 0 -925 0 0 -69z m365 -121 l0 -175
-175 0 -175 0 -3 165 c-1 90 0 170 3 177 3 11 42 13 177 11 l173 -3 0 -175z
m360 0 l0 -175 -170 0 -170 0 -3 165 c-1 90 0 170 3 177 3 11 41 13 172 11
l168 -3 0 -175z m370 0 l0 -175 -175 0 -175 0 -3 165 c-1 90 0 170 3 177 3 11
42 13 177 11 l173 -3 0 -175z m370 0 l0 -175 -175 0 -175 0 -3 165 c-1 90 0
170 3 177 3 11 42 13 177 11 l173 -3 0 -175z m370 0 l0 -175 -175 0 -175 0 -3
165 c-1 90 0 170 3 177 3 11 42 13 177 11 l173 -3 0 -175z"/>
<path d="M680 3223 c0 -10 -3 -28 -6 -40 -6 -21 -4 -22 25 -17 28 6 31 4 31
-20 0 -33 -26 -45 -44 -21 -8 11 -15 14 -19 8 -10 -17 19 -35 50 -31 25 3 28
7 28 43 0 36 -3 40 -28 43 -35 4 -30 26 6 30 39 5 33 22 -8 22 -27 0 -35 -4
-35 -17z"/>
<path d="M1062 3231 c-11 -7 -11 -9 2 -14 21 -8 20 -46 -1 -69 -15 -17 -14
-18 22 -18 36 0 37 1 22 18 -10 10 -17 35 -17 55 0 38 -5 43 -28 28z"/>
<path d="M1431 3201 c-39 -49 -39 -61 -1 -61 23 0 30 -4 30 -20 0 -11 5 -20
10 -20 6 0 10 7 10 15 0 7 8 18 18 24 16 9 16 10 0 16 -13 5 -18 18 -18 46 0
21 -4 39 -9 39 -5 0 -23 -18 -40 -39z m29 -21 c0 -14 -7 -20 -22 -20 -20 0
-21 1 -3 20 10 11 20 20 22 20 1 0 3 -9 3 -20z"/>
<path d="M1796 3225 c-9 -23 -8 -25 9 -25 8 0 15 7 15 15 0 19 26 20 33 2 7
-17 -1 -28 -36 -50 -15 -10 -25 -22 -22 -27 8 -13 82 -13 90 0 4 6 -7 10 -27
10 l-33 1 28 15 c22 12 28 21 25 42 -3 23 -8 27 -39 30 -26 2 -38 -1 -43 -13z"/>
<path d="M2141 3267 c-6 -7 -10 -27 -10 -43 1 -16 -1 -38 -5 -49 -3 -11 -2
-26 3 -34 14 -21 69 -18 86 5 18 24 18 30 1 46 -10 9 -10 17 -3 30 22 35 -45
77 -72 45z m57 -24 c5 -18 -28 -29 -38 -12 -5 7 -6 17 -3 22 7 12 35 5 41 -10z
m0 -81 c-2 -9 -11 -18 -21 -20 -19 -4 -32 20 -23 43 8 22 48 0 44 -23z"/>
<path d="M3380 3310 l0 -70 -48 0 c-70 0 -130 -34 -160 -91 -22 -43 -23 -50
-20 -234 3 -176 5 -193 25 -226 12 -19 34 -41 48 -49 27 -14 35 -36 10 -26 -8
3 -15 1 -15 -4 0 -6 19 -10 43 -10 23 0 53 -3 65 -7 18 -4 12 6 -29 46 -56 55
-66 62 -47 31 17 -27 4 -35 -25 -15 -50 32 -57 66 -57 277 0 172 2 196 19 222
31 47 69 66 134 66 l57 0 0 -110 0 -110 180 -1 c99 0 446 0 770 0 325 0 660 0
745 0 l155 1 0 190 0 190 -925 0 -925 0 0 -70z m360 -120 l0 -180 -172 2 -173
3 -3 165 c-1 90 0 170 2 177 4 10 46 13 176 13 l170 0 0 -180z m365 0 l0 -175
-172 -3 -173 -2 0 180 0 180 173 -2 172 -3 0 -175z m370 0 l0 -175 -175 0
-175 0 -3 165 c-1 90 0 170 3 177 3 11 42 13 177 11 l173 -3 0 -175z m370 0
l0 -175 -175 0 -175 0 -3 165 c-1 90 0 170 3 177 3 11 42 13 177 11 l173 -3 0
-175z m370 0 l0 -175 -175 0 -175 0 -3 165 c-1 90 0 170 3 177 3 11 42 13 177
11 l173 -3 0 -175z"/>
<path d="M3541 3226 c-19 -11 -21 -14 -7 -19 21 -8 21 -56 -1 -73 -16 -12 -14
-13 21 -14 30 0 36 3 28 13 -6 7 -12 33 -14 59 -3 46 -3 46 -27 34z"/>
<path d="M3903 3185 c-18 -24 -33 -47 -33 -50 0 -3 14 -5 30 -5 23 0 30 -4 30
-20 0 -28 13 -25 28 8 8 17 9 28 2 30 -5 2 -10 21 -10 43 0 21 -3 39 -7 39 -5
-1 -23 -21 -40 -45z m27 -15 c0 -11 -7 -20 -15 -20 -18 0 -19 12 -3 28 16 16
18 15 18 -8z"/>
<path d="M4283 3229 c-26 -9 -31 -39 -8 -39 8 0 15 7 15 15 0 8 7 15 15 15 28
0 17 -44 -16 -62 -38 -22 -29 -38 21 -38 48 0 62 17 18 22 l-33 4 28 14 c54
27 17 90 -40 69z"/>
<path d="M4656 3208 c-12 -46 -8 -57 21 -55 22 2 29 -3 31 -19 4 -27 -28 -42
-40 -19 -5 8 -14 13 -19 9 -16 -9 10 -34 37 -34 43 0 70 50 42 78 -7 7 -22 12
-35 12 -14 0 -23 6 -23 15 0 10 11 15 35 15 19 0 35 5 35 10 0 6 -17 10 -39
10 -32 0 -40 -4 -45 -22z"/>
<path d="M4990 3255 c-7 -8 -10 -25 -7 -37 3 -11 1 -30 -4 -40 -26 -49 33 -83
77 -44 24 20 26 56 3 56 -5 0 -4 9 3 19 24 39 -43 81 -72 46z m60 -27 c0 -15
-32 -21 -40 -7 -13 20 9 43 26 28 8 -6 14 -16 14 -21z m-2 -76 c-2 -9 -11 -18
-21 -20 -19 -4 -32 20 -23 43 8 22 48 0 44 -23z"/>
<path d="M6290 3291 l0 -68 -60 -6 c-35 -3 -74 -14 -94 -26 -59 -37 -66 -65
-66 -281 0 -216 7 -245 66 -283 39 -25 44 -37 12 -30 -16 4 -20 2 -13 -4 6 -6
36 -13 68 -16 66 -6 65 -4 -3 59 -35 32 -54 38 -30 9 19 -23 4 -30 -25 -11
-57 37 -60 53 -60 272 0 222 4 239 61 274 21 14 49 20 88 20 l56 0 0 -110 0
-110 180 -1 c99 0 448 0 775 0 327 0 663 0 745 0 l150 1 0 190 0 190 -925 0
-925 0 0 -69z m365 -121 l0 -175 -175 0 -175 0 -3 165 c-1 90 0 170 3 177 3
11 42 13 177 11 l173 -3 0 -175z m370 0 l0 -175 -175 0 -175 0 -3 165 c-1 90
0 170 3 177 3 11 42 13 177 11 l173 -3 0 -175z m373 20 c1 -85 0 -165 -3 -178
-5 -22 -6 -22 -178 -20 l-172 3 -3 165 c-1 90 0 170 3 177 3 11 42 13 177 11
l173 -3 3 -155z m360 -17 l-3 -178 -170 0 -170 0 -3 178 -2 177 175 0 175 0
-2 -177z m367 -3 l0 -175 -169 -3 c-129 -2 -171 1 -178 10 -9 16 -11 332 -1
342 4 3 84 5 177 4 l171 -3 0 -175z"/>
<path d="M6451 3206 c-19 -11 -21 -14 -7 -19 18 -7 23 -67 6 -67 -5 0 -10 -3
-10 -7 0 -5 16 -8 35 -9 19 0 35 3 35 8 0 4 -7 8 -14 8 -11 0 -16 14 -18 49
-3 49 -3 49 -27 37z"/>
<path d="M6813 3210 c-26 -10 -31 -40 -8 -40 8 0 15 7 15 15 0 19 26 20 33 1
4 -9 -8 -27 -31 -45 l-37 -30 55 1 c49 1 51 1 20 8 l-35 7 28 11 c33 14 38 56
8 72 -22 11 -19 11 -48 0z"/>
<path d="M7208 3170 c-40 -45 -40 -55 -5 -55 13 0 26 -10 34 -25 12 -24 13
-24 13 -3 0 12 5 25 10 28 7 5 8 11 1 18 -5 7 -11 28 -13 47 l-3 34 -37 -44z
m32 -15 c0 -16 -27 -32 -37 -21 -7 7 16 36 28 36 5 0 9 -7 9 -15z"/>
<path d="M7576 3194 c-3 -9 -6 -26 -6 -38 0 -19 4 -22 25 -18 21 4 25 1 25
-21 0 -34 -19 -45 -36 -22 -16 21 -30 14 -21 -10 8 -20 51 -19 72 1 29 30 14
62 -38 78 -27 8 -11 26 24 26 16 0 29 5 29 10 0 17 -67 12 -74 -6z"/>
<path d="M7911 3236 c-7 -8 -11 -23 -10 -33 2 -10 -1 -28 -5 -40 -11 -34 1
-58 30 -61 52 -4 81 31 50 60 -10 10 -11 17 -2 30 23 37 -35 77 -63 44z m45
-35 c-9 -13 -36 -15 -36 -2 0 5 3 17 6 26 6 15 8 15 22 2 8 -8 11 -20 8 -26z
m-6 -46 c13 -16 7 -45 -10 -45 -6 0 -14 10 -19 23 -14 36 5 51 29 22z"/>
<path d="M1229 2906 c-25 -7 -59 -22 -76 -34 -41 -29 -46 -28 -40 11 4 23 -2
15 -24 -32 -17 -34 -29 -67 -27 -71 2 -4 32 7 68 26 50 25 57 32 33 27 -43 -7
-42 6 2 36 73 49 174 40 241 -21 47 -44 58 -47 22 -6 -52 58 -126 82 -199 64z"/>
<path d="M1473 2905 c-3 -9 3 -22 13 -31 18 -14 18 -15 -3 -9 -14 4 -23 2 -23
-4 0 -6 11 -11 25 -11 29 0 32 15 8 43 -17 19 -17 20 0 14 9 -4 17 -2 17 3 0
16 -30 11 -37 -5z"/>
<path d="M1530 2911 c0 -5 5 -22 11 -38 10 -26 11 -27 24 -10 12 17 13 17 19
0 6 -14 9 -12 22 12 8 15 13 33 10 39 -2 6 -8 0 -14 -14 -9 -22 -11 -23 -17
-7 -7 17 -8 17 -21 0 -12 -17 -13 -17 -14 5 0 12 -4 22 -10 22 -5 0 -10 -4
-10 -9z"/>
<path d="M1634 2909 c-5 -9 -2 -10 9 -6 9 3 19 2 22 -2 2 -5 -4 -11 -15 -14
-32 -8 -25 -37 9 -37 27 0 28 2 22 32 -7 34 -33 49 -47 27z m31 -39 c-3 -5
-11 -10 -16 -10 -6 0 -7 5 -4 10 3 6 11 10 16 10 6 0 7 -4 4 -10z"/>
<path d="M1705 2868 c0 -31 4 -48 12 -48 7 0 10 6 7 14 -3 8 3 16 15 19 38 10
23 59 -19 62 -12 1 -15 -10 -15 -47z m40 12 c0 -7 -6 -15 -12 -17 -8 -3 -13 4
-13 17 0 13 5 20 13 18 6 -3 12 -11 12 -18z"/>
<path d="M1775 2869 c0 -32 4 -49 12 -49 7 0 10 7 7 15 -4 10 0 15 15 15 46 0
36 63 -10 67 -22 1 -24 -2 -24 -48z m45 10 c0 -10 -7 -19 -15 -19 -15 0 -21
31 -9 43 11 10 24 -3 24 -24z"/>
<path d="M1858 2884 c2 -19 8 -34 13 -34 14 0 10 57 -4 63 -9 3 -12 -5 -9 -29z"/>
<path d="M1900 2885 c0 -22 4 -34 10 -30 6 3 10 17 10 30 0 13 -4 27 -10 30
-6 4 -10 -8 -10 -30z"/>
<path d="M1930 2886 c0 -20 5 -36 10 -36 6 0 10 13 10 29 0 17 -4 33 -10 36
-6 4 -10 -8 -10 -29z"/>
<path d="M1977 2913 c-2 -5 -5 -27 -6 -51 -1 -41 0 -43 26 -40 32 4 43 27 15
35 -20 5 -20 5 -1 24 10 10 19 24 19 29 0 12 -47 14 -53 3z m33 -24 c0 -5 -4
-9 -10 -9 -5 0 -10 7 -10 16 0 8 5 12 10 9 6 -3 10 -10 10 -16z m0 -49 c0 -5
-7 -10 -16 -10 -8 0 -12 5 -9 10 3 6 10 10 16 10 5 0 9 -4 9 -10z"/>
<path d="M4073 2895 c-22 -7 -55 -22 -71 -34 -40 -28 -45 -27 -39 12 4 24 -2
17 -25 -31 -17 -35 -28 -66 -25 -69 3 -3 34 8 69 25 48 23 55 29 31 25 -43 -7
-42 6 2 36 73 49 174 40 241 -21 24 -22 44 -38 44 -34 0 14 -76 76 -104 85
-60 18 -81 19 -123 6z"/>
<path d="M4323 2895 c-3 -9 3 -22 13 -31 18 -14 18 -15 -3 -9 -14 4 -23 2 -23
-4 0 -6 11 -11 25 -11 29 0 32 15 8 43 -17 19 -17 20 0 14 9 -4 17 -2 17 3 0
16 -30 11 -37 -5z"/>
<path d="M4380 2901 c0 -22 21 -62 29 -57 5 4 3 19 -6 36 -15 30 -23 38 -23
21z"/>
<path d="M4450 2888 c-1 -21 -2 -22 -14 -5 -16 21 -23 22 -23 2 0 -8 4 -15 9
-15 4 0 8 -7 8 -15 0 -21 17 -19 23 3 2 9 8 25 12 35 4 10 3 17 -4 17 -6 0
-11 -10 -11 -22z"/>
<path d="M4484 2899 c-5 -9 -2 -10 9 -6 9 3 19 2 22 -2 2 -5 -4 -11 -15 -14
-32 -8 -25 -37 9 -37 27 0 28 2 22 32 -7 34 -33 49 -47 27z m31 -39 c-3 -5
-11 -10 -16 -10 -6 0 -7 5 -4 10 3 6 11 10 16 10 6 0 7 -4 4 -10z"/>
<path d="M4555 2858 c0 -26 3 -48 8 -48 4 0 7 7 7 15 0 8 6 15 14 15 19 0 31
39 17 53 -6 6 -19 11 -28 12 -15 1 -18 -7 -18 -47z m35 12 c0 -11 -4 -20 -10
-20 -5 0 -10 9 -10 20 0 11 5 20 10 20 6 0 10 -9 10 -20z"/>
<path d="M4625 2859 c0 -32 4 -49 12 -49 7 0 10 7 7 15 -4 10 0 15 15 15 46 0
36 63 -10 67 -22 1 -24 -2 -24 -48z m45 10 c0 -10 -7 -19 -15 -19 -15 0 -21
31 -9 43 11 10 24 -3 24 -24z"/>
<path d="M4708 2874 c2 -19 8 -34 13 -34 14 0 10 57 -4 63 -9 3 -12 -5 -9 -29z"/>
<path d="M4751 2875 c1 -40 1 -40 10 -10 5 18 5 33 -1 39 -7 7 -10 -4 -9 -29z"/>
<path d="M4780 2876 c0 -20 5 -36 10 -36 6 0 10 13 10 29 0 17 -4 33 -10 36
-6 4 -10 -8 -10 -29z"/>
<path d="M4827 2903 c-2 -5 -5 -27 -6 -51 -1 -41 0 -43 26 -40 32 4 43 27 15
35 -20 5 -20 5 -1 24 10 10 19 24 19 29 0 12 -47 14 -53 3z m33 -24 c0 -5 -4
-9 -10 -9 -5 0 -10 7 -10 16 0 8 5 12 10 9 6 -3 10 -10 10 -16z m0 -49 c0 -5
-7 -10 -16 -10 -8 0 -12 5 -9 10 3 6 10 10 16 10 5 0 9 -4 9 -10z"/>
<path d="M6800 2874 c0 -19 5 -34 10 -34 6 0 10 11 10 25 0 14 5 25 10 25 6 0
10 -11 10 -25 0 -14 5 -25 11 -25 6 0 9 14 7 32 -3 28 -7 33 -30 35 -26 2 -28
-1 -28 -33z"/>
<path d="M6891 2900 c-7 -4 -11 -18 -9 -31 5 -35 42 -33 46 2 3 28 -16 43 -37
29z m24 -40 c-6 -9 -9 -9 -16 1 -10 17 0 34 13 21 6 -6 7 -16 3 -22z"/>
<path d="M6984 2898 c-4 -6 0 -16 9 -23 21 -15 22 -29 2 -21 -8 3 -15 1 -15
-4 0 -6 11 -10 25 -10 28 0 35 27 10 36 -8 4 -15 10 -15 15 0 4 7 6 15 3 8 -4
15 -1 15 5 0 15 -37 14 -46 -1z"/>
<path d="M7040 2906 c0 -2 6 -18 14 -36 9 -22 16 -28 21 -20 4 7 2 16 -5 20
-7 4 -10 15 -7 24 4 10 1 16 -8 16 -8 0 -15 -2 -15 -4z"/>
<path d="M7080 2891 c0 -12 5 -21 10 -21 6 0 10 6 10 14 0 8 -4 18 -10 21 -5
3 -10 -3 -10 -14z"/>
<path d="M7116 2897 c3 -8 -2 -20 -11 -27 -16 -13 -20 -30 -7 -30 5 0 16 16
25 35 14 30 14 35 2 35 -8 0 -12 -6 -9 -13z"/>
<path d="M7155 2900 c-4 -6 -3 -10 2 -9 23 4 25 -3 5 -17 -30 -21 -28 -34 8
-34 23 0 30 5 30 19 0 43 -28 68 -45 41z m25 -40 c0 -5 -4 -10 -10 -10 -5 0
-10 5 -10 10 0 6 5 10 10 10 6 0 10 -4 10 -10z"/>
<path d="M7220 2857 l0 -49 25 23 c23 22 36 77 15 64 -5 -3 -7 -12 -4 -19 3
-8 0 -17 -7 -22 -9 -5 -11 1 -6 23 4 22 2 30 -9 30 -10 0 -14 -13 -14 -50z"/>
<path d="M6719 2861 c-18 -14 -23 -31 -27 -80 l-4 -61 -199 0 -199 0 0 -99 0
-98 -59 -6 c-69 -6 -115 -29 -142 -73 -17 -28 -19 -51 -19 -229 0 -223 7 -252
69 -289 35 -20 35 -20 10 -27 -32 -8 -11 -16 58 -22 47 -4 51 -2 40 13 -18 26
-87 83 -87 73 0 -5 5 -14 12 -21 9 -9 8 -12 -6 -12 -30 0 -74 57 -81 104 -4
23 -5 119 -3 212 2 139 6 173 20 193 30 43 69 61 131 61 l57 0 0 -80 0 -80
183 -1 c219 -1 1312 0 1520 0 l147 1 0 190 0 190 -715 0 -715 0 0 66 c0 57 3
67 20 71 11 3 20 9 20 14 0 13 -5 11 -31 -10z m-64 -331 l0 -175 -175 0 -175
0 -3 165 c-1 90 0 170 3 177 3 11 42 13 177 11 l173 -3 0 -175z m370 0 l0
-175 -175 0 -175 0 -3 165 c-1 90 0 170 3 177 3 11 42 13 177 11 l173 -3 0
-175z m370 0 l0 -175 -175 0 -175 0 -3 165 c-1 90 0 170 3 177 3 11 42 13 177
11 l173 -3 0 -175z m360 0 l0 -175 -170 0 -170 0 -3 165 c-1 90 0 170 3 177 3
11 41 13 172 11 l168 -3 0 -175z m370 0 l0 -175 -175 0 -175 0 -3 165 c-1 90
0 170 3 177 3 11 42 13 177 11 l173 -3 0 -175z"/>
<path d="M6450 2565 c-19 -11 -21 -14 -7 -15 13 0 17 -8 17 -33 0 -18 -5 -38
-12 -45 -9 -9 -3 -12 28 -11 21 1 31 3 22 6 -13 3 -18 17 -20 58 l-3 53 -25
-13z"/>
<path d="M6813 2570 c-26 -10 -31 -40 -8 -40 8 0 15 7 15 15 0 19 26 20 34 0
3 -9 -8 -24 -29 -41 -19 -14 -32 -30 -29 -35 7 -12 81 -11 89 1 4 6 -7 10 -27
10 l-33 1 28 15 c32 18 37 58 8 74 -22 11 -19 11 -48 0z"/>
<path d="M7203 2528 c-41 -50 -41 -58 -2 -58 23 0 32 -5 36 -20 5 -19 7 -19
20 6 9 19 10 31 3 38 -5 5 -10 25 -10 43 0 18 -3 33 -7 32 -5 0 -23 -18 -40
-41z m37 -18 c0 -13 -7 -20 -20 -20 -18 0 -19 2 -8 20 7 11 16 20 20 20 5 0 8
-9 8 -20z"/>
<path d="M7576 2554 c-14 -35 -7 -61 17 -60 17 1 23 -5 25 -26 4 -32 -21 -39
-37 -11 -11 21 -26 11 -18 -12 8 -18 58 -20 75 -3 7 7 12 21 12 33 0 28 -18
45 -48 45 -35 0 -21 24 16 28 43 4 41 22 -2 22 -22 0 -36 -6 -40 -16z"/>
<path d="M7910 2596 c-7 -9 -10 -26 -7 -38 3 -11 1 -30 -4 -40 -24 -44 24 -81
68 -52 26 16 29 37 9 56 -10 10 -11 17 -2 30 23 37 -36 77 -64 44z m45 -27 c0
-7 -8 -15 -17 -17 -18 -3 -25 18 -11 32 10 10 28 1 28 -15z m3 -76 c-5 -26
-27 -27 -37 -1 -5 12 -7 26 -4 31 8 13 44 -14 41 -30z"/>
<path d="M7328 2860 c12 -5 22 -17 23 -27 0 -11 3 -13 6 -5 7 17 -15 42 -36
41 -11 0 -9 -3 7 -9z"/>
<path d="M1460 2780 c6 -11 13 -20 16 -20 2 0 0 9 -6 20 -6 11 -13 20 -16 20
-2 0 0 -9 6 -20z"/>
<path d="M4310 2770 c6 -11 13 -20 16 -20 2 0 0 9 -6 20 -6 11 -13 20 -16 20
-2 0 0 -9 6 -20z"/>
<path d="M530 2650 l0 -100 -48 0 c-70 0 -130 -34 -160 -91 -22 -43 -23 -50
-20 -234 3 -176 5 -193 25 -226 12 -19 34 -41 48 -49 27 -14 35 -33 10 -24 -8
4 -15 1 -15 -5 0 -6 18 -11 43 -11 23 0 53 -3 67 -6 21 -6 18 1 -24 44 -28 29
-52 50 -54 47 -3 -2 1 -11 7 -19 18 -22 -4 -29 -33 -11 -49 32 -56 67 -56 277
0 172 2 196 19 222 31 47 69 66 134 66 l57 0 0 -80 0 -80 178 -1 c245 -1 1334
-1 1520 0 l152 1 0 190 0 190 -925 0 -925 0 0 -100z m359 76 c8 -9 11 -65 9
-177 l-3 -164 -175 0 -175 0 -3 165 c-1 90 0 170 2 177 8 19 329 19 345 -1z
m369 -168 l2 -178 -175 0 -175 0 0 173 c0 96 3 177 7 181 4 3 81 5 172 4 l166
-3 3 -177z m367 2 l0 -175 -175 0 -175 0 -3 155 c-1 85 0 165 3 178 5 22 6 22
178 20 l172 -3 0 -175z m370 0 l0 -175 -175 0 -175 0 -3 165 c-1 90 0 170 3
177 3 11 42 13 177 11 l173 -3 0 -175z m370 0 l0 -175 -175 0 -175 0 -3 165
c-1 90 0 170 3 177 3 11 42 13 177 11 l173 -3 0 -175z"/>
<path d="M680 2590 c-13 -8 -12 -10 3 -10 13 0 17 -8 17 -35 0 -22 -6 -38 -17
-44 -14 -8 -10 -10 22 -10 22 0 34 3 28 6 -8 3 -13 24 -13 54 0 50 -9 59 -40
39z"/>
<path d="M1040 2576 c0 -13 -3 -32 -6 -41 -5 -13 -2 -15 19 -10 29 8 41 -6 32
-35 -8 -24 -30 -26 -39 -4 -3 8 -10 12 -16 9 -17 -11 8 -45 33 -45 30 0 47 18
47 50 0 31 -17 50 -43 50 -28 0 -14 25 16 28 39 5 33 22 -8 22 -30 0 -35 -3
-35 -24z"/>
<path d="M1438 2560 c-45 -51 -46 -60 -13 -60 18 0 29 -8 37 -27 10 -25 12
-26 15 -8 3 11 11 25 20 32 13 10 13 12 -1 20 -8 4 -16 26 -18 48 l-3 39 -37
-44z m22 -20 c0 -14 -7 -20 -22 -20 -20 0 -21 1 -3 20 10 11 20 20 22 20 1 0
3 -9 3 -20z"/>
<path d="M1796 2584 c-9 -22 -8 -24 9 -24 8 0 15 7 15 15 0 19 26 20 33 2 7
-17 -1 -28 -35 -50 -41 -26 -34 -37 22 -37 28 0 50 5 50 10 0 6 -15 10 -32 10
l-33 1 28 15 c46 25 30 74 -24 74 -15 0 -29 -7 -33 -16z"/>
<path d="M2140 2615 c-7 -8 -10 -22 -6 -31 3 -8 1 -24 -5 -35 -25 -47 30 -85
77 -54 27 17 31 38 10 57 -10 9 -10 17 -3 30 23 36 -45 67 -73 33z m54 -26
c-8 -14 -31 -11 -37 5 -3 8 -1 17 6 19 15 6 39 -12 31 -24z m4 -67 c-2 -9 -11
-18 -21 -20 -19 -4 -32 20 -23 43 8 22 48 0 44 -23z"/>
<path d="M3380 2640 l0 -100 -48 0 c-70 0 -130 -34 -160 -91 -22 -43 -23 -50
-20 -234 3 -173 5 -193 24 -223 12 -19 34 -42 50 -53 21 -14 24 -19 12 -19
-10 0 -18 -4 -18 -10 0 -5 19 -10 43 -10 23 0 53 -3 67 -6 21 -6 18 1 -25 45
-50 52 -75 67 -53 31 17 -27 4 -35 -25 -15 -50 33 -57 65 -57 284 l0 201 40
40 c38 38 43 40 105 40 l65 0 0 -80 0 -80 180 -1 c99 0 446 0 770 0 325 0 660
0 745 0 l155 1 0 190 0 190 -925 0 -925 0 0 -100z m358 -93 l2 -177 -172 2
-173 3 -3 165 c-1 90 0 170 3 177 3 11 41 13 172 11 l168 -3 3 -178z m367 3
l0 -175 -172 -3 -173 -2 0 173 c0 96 3 177 7 181 4 3 81 5 172 4 l166 -3 0
-175z m370 0 l0 -175 -175 0 -175 0 -3 165 c-1 90 0 170 3 177 3 11 42 13 177
11 l173 -3 0 -175z m370 0 l0 -175 -175 0 -175 0 -3 165 c-1 90 0 170 3 177 3
11 42 13 177 11 l173 -3 0 -175z m370 0 l0 -175 -175 0 -175 0 -3 165 c-1 90
0 170 3 177 3 11 42 13 177 11 l173 -3 0 -175z"/>
<path d="M3530 2580 c-13 -8 -12 -10 3 -10 13 0 17 -8 17 -35 0 -22 -6 -38
-17 -44 -14 -8 -10 -10 22 -10 22 0 34 3 28 6 -8 3 -13 24 -13 54 0 50 -9 59
-40 39z"/>
<path d="M3908 2549 c-21 -25 -38 -49 -38 -53 0 -3 14 -6 30 -6 23 0 30 -5 30
-19 0 -11 5 -23 10 -26 6 -3 10 2 10 12 0 11 6 25 12 31 10 10 10 15 1 20 -6
4 -13 25 -15 47 l-3 40 -37 -46z m22 -19 c0 -11 -7 -20 -15 -20 -13 0 -13 3
-3 20 7 11 14 20 15 20 2 0 3 -9 3 -20z"/>
<path d="M4281 2584 c-11 -8 -21 -19 -21 -25 0 -15 27 -10 34 6 8 21 26 19 26
-4 0 -11 -14 -29 -30 -41 -17 -12 -28 -26 -25 -31 8 -12 95 -12 95 1 0 6 -15
10 -32 10 l-33 1 28 15 c22 12 27 21 25 41 -4 33 -38 47 -67 27z"/>
<path d="M4656 2568 c-12 -46 -8 -57 22 -55 23 2 28 -2 30 -25 3 -22 -1 -28
-16 -28 -11 0 -23 8 -26 17 -5 12 -9 14 -18 5 -9 -9 -8 -16 5 -29 37 -38 111
31 77 71 -7 9 -23 16 -36 16 -15 0 -24 6 -24 15 0 11 11 15 36 15 21 0 33 4
29 10 -3 6 -21 10 -39 10 -26 0 -35 -5 -40 -22z"/>
<path d="M4992 2608 c-6 -7 -10 -24 -10 -38 0 -14 -3 -34 -6 -45 -14 -45 48
-71 83 -36 25 25 26 36 7 53 -10 9 -10 17 -3 30 22 34 -44 68 -71 36z m48 -13
c10 -12 9 -16 -5 -21 -17 -7 -38 13 -29 28 8 12 20 10 34 -7z m8 -83 c-2 -9
-11 -18 -21 -20 -19 -4 -32 20 -23 43 8 22 48 0 44 -23z"/>
<path d="M2227 2278 c-7 -19 4 -78 14 -78 12 0 11 47 -1 55 -5 3 -7 12 -3 20
3 8 3 15 0 15 -3 0 -7 -6 -10 -12z"/>
<path d="M1843 2255 c-3 -9 3 -22 13 -31 18 -14 18 -15 -3 -9 -14 4 -23 2 -23
-4 0 -6 11 -11 25 -11 28 0 35 27 10 36 -8 4 -15 10 -15 15 0 4 7 5 17 2 11
-4 14 -3 9 5 -10 17 -26 15 -33 -3z"/>
<path d="M1900 2260 c0 -28 12 -60 22 -60 6 0 7 11 3 28 -7 31 -25 54 -25 32z"/>
<path d="M1973 2251 c-6 -23 -7 -23 -19 -6 -8 10 -17 15 -21 12 -7 -7 16 -57
26 -57 9 0 32 63 25 69 -2 3 -8 -5 -11 -18z"/>
<path d="M2005 2260 c-3 -6 4 -10 17 -11 l23 0 -22 -9 c-34 -14 -29 -40 6 -40
25 0 28 3 24 23 -10 40 -34 59 -48 37z m30 -40 c-3 -5 -11 -10 -16 -10 -6 0
-7 5 -4 10 3 6 11 10 16 10 6 0 7 -4 4 -10z"/>
<path d="M2071 2220 c1 -27 6 -50 10 -50 5 0 9 7 9 15 0 8 6 15 14 15 23 0 31
40 12 58 -15 15 -16 14 -10 -16 4 -21 3 -32 -5 -32 -6 0 -11 11 -11 24 0 14
-4 28 -10 31 -6 4 -9 -14 -9 -45z"/>
<path d="M2145 2220 c0 -33 4 -50 12 -50 7 0 10 6 7 14 -4 10 2 16 18 18 29 4
37 37 12 52 -41 23 -49 18 -49 -34z m45 10 c0 -11 -7 -20 -15 -20 -8 0 -15 9
-15 20 0 11 7 20 15 20 8 0 15 -9 15 -20z"/>
<path d="M2267 2264 c-10 -11 -9 -64 2 -64 11 0 22 53 12 63 -4 4 -10 4 -14 1z"/>
<path d="M2300 2236 c0 -20 5 -36 10 -36 6 0 10 13 10 29 0 17 -4 33 -10 36
-6 4 -10 -8 -10 -29z"/>
<path d="M2347 2263 c-2 -5 -5 -27 -6 -51 -1 -41 0 -43 26 -40 32 4 43 27 15
35 -20 5 -20 5 -1 24 11 11 17 24 14 29 -7 12 -42 13 -48 3z m28 -23 c3 -5 1
-10 -4 -10 -6 0 -11 5 -11 10 0 6 2 10 4 10 3 0 8 -4 11 -10z m5 -50 c0 -5 -7
-10 -16 -10 -8 0 -12 5 -9 10 3 6 10 10 16 10 5 0 9 -4 9 -10z"/>
<path d="M4265 2252 c-9 -10 -5 -62 5 -62 6 0 10 9 10 19 0 11 5 23 10 26 6 4
10 -5 10 -19 0 -14 5 -26 11 -26 6 0 9 14 7 32 -2 24 -8 32 -26 33 -12 1 -24
-1 -27 -3z"/>
<path d="M4351 2251 c-7 -5 -11 -19 -9 -32 4 -33 52 -35 56 -2 4 25 -27 46
-47 34z m29 -31 c0 -11 -4 -20 -9 -20 -11 0 -22 26 -14 34 12 12 23 5 23 -14z"/>
<path d="M4450 2245 c-10 -12 -9 -16 4 -21 9 -3 16 -11 16 -16 0 -6 -7 -8 -15
-4 -8 3 -15 1 -15 -4 0 -6 11 -10 25 -10 29 0 34 24 8 39 -17 10 -17 10 0 11
9 0 17 5 17 10 0 15 -26 12 -40 -5z"/>
<path d="M4500 2255 c0 -4 22 -57 27 -64 2 -3 10 4 18 15 13 17 14 17 15 2 0
-29 17 -21 29 13 13 39 13 39 2 39 -5 0 -11 -10 -14 -22 -4 -23 -4 -23 -14 2
l-10 25 -7 -23 c-4 -12 -12 -20 -17 -16 -6 3 -8 12 -5 20 3 8 -1 14 -9 14 -8
0 -15 -2 -15 -5z"/>
<path d="M4615 2250 c-3 -5 2 -10 12 -10 15 0 14 -2 -5 -16 -30 -21 -28 -34 8
-34 31 0 38 17 24 54 -7 18 -30 21 -39 6z m25 -40 c0 -5 -4 -10 -10 -10 -5 0
-10 5 -10 10 0 6 5 10 10 10 6 0 10 -4 10 -10z"/>
<path d="M4680 2208 c0 -26 5 -48 10 -48 6 0 10 6 10 14 0 7 9 16 20 19 39 10
21 59 -22 62 -15 1 -18 -7 -18 -47z m40 17 c0 -14 -4 -25 -10 -25 -11 0 -14
33 -3 43 11 11 13 8 13 -18z"/>
<path d="M1612 2230 c-18 -4 -50 -19 -72 -34 -50 -33 -54 -33 -46 6 8 40 5 37
-33 -39 -17 -34 -27 -64 -23 -66 4 -3 36 10 72 29 50 25 57 32 33 27 -18 -3
-33 -2 -33 3 0 18 72 57 114 61 77 9 110 -3 166 -60 29 -29 48 -42 41 -30 -14
27 -89 89 -116 96 -47 12 -72 14 -103 7z"/>
<path d="M7180 2205 c0 -19 5 -35 10 -35 6 0 10 11 10 25 0 14 5 25 10 25 6 0
10 -11 10 -25 0 -14 5 -25 10 -25 14 0 12 47 -2 57 -33 20 -48 13 -48 -22z"/>
<path d="M7260 2225 c-19 -23 -8 -50 20 -50 19 0 26 6 28 24 5 35 -26 53 -48
26z m30 -26 c0 -10 -4 -19 -10 -19 -5 0 -10 12 -10 26 0 14 4 23 10 19 6 -3
10 -15 10 -26z"/>
<path d="M7364 2228 c-4 -6 0 -16 9 -23 21 -15 22 -29 2 -21 -8 3 -15 1 -15
-4 0 -6 11 -10 25 -10 28 0 35 27 10 36 -8 4 -15 10 -15 16 0 5 5 6 10 3 6 -3
10 -1 10 4 0 15 -27 14 -36 -1z"/>
<path d="M7424 2208 c8 -42 13 -45 31 -22 13 17 14 17 15 2 0 -29 15 -21 33
17 14 30 15 35 2 35 -8 0 -14 -3 -14 -7 5 -29 -3 -35 -15 -14 l-14 24 -6 -21
c-4 -12 -11 -20 -16 -17 -5 3 -7 12 -3 20 3 8 0 15 -7 15 -9 0 -11 -10 -6 -32z"/>
<path d="M7535 2230 c-4 -6 -3 -10 2 -9 23 4 25 -3 5 -17 -30 -21 -28 -34 8
-34 32 0 38 16 20 51 -12 21 -25 25 -35 9z m25 -40 c0 -5 -4 -10 -10 -10 -5 0
-10 5 -10 10 0 6 5 10 10 10 6 0 10 -4 10 -10z"/>
<path d="M7590 2194 c0 -24 5 -46 10 -49 6 -3 10 0 10 8 0 8 9 17 20 20 14 3
20 14 20 31 0 14 -3 26 -7 27 -56 6 -53 8 -53 -37z m43 -1 c-3 -7 -9 -13 -14
-13 -11 0 -12 34 -2 43 9 10 22 -13 16 -30z"/>
<path d="M4179 2211 c-18 -14 -23 -31 -27 -80 -3 -39 -1 -61 6 -61 7 0 12 28
14 68 3 61 5 67 26 70 12 2 22 8 22 13 0 14 -16 11 -41 -10z"/>
<path d="M4788 2210 c12 -5 22 -17 23 -27 0 -11 3 -13 6 -5 7 17 -15 42 -36
41 -11 0 -9 -3 7 -9z"/>
<path d="M7092 2194 c-19 -13 -22 -23 -21 -82 l2 -67 7 61 c7 67 14 84 36 84
8 0 14 5 14 10 0 14 -12 12 -38 -6z"/>
<path d="M7708 2190 c12 -5 22 -17 23 -27 0 -11 3 -13 6 -5 7 17 -15 42 -36
41 -11 0 -9 -3 7 -9z"/>
<path d="M530 1960 l0 -110 -47 0 c-58 0 -122 -30 -154 -72 -24 -32 -24 -36
-24 -238 0 -195 1 -207 22 -241 12 -19 35 -41 50 -49 26 -12 27 -13 8 -20 -26
-10 -9 -16 64 -24 l54 -5 -19 21 c-30 34 -79 77 -83 72 -2 -2 1 -10 7 -17 18
-21 2 -28 -28 -12 -53 27 -60 62 -60 284 l0 202 42 39 c39 38 44 40 105 40
l63 0 0 -70 0 -70 178 -1 c245 -1 1334 -1 1520 0 l152 1 0 190 0 190 -925 0
-925 0 0 -110z m365 78 c3 -13 4 -93 3 -178 l-3 -155 -175 0 -175 0 -3 165
c-1 90 0 170 2 177 4 10 46 13 175 13 169 0 171 0 176 -22z m363 -160 l2 -178
-175 0 -175 0 0 173 c0 96 3 177 7 181 4 3 81 5 172 4 l166 -3 3 -177z m367 2
l0 -175 -175 0 -175 0 -3 155 c-1 85 0 165 3 178 5 22 6 22 178 20 l172 -3 0
-175z m370 0 l0 -175 -175 0 -175 0 -3 165 c-1 90 0 170 3 177 3 11 42 13 177
11 l173 -3 0 -175z m370 0 l0 -175 -175 0 -175 0 -3 165 c-1 90 0 170 3 177 3
11 42 13 177 11 l173 -3 0 -175z"/>
<path d="M680 1910 c-13 -8 -12 -10 3 -10 13 0 17 -8 17 -35 0 -22 -6 -38 -17
-44 -14 -8 -10 -10 22 -10 22 0 34 3 28 6 -8 3 -13 24 -13 54 0 50 -9 59 -40
39z"/>
<path d="M1058 1879 c-21 -25 -38 -49 -38 -52 0 -3 14 -7 32 -9 25 -2 34 -9
39 -28 6 -21 7 -22 8 -4 1 11 7 26 13 32 10 10 10 15 1 20 -6 4 -13 25 -15 47
l-3 40 -37 -46z m29 -24 c-4 -8 -14 -15 -23 -15 -16 0 -16 2 1 20 20 22 31 20
22 -5z"/>
<path d="M1427 1913 c-4 -3 -7 -21 -7 -38 0 -29 3 -32 25 -27 22 4 25 1 25
-27 0 -35 -22 -43 -39 -14 -14 25 -25 9 -11 -16 20 -38 80 -17 80 28 0 33 -16
51 -47 51 -16 0 -21 4 -17 15 4 9 19 15 35 15 16 0 29 5 29 10 0 11 -63 14
-73 3z"/>
<path d="M1820 1923 c-29 -11 -40 -43 -15 -43 8 0 15 7 15 15 0 19 26 20 34 0
3 -9 -8 -24 -29 -41 -19 -14 -35 -30 -35 -35 0 -5 23 -9 50 -9 28 0 50 5 50
10 0 6 -15 10 -32 10 l-33 1 26 14 c36 20 42 42 19 65 -21 21 -25 22 -50 13z"/>
<path d="M2140 1935 c-7 -8 -10 -22 -6 -31 3 -8 1 -24 -5 -35 -25 -47 30 -85
77 -54 27 17 31 38 10 57 -10 9 -10 17 -3 30 23 36 -45 67 -73 33z m50 -10
c10 -12 9 -16 -5 -21 -17 -7 -38 13 -29 28 8 12 20 10 34 -7z m8 -83 c-2 -9
-11 -18 -21 -20 -19 -4 -32 20 -23 43 8 22 48 0 44 -23z"/>
<path d="M3380 1951 l0 -108 -66 -6 c-53 -4 -73 -10 -102 -34 -57 -46 -64 -80
-60 -293 3 -205 10 -229 71 -265 28 -17 29 -19 11 -26 -25 -9 -8 -15 65 -23
l54 -5 -19 21 c-31 35 -78 77 -88 78 -5 0 -3 -7 4 -15 18 -22 4 -31 -25 -15
-48 26 -55 61 -55 275 0 164 3 201 16 225 26 42 64 60 133 60 l61 0 0 -70 0
-70 180 -1 c99 0 446 0 770 0 325 0 660 0 745 0 l155 1 0 190 0 190 -925 0
-925 0 0 -109z m358 -84 l2 -177 -172 2 -173 3 -3 165 c-1 90 0 170 3 177 3
11 41 13 172 11 l168 -3 3 -178z m367 3 l0 -175 -172 -3 -173 -2 0 173 c0 96
3 177 7 181 4 3 81 5 172 4 l166 -3 0 -175z m370 0 l0 -175 -175 0 -175 0 -3
165 c-1 90 0 170 3 177 3 11 42 13 177 11 l173 -3 0 -175z m370 0 l0 -175
-175 0 -175 0 -3 165 c-1 90 0 170 3 177 3 11 42 13 177 11 l173 -3 0 -175z
m370 0 l0 -175 -175 0 -175 0 -3 165 c-1 90 0 170 3 177 3 11 42 13 177 11
l173 -3 0 -175z"/>
<path d="M3530 1900 c-13 -8 -12 -10 3 -10 13 0 17 -8 17 -35 0 -22 -6 -38
-17 -44 -14 -8 -10 -10 22 -10 22 0 34 3 28 6 -8 3 -13 24 -13 54 0 50 -9 59
-40 39z"/>
<path d="M3886 1895 c-9 -23 -8 -25 9 -25 8 0 15 7 15 15 0 19 16 19 24 0 3
-9 -6 -26 -24 -42 -17 -14 -30 -30 -30 -35 0 -4 20 -8 45 -8 25 0 45 5 45 10
0 6 -12 10 -27 10 l-28 0 23 18 c35 27 27 66 -14 70 -22 2 -33 -2 -38 -13z"/>
<path d="M4283 1868 c-36 -44 -35 -58 4 -58 16 0 27 -7 30 -20 7 -27 16 -25
31 8 8 17 9 28 2 30 -5 2 -10 21 -10 43 0 50 -16 50 -57 -3z m37 -18 c0 -13
-7 -20 -20 -20 -18 0 -19 2 -8 20 7 11 16 20 20 20 5 0 8 -9 8 -20z"/>
<path d="M4656 1888 c-12 -46 -8 -57 21 -55 22 2 29 -3 31 -21 4 -29 -24 -41
-42 -17 -14 20 -29 7 -16 -14 10 -17 55 -17 75 -1 33 27 12 80 -32 80 -14 0
-23 6 -23 15 0 11 11 15 36 15 21 0 33 4 29 10 -3 6 -21 10 -39 10 -26 0 -35
-5 -40 -22z"/>
<path d="M5003 1937 c-17 -7 -22 -18 -22 -41 1 -17 -1 -40 -5 -51 -8 -26 3
-42 35 -50 20 -5 32 -1 48 16 25 27 26 33 7 52 -11 10 -12 17 -4 25 26 26 -22
66 -59 49z m37 -22 c10 -12 9 -16 -5 -21 -17 -7 -38 13 -29 28 8 12 20 10 34
-7z m8 -83 c-2 -9 -11 -18 -21 -20 -19 -4 -32 20 -23 43 8 22 48 0 44 -23z"/>
<path d="M6290 1931 l0 -108 -59 -6 c-69 -6 -115 -29 -142 -73 -17 -28 -19
-51 -19 -229 0 -223 6 -249 68 -287 36 -22 36 -22 12 -29 -33 -8 -12 -16 57
-22 l51 -4 -15 23 c-8 12 -31 35 -51 50 -20 16 -31 20 -23 11 19 -24 6 -33
-24 -17 -56 30 -60 47 -60 266 0 222 4 239 61 274 21 14 49 20 88 20 l56 0 0
-70 0 -70 183 -1 c204 0 1291 0 1520 0 l147 1 0 190 0 190 -925 0 -925 0 0
-109z m365 -81 l0 -175 -175 0 -175 0 -3 165 c-1 90 0 170 3 177 3 11 42 13
177 11 l173 -3 0 -175z m370 0 l0 -175 -175 0 -175 0 -3 165 c-1 90 0 170 3
177 3 11 42 13 177 11 l173 -3 0 -175z m370 0 l0 -175 -175 0 -175 0 -3 165
c-1 90 0 170 3 177 3 11 42 13 177 11 l173 -3 0 -175z m360 0 l0 -175 -170 0
-170 0 -3 165 c-1 90 0 170 3 177 3 11 41 13 172 11 l168 -3 0 -175z m370 0
l0 -175 -175 0 -175 0 -3 165 c-1 90 0 170 3 177 3 11 42 13 177 11 l173 -3 0
-175z"/>
<path d="M6450 1885 c-19 -11 -21 -14 -7 -15 13 0 17 -8 17 -33 0 -18 -5 -38
-12 -45 -9 -9 -3 -12 28 -11 21 1 31 3 22 6 -13 3 -18 17 -20 58 l-3 53 -25
-13z"/>
<path d="M6796 1875 c-9 -23 -8 -25 9 -25 8 0 15 7 15 15 0 19 26 20 33 2 7
-17 -1 -28 -36 -50 -15 -10 -25 -22 -22 -27 8 -13 82 -13 90 0 4 6 -7 10 -27
10 l-33 1 28 15 c22 12 28 21 25 42 -3 23 -8 27 -39 30 -26 2 -38 -1 -43 -13z"/>
<path d="M7203 1848 c-41 -50 -41 -58 -2 -58 23 0 32 -5 36 -20 5 -19 7 -19
20 6 9 19 10 31 3 38 -5 5 -10 25 -10 43 0 18 -3 33 -7 32 -5 0 -23 -18 -40
-41z m35 -15 c-2 -10 -11 -19 -21 -21 -16 -3 -17 -1 -5 17 16 25 31 27 26 4z"/>
<path d="M7576 1874 c-14 -35 -7 -61 16 -60 25 1 37 -29 18 -48 -8 -8 -15 -6
-26 8 -15 22 -30 16 -21 -9 6 -15 42 -20 71 -9 19 7 21 55 4 72 -7 7 -23 12
-36 12 -35 0 -21 24 16 28 43 4 41 22 -2 22 -22 0 -36 -6 -40 -16z"/>
<path d="M7910 1916 c-7 -9 -10 -26 -7 -38 3 -11 1 -30 -4 -40 -24 -44 24 -81
68 -52 26 16 29 37 9 56 -10 10 -11 17 -2 30 23 37 -36 77 -64 44z m45 -27 c0
-7 -8 -15 -17 -17 -18 -3 -25 18 -11 32 10 10 28 1 28 -15z m-5 -54 c13 -16 7
-45 -10 -45 -6 0 -14 10 -19 23 -14 36 5 51 29 22z"/>
<path d="M1770 1480 c0 -16 5 -32 10 -35 6 -4 10 5 10 19 0 14 5 26 10 26 6 0
10 -11 10 -25 0 -14 5 -25 11 -25 6 0 9 14 7 32 -3 28 -7 33 -30 35 -25 2 -28
-2 -28 -27z"/>
<path d="M1863 1503 c-18 -7 -16 -52 2 -59 19 -8 45 13 45 36 0 14 -23 34 -33
29 -1 0 -8 -3 -14 -6z m23 -40 c-6 -14 -9 -15 -16 -4 -11 19 -1 46 13 32 5 -5
7 -18 3 -28z"/>
<path d="M1954 1498 c-4 -6 0 -16 9 -23 22 -16 22 -26 0 -18 -11 4 -14 3 -9
-5 11 -17 46 -15 46 3 0 9 -7 18 -15 21 -8 4 -15 10 -15 15 0 4 7 6 15 3 8 -4
15 -1 15 5 0 15 -37 14 -46 -1z"/>
<path d="M2010 1506 c0 -2 6 -18 14 -36 8 -21 16 -28 20 -21 4 7 2 18 -4 26
-6 8 -9 19 -5 25 3 5 -1 10 -9 10 -9 0 -16 -2 -16 -4z"/>
<path d="M2057 1495 c-5 -12 -4 -21 2 -23 6 -2 11 -11 11 -20 0 -14 2 -13 13
3 20 29 28 55 17 55 -6 0 -10 -7 -10 -15 0 -21 -18 -19 -22 3 -3 15 -4 15 -11
-3z"/>
<path d="M2125 1500 c-4 -6 -3 -10 2 -9 23 4 25 -3 5 -17 -27 -18 -20 -34 14
-34 25 0 31 20 18 54 -7 18 -30 21 -39 6z m25 -40 c0 -5 -2 -10 -4 -10 -3 0
-8 5 -11 10 -3 6 -1 10 4 10 6 0 11 -4 11 -10z"/>
<path d="M2190 1463 c0 -24 2 -43 5 -43 3 0 16 10 30 22 23 20 34 57 18 59
-56 6 -53 8 -53 -38z m31 -6 c-8 -8 -11 -5 -11 9 0 27 14 41 18 19 2 -9 -1
-22 -7 -28z"/>
<path d="M4620 1470 c0 -16 5 -32 10 -35 6 -4 10 5 10 19 0 14 5 26 10 26 6 0
10 -11 10 -25 0 -14 5 -25 11 -25 6 0 9 14 7 32 -3 28 -7 33 -30 35 -25 2 -28
-2 -28 -27z"/>
<path d="M4712 1491 c-21 -13 -11 -56 13 -56 15 0 20 7 20 29 0 31 -12 41 -33
27z m24 -38 c-7 -17 -8 -17 -17 0 -12 21 -2 44 13 29 6 -6 8 -19 4 -29z"/>
<path d="M4804 1488 c-4 -6 1 -17 10 -24 16 -12 16 -13 -1 -17 -17 -4 -17 -4
0 -12 27 -12 47 12 25 29 -22 16 -23 27 -3 20 8 -4 15 -1 15 5 0 15 -37 14
-46 -1z"/>
<path d="M4860 1496 c0 -2 6 -18 14 -36 8 -21 16 -28 20 -21 4 7 2 18 -4 26
-6 8 -9 19 -5 25 3 5 -1 10 -9 10 -9 0 -16 -2 -16 -4z"/>
<path d="M4900 1480 c0 -11 5 -20 11 -20 5 0 8 -4 4 -9 -3 -5 -1 -12 3 -15 5
-3 16 10 25 29 15 31 15 35 1 35 -8 0 -13 -4 -9 -9 3 -5 1 -12 -5 -16 -5 -3
-10 1 -10 9 0 9 -4 16 -10 16 -5 0 -10 -9 -10 -20z"/>
<path d="M4975 1490 c-4 -6 -3 -10 2 -9 23 4 25 -3 5 -17 -25 -17 -21 -34 8
-34 25 0 33 15 26 46 -6 24 -30 32 -41 14z"/>
<path d="M5040 1454 c0 -50 3 -52 31 -25 27 25 22 66 -8 67 -21 1 -23 -3 -23
-42z m40 17 c0 -11 -4 -23 -10 -26 -6 -4 -10 5 -10 19 0 14 5 26 10 26 6 0 10
-9 10 -19z"/>
<path d="M1685 1455 c-17 -16 -25 -35 -25 -60 l0 -35 -565 0 -565 0 0 -114 0
-113 -64 -5 c-73 -6 -115 -27 -142 -72 -17 -28 -19 -53 -19 -236 0 -198 1
-206 23 -236 13 -16 37 -39 55 -49 l32 -19 -25 -7 c-32 -8 -14 -15 59 -23 l54
-5 -19 21 c-30 34 -79 77 -83 72 -2 -2 2 -10 9 -19 24 -29 -19 -17 -53 15
l-32 30 -3 207 c-3 178 -1 212 13 239 24 45 63 64 134 64 l61 0 0 -65 0 -65
178 0 c320 -1 1354 -1 1515 -1 l157 1 0 190 0 190 -350 0 -350 0 0 45 c0 39 3
47 25 55 26 10 33 20 15 20 -6 0 -22 -11 -35 -25z m-790 -285 l0 -175 -175 0
-175 0 -3 165 c-1 90 0 170 3 177 3 11 42 13 177 11 l173 -3 0 -175z m360 0
l0 -175 -170 0 -170 0 -3 165 c-1 90 0 170 3 177 3 11 41 13 172 11 l168 -3 0
-175z m370 0 l0 -175 -175 0 -175 0 -3 165 c-1 90 0 170 3 177 3 11 42 13 177
11 l173 -3 0 -175z m370 0 l0 -175 -175 0 -175 0 -3 165 c-1 90 0 170 3 177 3
11 42 13 177 11 l173 -3 0 -175z m370 0 l0 -175 -175 0 -175 0 -3 165 c-1 90
0 170 3 177 3 11 42 13 177 11 l173 -3 0 -175z"/>
<path d="M690 1205 c-19 -11 -21 -14 -7 -15 12 0 17 -8 17 -31 0 -19 -7 -37
-17 -45 -16 -12 -14 -13 20 -14 20 0 37 5 37 11 0 5 -4 8 -9 4 -6 -3 -11 18
-13 49 l-3 54 -25 -13z"/>
<path d="M1058 1169 c-21 -25 -38 -49 -38 -53 0 -3 16 -6 35 -6 30 0 35 -3 35
-22 0 -21 2 -20 15 6 9 18 12 32 6 35 -5 4 -11 24 -13 46 l-3 40 -37 -46z m28
-16 c-2 -10 -10 -19 -19 -21 -20 -4 -22 4 -4 23 17 19 26 18 23 -2z"/>
<path d="M1437 1208 c-18 -10 -23 -38 -7 -38 6 0 10 7 10 15 0 8 7 15 15 15
26 0 18 -45 -10 -58 -42 -20 -32 -42 20 -42 52 0 61 17 13 22 l-33 4 28 14
c21 10 27 20 25 38 -3 28 -36 45 -61 30z"/>
<path d="M1806 1188 c-12 -47 -8 -59 19 -52 30 7 44 -18 24 -42 -12 -14 -14
-14 -25 1 -7 9 -18 14 -24 10 -8 -5 -8 -11 1 -21 24 -30 89 -8 89 29 0 29 -18
47 -47 47 -14 0 -23 6 -23 15 0 10 11 15 35 15 19 0 35 5 35 10 0 6 -17 10
-39 10 -32 0 -40 -4 -45 -22z"/>
<path d="M2140 1236 c-6 -8 -10 -25 -9 -38 2 -13 -1 -33 -5 -46 -5 -14 -3 -29
4 -37 31 -37 113 1 92 42 -6 10 -8 31 -5 47 4 18 1 31 -8 37 -21 13 -55 11
-69 -5z m60 -28 c0 -15 -32 -21 -40 -7 -13 20 9 43 26 28 8 -6 14 -16 14 -21z
m-11 -57 c19 -12 6 -43 -16 -39 -21 4 -31 48 -11 48 7 0 19 -4 27 -9z"/>
<path d="M7540 1449 c0 -16 5 -29 10 -29 6 0 10 9 10 20 0 27 18 25 23 -2 3
-17 5 -15 6 8 1 27 -2 32 -24 32 -21 0 -25 -5 -25 -29z"/>
<path d="M7623 1473 c-18 -7 -16 -38 2 -53 18 -15 45 2 45 30 0 14 -23 34 -33
29 -1 0 -8 -3 -14 -6z m27 -29 c0 -8 -4 -14 -10 -14 -5 0 -10 9 -10 21 0 11 5
17 10 14 6 -3 10 -13 10 -21z"/>
<path d="M7720 1465 c0 -7 8 -19 18 -24 16 -10 16 -10 -1 -11 -10 0 -16 -4
-12 -10 7 -11 35 -2 35 12 0 6 -8 17 -17 25 -17 14 -17 14 0 9 9 -3 17 -1 17
4 0 6 -9 10 -20 10 -11 0 -20 -7 -20 -15z"/>
<path d="M7783 1450 c12 -32 21 -37 33 -19 4 8 9 7 15 -2 14 -23 20 -3 8 25
l-13 27 -13 -23 c-11 -21 -19 -13 -14 15 0 4 -5 7 -13 7 -12 0 -12 -5 -3 -30z"/>
<path d="M7853 1460 c-1 -11 0 -20 2 -20 2 0 9 9 15 20 8 15 8 20 -3 20 -7 0
-13 -9 -14 -20z"/>
<path d="M7890 1470 c0 -6 5 -8 10 -5 17 11 11 -7 -7 -21 -15 -11 -16 -15 -4
-23 23 -15 42 -1 39 28 -3 25 -38 45 -38 21z"/>
<path d="M7950 1433 c0 -24 2 -43 4 -43 3 0 16 11 30 24 25 22 35 55 19 57
-56 6 -53 8 -53 -38z m40 3 c-14 -14 -24 0 -16 21 6 15 8 15 16 3 6 -9 5 -19
0 -24z"/>
<path d="M2298 1460 c12 -5 22 -15 22 -21 0 -7 3 -9 6 -6 10 10 -16 37 -35 36
-11 0 -9 -3 7 -9z"/>
<path d="M4537 1457 c-21 -14 -36 -87 -18 -87 6 0 11 16 11 35 0 29 5 37 25
45 14 5 25 12 25 15 0 9 -26 5 -43 -8z"/>
<path d="M5148 1450 c12 -5 22 -15 22 -21 0 -7 3 -9 6 -6 10 10 -16 37 -35 36
-11 0 -9 -3 7 -9z"/>
<path d="M7447 1432 c-21 -22 -34 -82 -19 -82 6 0 12 17 14 38 2 30 7 38 26
40 12 2 22 8 22 13 0 15 -26 10 -43 -9z"/>
<path d="M8050 1440 c0 -5 7 -10 15 -10 8 0 15 -7 15 -15 0 -8 5 -15 10 -15
16 0 12 15 -8 33 -21 19 -32 22 -32 7z"/>
<path d="M3378 1238 l-3 -113 -57 -6 c-79 -9 -114 -25 -140 -68 -21 -33 -23
-50 -26 -205 -5 -228 -2 -244 55 -301 35 -34 42 -45 28 -45 -41 0 3 -18 57
-23 l58 -6 -17 22 c-9 12 -32 35 -51 52 -32 27 -34 27 -28 7 11 -32 -14 -28
-50 9 l-29 30 -3 207 c-3 183 -1 211 14 240 24 45 61 62 134 62 l60 0 0 -65 0
-65 178 -1 c238 0 1317 0 1515 0 l157 1 0 190 0 190 -925 0 -924 0 -3 -112z
m360 -75 l-3 -178 -170 0 -170 0 -3 165 c-1 90 0 170 2 177 4 10 46 13 176 13
l170 0 -2 -177z m367 -3 l0 -175 -170 0 -170 0 -3 178 -2 177 172 -2 173 -3 0
-175z m370 0 l0 -175 -175 0 -175 0 -3 165 c-1 90 0 170 3 177 3 11 42 13 177
11 l173 -3 0 -175z m370 0 l0 -175 -175 0 -175 0 -3 165 c-1 90 0 170 3 177 3
11 42 13 177 11 l173 -3 0 -175z m370 0 l0 -175 -175 0 -175 0 -3 165 c-1 90
0 170 3 177 3 11 42 13 177 11 l173 -3 0 -175z"/>
<path d="M3540 1195 c-19 -11 -21 -14 -7 -15 22 0 24 -58 2 -66 -26 -10 -16
-21 20 -22 19 -1 35 3 35 9 0 6 -4 8 -9 4 -6 -3 -11 18 -13 49 l-3 54 -25 -13z"/>
<path d="M3886 1185 c-9 -23 -8 -25 9 -25 8 0 15 7 15 15 0 19 16 20 23 2 7
-18 -2 -31 -30 -46 -38 -20 -28 -36 22 -36 25 0 45 3 45 8 0 4 -12 7 -27 7
l-28 0 23 18 c35 27 27 66 -14 70 -22 2 -33 -2 -38 -13z"/>
<path d="M4286 1159 c-40 -47 -39 -59 5 -59 22 0 29 -5 29 -20 0 -11 5 -20 10
-20 6 0 10 8 10 18 0 10 5 23 12 30 9 9 9 12 0 12 -7 0 -12 16 -12 40 0 22 -4
40 -9 40 -5 0 -25 -19 -45 -41z m34 -19 c0 -13 -7 -20 -20 -20 -18 0 -19 3
-10 20 6 11 15 20 20 20 6 0 10 -9 10 -20z"/>
<path d="M4656 1178 c-12 -47 -8 -59 19 -52 30 7 44 -18 24 -42 -12 -14 -14
-14 -25 1 -7 9 -18 14 -24 10 -8 -5 -8 -11 1 -21 24 -30 89 -8 89 29 0 29 -18
47 -47 47 -14 0 -23 6 -23 15 0 10 11 15 35 15 19 0 35 5 35 10 0 6 -17 10
-39 10 -32 0 -40 -4 -45 -22z"/>
<path d="M4990 1226 c-6 -8 -10 -25 -9 -38 2 -13 -1 -33 -5 -46 -10 -31 8 -50
45 -48 41 3 64 28 50 53 -5 11 -7 30 -4 41 11 43 -48 72 -77 38z m60 -28 c0
-15 -32 -21 -40 -7 -13 20 9 43 26 28 8 -6 14 -16 14 -21z m-10 -58 c13 -8 13
-11 -2 -26 -19 -19 -38 -11 -38 17 0 21 16 24 40 9z"/>
<path d="M6290 1215 l0 -115 -56 0 c-67 0 -112 -24 -144 -75 -20 -33 -21 -45
-18 -242 3 -229 5 -237 68 -276 34 -21 34 -21 10 -28 -18 -4 -21 -8 -10 -12
25 -9 120 -15 120 -7 0 11 -93 100 -99 95 -2 -3 2 -11 9 -20 18 -22 4 -31 -25
-15 -56 30 -60 47 -60 270 0 184 2 208 19 237 24 39 55 54 129 60 l57 6 0 -72
0 -71 183 -1 c201 0 1287 0 1520 1 l147 0 0 190 0 190 -925 0 -925 0 0 -115z
m365 -75 l0 -175 -175 0 -175 0 -3 165 c-1 90 0 170 3 177 3 11 42 13 177 11
l173 -3 0 -175z m370 0 l0 -175 -175 0 -175 0 -3 165 c-1 90 0 170 3 177 3 11
42 13 177 11 l173 -3 0 -175z m373 11 c2 -113 -1 -168 -9 -177 -10 -12 -45
-14 -178 -12 l-166 3 -3 165 c-1 90 0 170 3 177 3 11 42 13 177 11 l173 -3 3
-164z m360 -8 l-3 -178 -170 0 -170 0 -3 178 -2 177 175 0 175 0 -2 -177z
m367 -3 l0 -175 -164 -3 c-112 -2 -168 1 -177 9 -11 9 -14 48 -14 174 0 89 3
165 7 169 4 3 84 5 177 4 l171 -3 0 -175z"/>
<path d="M6450 1175 c-19 -11 -21 -14 -7 -15 13 0 17 -8 17 -35 0 -19 -4 -35
-10 -35 -5 0 -10 -4 -10 -8 0 -4 17 -6 38 -3 20 3 29 6 20 9 -13 2 -18 16 -20
52 l-3 48 -25 -13z"/>
<path d="M6796 1165 c-9 -23 -8 -25 9 -25 8 0 15 7 15 15 0 8 6 15 14 15 19 0
28 -28 13 -40 -7 -5 -23 -19 -37 -30 l-25 -19 55 0 c37 0 49 3 35 8 -11 5 -26
6 -32 4 -7 -3 -13 0 -13 5 0 6 10 12 23 14 17 2 22 10 22 33 0 27 -3 30 -36
33 -26 2 -38 -1 -43 -13z"/>
<path d="M7207 1140 l-38 -45 28 -5 c16 -3 33 -15 40 -30 12 -24 13 -24 13 -3
0 12 5 25 10 28 7 5 8 11 1 18 -5 7 -11 28 -13 47 l-3 34 -38 -44z m33 -15 c0
-16 -27 -32 -37 -21 -7 7 16 36 28 36 5 0 9 -7 9 -15z"/>
<path d="M7576 1164 c-3 -9 -6 -26 -6 -38 0 -19 4 -22 25 -18 21 4 25 1 25
-21 0 -34 -19 -45 -36 -22 -16 21 -30 14 -21 -10 8 -18 47 -20 71 -2 34 25 15
65 -37 81 -27 8 -11 26 24 26 16 0 29 5 29 10 0 17 -67 12 -74 -6z"/>
<path d="M7910 1205 c-7 -8 -10 -26 -8 -40 3 -14 1 -28 -3 -31 -5 -3 -9 -16
-9 -29 0 -18 7 -25 29 -30 42 -9 75 10 66 38 -4 12 -7 37 -6 56 2 48 -41 70
-69 36z m46 -34 c-9 -13 -36 -15 -36 -2 0 5 3 17 6 26 6 15 8 15 22 2 8 -8 11
-20 8 -26z m-1 -66 c0 -27 -26 -25 -36 3 -8 20 -6 23 14 20 14 -2 22 -10 22
-23z"/>
<path d="M6290 460 l0 -190 183 -1 c209 0 1299 0 1520 1 l147 0 0 190 0 190
-925 0 -925 0 0 -190z m365 0 l0 -175 -175 0 -175 0 -3 165 c-1 90 0 170 3
177 3 11 42 13 177 11 l173 -3 0 -175z m370 0 l0 -175 -175 0 -175 0 -3 165
c-1 90 0 170 3 177 3 11 42 13 177 11 l173 -3 0 -175z m373 11 c2 -113 -1
-168 -9 -177 -10 -12 -45 -14 -178 -12 l-166 3 -3 165 c-1 90 0 170 3 177 3
11 42 13 177 11 l173 -3 3 -164z m360 -8 l-3 -178 -170 0 -170 0 -3 178 -2
177 175 0 175 0 -2 -177z m367 -3 l0 -175 -164 -3 c-112 -2 -168 1 -177 9 -11
9 -14 48 -14 174 0 89 3 165 7 169 4 3 84 5 177 4 l171 -3 0 -175z"/>
<path d="M6450 495 c-19 -11 -21 -14 -7 -15 13 0 17 -8 17 -34 0 -19 -6 -37
-12 -39 -7 -3 5 -5 27 -5 22 0 32 2 23 5 -12 3 -18 17 -20 53 l-3 48 -25 -13z"/>
<path d="M6796 484 c-9 -22 -8 -24 9 -24 8 0 15 7 15 15 0 8 6 15 14 15 19 0
28 -28 13 -40 -7 -5 -23 -19 -37 -30 l-25 -19 53 -1 c36 0 51 4 46 11 -3 6
-17 8 -30 5 -14 -4 -24 -2 -24 4 0 5 9 10 20 10 21 0 38 40 25 59 -10 17 -72
13 -79 -5z"/>
<path d="M7207 460 l-38 -45 28 -5 c16 -3 33 -15 40 -30 12 -24 13 -24 13 -3
0 12 5 25 10 28 7 5 8 11 1 18 -5 7 -11 28 -13 47 l-3 34 -38 -44z m33 -15 c0
-15 -26 -32 -36 -23 -2 3 -2 13 2 22 8 20 34 21 34 1z"/>
<path d="M7576 484 c-3 -9 -6 -26 -6 -38 0 -19 4 -22 25 -18 21 4 25 1 25 -21
0 -34 -19 -45 -36 -22 -16 21 -30 14 -21 -10 8 -20 51 -19 72 1 29 30 14 62
-38 78 -27 8 -11 26 24 26 16 0 29 5 29 10 0 17 -67 12 -74 -6z"/>
<path d="M7912 527 c-7 -8 -12 -25 -11 -38 0 -13 -3 -36 -6 -51 -9 -36 24 -55
66 -38 31 13 37 32 15 52 -10 10 -11 17 -2 30 22 36 -35 78 -62 45z m44 -36
c-11 -18 -36 -13 -36 7 0 10 3 22 7 26 10 10 37 -20 29 -33z m-12 -37 c23 -9
20 -44 -3 -44 -18 0 -35 33 -23 44 7 7 7 7 26 0z"/>
</g>
</svg>
