<?xml version="1.0" standalone="no"?>
<!DOCTYPE svg PUBLIC "-//W3C//DTD SVG 20010904//EN"
 "http://www.w3.org/TR/2001/REC-SVG-20010904/DTD/svg10.dtd">
<svg version="1.0" xmlns="http://www.w3.org/2000/svg"
 width="729.000000pt" height="529.000000pt" viewBox="0 0 729.000000 529.000000"
 preserveAspectRatio="xMidYMid meet">

<g transform="translate(0.000000,529.000000) scale(0.100000,-0.100000)"
fill="#000000" stroke="none">
<path d="M6200 5131 c0 -34 4 -61 10 -61 6 0 10 11 10 25 0 19 5 25 23 25 33
0 49 15 45 41 -2 20 -9 24 -45 27 l-43 3 0 -60z m70 24 c0 -9 -9 -15 -25 -15
-16 0 -25 6 -25 15 0 9 9 15 25 15 16 0 25 -6 25 -15z"/>
<path d="M6315 5180 c3 -5 8 -10 11 -10 2 0 4 5 4 10 0 6 -5 10 -11 10 -5 0
-7 -4 -4 -10z"/>
<path d="M6566 5171 c-9 -14 8 -94 22 -99 8 -2 10 5 5 28 -4 21 -2 35 7 40 11
7 10 11 -3 24 -18 18 -24 20 -31 7z"/>
<path d="M6310 5121 c0 -22 5 -43 10 -46 6 -4 10 12 10 39 0 25 -4 46 -10 46
-5 0 -10 -18 -10 -39z"/>
<path d="M6360 5150 c0 -20 29 -80 39 -80 5 0 14 12 19 28 5 15 13 35 17 45 4
10 3 17 -4 17 -6 0 -17 -12 -23 -27 l-11 -28 -10 28 c-11 26 -27 37 -27 17z"/>
<path d="M6470 5146 c-28 -35 11 -93 48 -70 21 14 28 64 10 75 -20 13 -44 11
-58 -5z m50 -32 c0 -33 -33 -30 -38 4 -3 17 2 22 17 22 16 0 21 -6 21 -26z"/>
<path d="M5953 4974 c-68 -58 -127 -103 -133 -99 -5 3 -10 16 -11 28 0 14 -14
-6 -35 -51 l-35 -73 -97 2 c-53 1 -836 1 -1739 0 l-1643 -1 0 -215 0 -215 851
-2 852 -3 -438 -350 c-241 -192 -441 -351 -445 -353 -4 -1 -10 12 -14 30 l-7
33 -24 -59 c-14 -32 -30 -65 -36 -72 -9 -12 -110 -14 -580 -14 l-569 0 0 -215
0 -215 298 0 297 0 -165 -163 c-91 -89 -252 -247 -358 -350 -105 -104 -196
-186 -202 -182 -5 3 -10 13 -10 21 0 33 -18 10 -36 -48 l-20 -63 -267 -3 -267
-2 0 -215 0 -215 145 0 c85 0 145 -4 145 -10 0 -9 -32 -72 -248 -489 -93 -181
-95 -184 -112 -163 l-18 21 -6 -31 c-3 -17 -6 -50 -6 -74 l0 -43 -106 -3 -107
-3 -1 -213 -1 -212 218 0 217 0 -2 212 -3 213 -93 3 c-50 1 -92 6 -92 10 0 4
24 23 52 42 40 27 47 36 32 38 -10 2 -24 5 -30 7 -8 2 12 50 50 123 33 66 113
221 176 346 l115 226 80 -2 80 -3 27 -70 c56 -146 229 -591 235 -602 3 -9 -5
-13 -27 -13 l-31 0 53 -50 53 -49 -102 -1 -103 0 0 -215 0 -215 210 0 210 0 0
215 0 215 -101 0 -102 0 6 76 6 76 -24 -22 -23 -22 -22 59 c-12 32 -44 117
-72 188 -28 72 -71 182 -95 245 -25 63 -51 130 -59 148 -8 18 -14 35 -14 37 0
3 74 5 165 5 l165 0 0 216 0 215 -125 -2 c-69 -1 -128 1 -131 4 -8 8 40 27 67
27 25 0 25 17 -1 25 -11 3 -20 10 -20 14 0 4 62 68 138 142 75 74 240 234 365
357 l228 222 48 0 c38 0 52 -5 68 -24 12 -14 161 -173 332 -355 171 -182 311
-336 311 -341 0 -6 -9 -10 -19 -10 -39 0 -30 -18 14 -29 74 -18 64 -31 -24
-31 l-81 0 0 -215 0 -215 215 0 215 0 0 215 0 215 -114 0 -114 0 -18 70 c-17
67 -34 92 -34 50 0 -11 -6 -20 -13 -20 -8 0 -88 80 -179 178 -91 97 -234 249
-317 337 -83 88 -151 163 -151 168 0 4 200 7 445 7 l445 0 0 215 0 215 -216 0
c-141 0 -213 3 -209 10 3 6 17 10 31 10 30 0 32 16 3 23 -12 3 -20 10 -18 16
2 6 207 172 454 370 l450 360 50 0 50 0 225 -200 c124 -110 241 -215 260 -232
19 -18 98 -88 175 -156 77 -68 144 -128 149 -132 5 -5 -3 -14 -20 -20 l-29
-12 38 -10 c66 -18 40 -27 -83 -27 l-120 0 0 -215 0 -215 346 0 c208 0 344 -4
342 -9 -3 -10 -640 -691 -645 -691 -2 0 -9 12 -15 28 -11 26 -12 25 -33 -43
l-21 -70 -162 -3 -162 -2 0 -215 0 -215 215 0 215 0 0 215 0 215 -31 0 c-42 0
-27 18 26 31 44 11 52 29 14 29 -33 0 -19 23 66 112 44 46 145 153 225 238 80
85 174 187 211 225 36 39 83 89 104 113 l38 42 98 0 97 0 75 -92 c41 -51 169
-210 286 -353 116 -142 211 -262 211 -266 0 -4 -12 -9 -27 -11 -26 -4 -24 -6
24 -29 29 -13 53 -27 53 -31 0 -5 -61 -8 -135 -8 l-135 0 0 -215 0 -215 170 0
c129 0 170 -3 170 -12 0 -7 -10 -33 -21 -58 -12 -25 -73 -164 -136 -310 -145
-334 -130 -306 -154 -284 -19 17 -19 15 -19 -54 l0 -71 -107 -3 -108 -3 -3
-213 -2 -212 220 0 220 0 0 215 0 215 -95 0 c-52 0 -95 3 -95 7 0 4 21 26 48
50 43 39 44 43 20 37 -21 -5 -28 -2 -28 9 0 8 37 100 83 203 46 104 112 255
148 337 l64 147 68 0 c60 0 68 -2 77 -22 31 -74 240 -628 240 -637 0 -6 -12
-11 -27 -11 -27 0 -26 -2 27 -49 30 -27 58 -46 61 -43 4 4 9 38 12 75 l5 68
-24 -22 -23 -22 -12 29 c-6 16 -28 74 -49 129 -86 227 -119 315 -154 399 -20
50 -36 94 -36 98 0 4 68 8 150 8 l150 0 0 215 0 215 -264 0 c-243 0 -265 1
-270 18 -2 9 -10 44 -16 77 -12 59 -12 59 -26 32 -8 -15 -18 -27 -22 -27 -4 1
-18 16 -32 35 -14 19 -79 101 -145 182 -111 136 -166 203 -317 389 -32 39 -58
74 -58 78 0 3 155 6 345 6 l345 0 -2 213 -3 212 -665 3 c-750 2 -675 -7 -708
85 -17 49 -32 61 -32 27 0 -38 -20 -24 -186 125 -6 5 -27 24 -45 40 -19 17
-75 66 -124 110 -49 44 -105 94 -124 110 -19 17 -47 41 -62 55 -16 14 -80 70
-143 125 -63 55 -115 103 -115 108 -1 4 404 7 899 7 l900 0 0 219 0 219 -49
-5 c-65 -6 -101 11 -45 22 l39 7 -25 13 c-14 7 -24 16 -23 20 1 3 55 51 120
107 105 90 141 129 116 127 -4 0 -63 -47 -130 -105z m-3285 -406 l-3 -193
-185 0 -185 0 -3 193 -2 192 190 0 190 0 -2 -192z m402 -3 l0 -195 -187 2
-188 3 -3 180 c-1 98 0 185 2 192 4 10 49 13 191 13 l185 0 0 -195z m408 3
l-3 -193 -185 0 -185 0 -3 193 -2 192 190 0 190 0 -2 -192z m410 0 l-3 -193
-185 0 -185 0 -3 193 -2 192 190 0 190 0 -2 -192z m407 -3 l0 -190 -187 -2
-188 -2 0 195 0 194 188 -2 187 -3 0 -190z m405 0 l0 -195 -187 2 -188 3 -3
180 c-1 98 0 185 2 192 4 10 49 13 191 13 l185 0 0 -195z m408 3 l-3 -193
-185 0 -185 0 -3 193 -2 192 190 0 190 0 -2 -192z m407 -3 l0 -190 -185 0
-185 0 -3 193 -2 192 187 -2 188 -3 0 -190z m405 5 l0 -190 -185 0 -185 0 0
190 0 190 185 0 185 0 0 -190z m-3660 -1225 l0 -195 -187 2 -188 3 -3 193 -2
192 190 0 190 0 0 -195z m405 0 l0 -190 -187 -3 c-200 -3 -190 -5 -190 43 0 8
0 89 1 180 l1 165 188 -2 187 -3 0 -190z m405 0 l0 -195 -187 2 -188 3 -3 180
c-1 98 0 185 2 192 4 10 49 13 191 13 l185 0 0 -195z m408 3 l-3 -193 -185 0
-185 0 -3 180 c-1 98 0 185 2 192 4 10 49 13 191 13 l185 0 -2 -192z m1630 0
l-3 -193 -185 0 -185 0 -3 180 c-1 98 0 185 2 192 4 10 49 13 191 13 l185 0
-2 -192z m407 -3 l0 -190 -187 -3 -188 -2 0 195 0 195 188 -2 187 -3 0 -190z
m415 0 l0 -195 -190 0 -190 0 0 195 0 195 190 0 190 0 0 -195z m410 0 l0 -195
-195 0 -195 0 0 195 0 195 195 0 195 0 0 -195z m-4810 -1220 l0 -195 -189 0
-190 0 -3 28 c-2 15 -2 102 0 195 l3 167 189 0 190 0 0 -195z m405 0 l0 -190
-192 -3 -193 -2 0 195 0 195 193 -2 192 -3 0 -190z m1597 10 c2 -102 2 -190 0
-195 -2 -6 -77 -10 -193 -10 l-189 0 0 188 c0 104 3 192 7 195 3 4 89 7 189 7
l183 0 3 -185z m1223 -10 l0 -190 -190 0 -190 0 -3 180 c-1 98 0 185 3 192 3
11 45 13 192 11 l188 -3 0 -190z m1627 9 c2 -102 0 -190 -3 -195 -3 -5 -85 -8
-190 -7 l-184 3 -3 180 c-1 98 0 185 2 192 4 10 49 13 190 13 l185 0 3 -186z
m406 -12 l2 -192 -187 2 -188 3 -3 180 c-1 98 0 185 3 192 3 11 44 13 187 11
l183 -3 3 -193z m-5578 -1217 l0 -195 -190 0 -190 0 0 195 0 195 190 0 190 0
0 -195z m895 0 l0 -190 -182 -3 -183 -2 0 194 0 195 183 -2 182 -2 0 -190z
m4075 -5 l0 -190 -187 2 -188 3 -3 188 -2 187 190 0 190 0 0 -190z"/>
<path d="M2444 4616 c-10 -27 1 -61 24 -71 30 -13 28 -29 -3 -21 -30 8 -34
-10 -4 -19 44 -14 76 54 49 106 -12 22 -58 26 -66 5z m44 -28 c-2 -13 -7 -23
-13 -23 -5 0 -11 10 -13 23 -2 15 2 22 13 22 11 0 15 -7 13 -22z"/>
<path d="M2887 4623 c-15 -14 -6 -23 18 -17 27 7 32 -4 13 -25 -10 -11 -10
-14 0 -18 17 -7 15 -43 -3 -43 -8 0 -15 5 -15 10 0 6 -4 10 -10 10 -18 0 -11
-28 9 -35 38 -12 70 20 52 52 -4 9 -6 25 -3 35 7 28 -40 52 -61 31z"/>
<path d="M2817 4554 c-10 -11 3 -24 24 -24 10 0 19 7 19 15 0 15 -31 21 -43 9z"/>
<path d="M3265 4618 c-14 -43 -10 -53 18 -50 25 3 28 1 25 -20 -2 -19 -8 -22
-32 -20 -26 3 -28 1 -17 -12 19 -23 48 -19 66 8 20 30 6 66 -25 66 -11 0 -20
5 -20 10 0 6 11 10 25 10 14 0 25 5 25 10 0 15 -60 12 -65 -2z"/>
<path d="M3673 4623 c-15 -6 -17 -33 -3 -33 6 0 10 5 10 10 0 6 6 10 14 10 29
0 28 -22 -3 -54 -42 -43 -40 -56 9 -56 22 0 40 5 40 10 0 6 -9 10 -20 10 -11
0 -20 4 -20 8 0 5 9 17 20 27 45 40 9 91 -47 68z"/>
<path d="M4082 4618 c-17 -17 -15 -93 3 -108 20 -17 54 -3 61 26 7 28 -10 54
-37 54 -11 0 -19 5 -19 11 0 7 10 9 25 6 16 -3 24 0 22 7 -5 16 -40 19 -55 4z
m41 -61 c3 -8 1 -20 -4 -28 -11 -19 -34 3 -26 25 8 20 23 21 30 3z"/>
<path d="M4480 4615 c-10 -12 -10 -19 -2 -27 8 -8 8 -17 1 -30 -23 -42 31 -77
65 -42 18 17 20 27 9 38 -5 4 -8 22 -8 39 0 27 -4 32 -26 35 -14 2 -31 -4 -39
-13z m48 -17 c-6 -18 -28 -21 -28 -4 0 9 7 16 16 16 9 0 14 -5 12 -12z m2 -58
c0 -11 -7 -20 -15 -20 -8 0 -15 9 -15 20 0 11 7 20 15 20 8 0 15 -9 15 -20z"/>
<path d="M4921 4611 c-24 -43 -6 -111 28 -111 44 0 55 67 14 85 -28 12 -30 28
-5 23 11 -2 20 2 21 7 3 20 -47 17 -58 -4z m47 -63 c-5 -32 -28 -35 -28 -4 0
17 5 26 16 26 10 0 14 -7 12 -22z"/>
<path d="M4850 4545 c0 -9 9 -15 25 -15 16 0 25 6 25 15 0 9 -9 15 -25 15 -16
0 -25 -6 -25 -15z"/>
<path d="M5313 4623 c-27 -18 -30 -35 -5 -31 14 2 18 -6 20 -44 5 -74 22 -56
22 22 0 39 -3 70 -7 69 -5 0 -18 -7 -30 -16z"/>
<path d="M5713 4634 c-24 -10 -13 -24 12 -18 27 7 33 -4 13 -25 -11 -10 -10
-14 5 -22 9 -6 17 -17 17 -25 0 -20 -30 -30 -40 -13 -5 7 -12 10 -16 6 -4 -4
0 -15 9 -24 13 -14 21 -14 42 -5 24 11 35 49 18 66 -4 4 -7 19 -8 34 0 27 -23
38 -52 26z"/>
<path d="M2071 3396 c-8 -9 -8 -16 -2 -20 5 -4 12 -2 16 4 9 15 25 12 25 -5 0
-8 -5 -15 -12 -15 -6 0 -3 -9 7 -20 23 -26 6 -52 -20 -30 -20 17 -32 5 -15
-15 15 -18 44 -20 58 -2 12 13 11 85 -1 105 -11 16 -42 15 -56 -2z"/>
<path d="M2000 3324 c0 -10 7 -14 22 -12 32 5 35 28 4 28 -17 0 -26 -5 -26
-16z"/>
<path d="M2453 3403 c-15 -6 -17 -33 -3 -33 6 0 10 5 10 10 0 12 27 13 34 1 3
-5 -10 -28 -29 -51 -19 -23 -35 -44 -35 -46 0 -2 20 -4 45 -4 25 0 45 5 45 10
0 6 -12 10 -26 10 l-26 0 26 31 c29 34 32 49 14 67 -12 12 -33 14 -55 5z"/>
<path d="M2890 3395 c-18 -21 -18 -78 -1 -99 20 -23 50 -20 62 8 14 30 -3 66
-31 66 -11 0 -20 5 -20 11 0 7 10 9 26 5 19 -5 25 -3 22 6 -7 20 -43 21 -58 3z
m40 -70 c0 -26 -14 -33 -25 -15 -9 14 1 40 15 40 5 0 10 -11 10 -25z"/>
<path d="M2817 3334 c-10 -11 3 -24 24 -24 10 0 19 7 19 15 0 15 -31 21 -43 9z"/>
<path d="M3278 3401 c-22 -22 -23 -32 -3 -25 12 5 15 -4 15 -45 0 -28 5 -51
10 -51 6 0 10 30 10 70 0 39 -3 70 -7 69 -5 0 -16 -8 -25 -18z"/>
<path d="M4893 3398 c-15 -21 -14 -95 2 -108 8 -7 26 -9 39 -6 23 6 25 11 24
59 -1 28 -6 55 -12 59 -17 12 -43 9 -53 -4z m42 -17 c7 -12 -12 -24 -25 -16
-11 7 -4 25 10 25 5 0 11 -4 15 -9z m3 -64 c2 -10 -3 -17 -12 -17 -18 0 -29
16 -21 31 9 14 29 6 33 -14z"/>
<path d="M5300 3398 c0 -7 -3 -23 -6 -35 -5 -19 -2 -22 22 -20 23 2 29 -2 29
-18 0 -16 -6 -20 -27 -18 -16 1 -28 -2 -28 -7 0 -16 49 -23 66 -9 22 18 14 62
-13 74 -30 13 -29 25 2 25 14 0 25 5 25 10 0 6 -16 10 -35 10 -21 0 -35 -5
-35 -12z"/>
<path d="M5701 3388 c-12 -32 -2 -57 25 -64 13 -3 24 -11 24 -16 0 -6 -11 -7
-26 -4 -19 5 -25 3 -22 -6 8 -23 45 -21 62 4 20 28 20 57 0 86 -20 28 -52 28
-63 0z m49 -23 c0 -16 -6 -25 -15 -25 -9 0 -15 9 -15 25 0 16 6 25 15 25 9 0
15 -9 15 -25z"/>
<path d="M6145 3400 c3 -5 11 -10 16 -10 6 0 7 5 4 10 -3 6 -11 10 -16 10 -6
0 -7 -4 -4 -10z"/>
<path d="M6116 3384 c-18 -48 7 -110 39 -97 21 7 31 52 15 66 -10 9 -11 7 -5
-11 9 -30 -12 -57 -31 -41 -9 7 -12 26 -9 55 4 46 1 55 -9 28z"/>
<path d="M1340 2175 c-17 -20 -5 -32 15 -15 20 17 32 5 15 -15 -11 -13 -10
-18 5 -29 10 -7 15 -18 11 -24 -10 -16 -33 -15 -39 1 -2 6 -8 9 -12 5 -11 -11
14 -38 35 -38 25 0 44 26 34 47 -4 10 -8 32 -8 48 -1 22 -6 31 -22 33 -11 2
-27 -4 -34 -13z"/>
<path d="M1270 2105 c0 -8 9 -15 20 -15 11 0 20 7 20 15 0 8 -9 15 -20 15 -11
0 -20 -7 -20 -15z"/>
<path d="M1756 2174 c-37 -37 -8 -133 32 -107 25 15 22 67 -3 71 -18 2 -18 2
-2 -8 9 -6 17 -20 17 -31 0 -15 -6 -20 -22 -17 -20 3 -23 9 -23 43 0 34 3 40
23 43 12 2 20 8 17 13 -9 13 -21 11 -39 -7z"/>
<path d="M1685 2109 c-10 -15 1 -23 20 -15 9 3 13 10 10 16 -8 13 -22 13 -30
-1z"/>
<path d="M3310 2175 c-16 -19 -5 -34 12 -17 17 17 38 15 38 -3 0 -8 -13 -30
-30 -48 -16 -19 -30 -37 -30 -41 0 -3 21 -6 46 -6 27 0 43 4 39 10 -3 6 -16
10 -27 10 l-21 0 21 23 c26 27 29 72 6 81 -25 10 -41 7 -54 -9z"/>
<path d="M4536 2168 c-11 -42 -8 -49 19 -42 22 5 25 3 25 -21 0 -24 -3 -26
-26 -21 -19 5 -25 3 -22 -6 3 -7 16 -14 31 -16 51 -6 62 71 11 84 -27 7 -23
24 7 24 10 0 19 5 19 10 0 6 -13 10 -29 10 -21 0 -30 -6 -35 -22z"/>
<path d="M6166 2174 c-9 -8 -16 -20 -16 -25 0 -23 22 -49 40 -49 11 0 20 -5
20 -11 0 -7 -10 -9 -26 -5 -19 5 -25 3 -22 -6 7 -19 43 -21 58 -3 17 20 17 79
0 99 -16 20 -34 20 -54 0z m39 -29 c0 -10 -6 -20 -12 -22 -8 -3 -13 5 -13 22
0 17 5 25 13 23 6 -3 12 -13 12 -23z"/>
<path d="M6573 2178 c-16 -23 -10 -100 10 -112 29 -19 52 4 53 55 2 48 -9 69
-36 69 -10 0 -22 -6 -27 -12z m45 -26 c2 -7 -3 -12 -12 -12 -9 0 -16 7 -16 16
0 17 22 14 28 -4z m2 -52 c0 -11 -6 -20 -14 -20 -18 0 -29 16 -21 30 11 18 35
11 35 -10z"/>
<path d="M1032 958 c-18 -18 -15 -93 4 -109 23 -19 49 1 49 37 0 24 -5 30 -28
32 -33 4 -31 27 2 26 25 -1 28 11 5 20 -20 8 -18 8 -32 -6z m42 -64 c4 -9 1
-23 -5 -31 -11 -12 -14 -12 -27 1 -17 17 -10 46 12 46 7 0 17 -7 20 -16z"/>
<path d="M955 880 c3 -5 13 -10 21 -10 8 0 14 5 14 10 0 6 -9 10 -21 10 -11 0
-17 -4 -14 -10z"/>
<path d="M1933 963 c-15 -6 -17 -33 -3 -33 6 0 10 5 10 10 0 6 5 10 11 10 7 0
9 -9 6 -21 -3 -12 -1 -30 6 -40 15 -24 1 -36 -23 -21 -23 14 -36 -1 -15 -18 8
-7 26 -10 40 -6 23 6 24 10 22 54 -4 67 -16 81 -54 65z"/>
<path d="M1857 893 c-14 -13 -6 -23 18 -23 16 0 25 6 25 15 0 15 -31 21 -43 8z"/>
<path d="M5970 955 c-7 -8 -10 -22 -6 -31 3 -8 2 -24 -4 -33 -13 -26 10 -54
41 -49 22 3 24 8 25 53 2 69 -25 97 -56 60z m40 -20 c0 -8 -7 -15 -15 -15 -8
0 -15 7 -15 15 0 8 7 15 15 15 8 0 15 -7 15 -15z m3 -49 c7 -16 -1 -26 -20
-26 -7 0 -13 9 -13 20 0 23 25 27 33 6z"/>
<path d="M2333 3763 c-22 -8 -14 -25 8 -18 18 6 20 4 15 -13 -4 -11 -2 -23 4
-27 5 -3 10 -13 10 -21 0 -12 -7 -14 -32 -8 -29 6 -31 5 -19 -10 16 -19 45
-21 59 -3 13 16 4 88 -12 99 -12 9 -16 9 -33 1z"/>
<path d="M5889 3753 c-13 -15 -12 -16 9 -11 19 5 22 3 17 -12 -3 -10 -1 -21 5
-25 5 -3 10 -13 10 -22 0 -11 -6 -14 -26 -9 -19 5 -25 3 -22 -6 3 -7 18 -13
34 -13 28 0 29 2 30 45 1 66 -26 91 -57 53z"/>
<path d="M2137 3724 c-16 -8 -27 -20 -25 -26 5 -15 67 -38 73 -28 3 5 -6 12
-20 16 -23 6 -36 24 -17 24 5 0 17 7 28 15 26 20 -1 19 -39 -1z"/>
<path d="M2210 3730 c0 -5 18 -10 40 -10 22 0 40 5 40 10 0 6 -18 10 -40 10
-22 0 -40 -4 -40 -10z"/>
<path d="M5670 3735 c0 -3 11 -10 25 -15 32 -12 32 -24 -1 -39 -40 -18 -22
-23 19 -6 45 18 46 30 7 50 -29 15 -50 19 -50 10z"/>
<path d="M5775 3730 c-4 -6 12 -10 40 -10 28 0 44 4 40 10 -3 6 -21 10 -40 10
-19 0 -37 -4 -40 -10z"/>
<path d="M2228 3683 c12 -2 32 -2 45 0 12 2 2 4 -23 4 -25 0 -35 -2 -22 -4z"/>
<path d="M5793 3683 c15 -2 37 -2 50 0 12 2 0 4 -28 4 -27 0 -38 -2 -22 -4z"/>
<path d="M3890 3345 l0 -215 220 0 220 0 0 215 0 215 -220 0 -220 0 0 -215z
m400 3 l0 -188 -185 0 -185 0 0 183 c0 101 2 186 4 188 2 2 86 4 185 4 l181 0
0 -187z"/>
<path d="M4083 3414 c-15 -7 -18 -34 -4 -34 6 0 13 5 16 10 3 6 10 10 16 10
14 0 11 -28 -3 -33 -9 -3 -7 -9 6 -19 12 -9 17 -21 13 -32 -7 -17 -37 -23 -37
-6 0 6 -4 10 -10 10 -22 0 -8 -30 16 -36 42 -11 56 12 47 77 -8 55 -24 68 -60
53z"/>
<path d="M4460 2586 c0 -2 9 -6 20 -9 11 -3 18 -1 14 4 -5 9 -34 13 -34 5z"/>
<path d="M4439 2558 c-8 -35 11 -73 36 -73 15 0 20 7 20 29 0 18 -6 31 -15 33
-12 4 -12 3 -2 -5 18 -12 11 -47 -8 -47 -10 0 -17 14 -20 45 -5 39 -6 41 -11
18z"/>
<path d="M4353 2553 c9 -2 25 -2 35 0 9 3 1 5 -18 5 -19 0 -27 -2 -17 -5z"/>
<path d="M1542 2528 c-15 -15 -15 -29 0 -25 8 1 13 -10 13 -30 2 -49 15 -52
17 -5 0 23 1 47 2 54 1 16 -18 20 -32 6z"/>
<path d="M3660 2525 c-9 -10 -9 -15 -1 -15 6 0 11 -17 11 -40 0 -22 5 -40 10
-40 6 0 10 25 10 55 0 56 -8 67 -30 40z"/>
<path d="M4235 2530 c3 -5 8 -10 11 -10 2 0 4 5 4 10 0 6 -5 10 -11 10 -5 0
-7 -4 -4 -10z"/>
<path d="M6811 2526 c-17 -21 -9 -77 12 -90 14 -9 21 -7 32 8 19 25 2 60 -26
53 -15 -4 -19 -1 -17 11 2 10 13 17 25 16 12 0 20 3 17 8 -8 13 -30 9 -43 -6z
m39 -61 c0 -25 -23 -35 -35 -15 -10 16 2 40 20 40 9 0 15 -9 15 -25z"/>
<path d="M1343 2503 c-27 -14 -44 -33 -29 -33 2 0 20 -7 40 -15 20 -8 36 -11
36 -6 0 5 -11 12 -25 15 -23 6 -36 26 -17 26 5 0 17 7 28 15 25 19 7 18 -33
-2z"/>
<path d="M1414 2509 c-3 -5 13 -9 35 -9 23 0 41 4 41 8 0 11 -69 12 -76 1z"/>
<path d="M3440 2511 c0 -5 9 -13 20 -16 11 -3 20 -10 20 -15 0 -5 -9 -12 -20
-15 -11 -3 -20 -10 -20 -16 0 -5 16 -1 35 8 19 9 35 20 35 23 0 6 -19 17 -62
38 -5 2 -8 -1 -8 -7z"/>
<path d="M3534 2508 c-3 -4 13 -8 35 -8 23 0 41 4 41 9 0 11 -69 10 -76 -1z"/>
<path d="M4348 2513 c12 -2 30 -2 40 0 9 3 -1 5 -23 4 -22 0 -30 -2 -17 -4z"/>
<path d="M6718 2503 c12 -2 30 -2 40 0 9 3 -1 5 -23 4 -22 0 -30 -2 -17 -4z"/>
<path d="M6642 2474 c-7 -8 -8 -14 -3 -14 10 0 25 19 20 25 -2 1 -10 -3 -17
-11z"/>
<path d="M1414 2462 c7 -12 76 -13 76 -2 0 6 -18 10 -41 10 -22 0 -38 -4 -35
-8z"/>
<path d="M3532 2465 c10 -10 68 -13 73 -4 4 5 -13 9 -36 9 -23 0 -40 -2 -37
-5z"/>
<path d="M6718 2463 c12 -2 30 -2 40 0 9 3 -1 5 -23 4 -22 0 -30 -2 -17 -4z"/>
<path d="M2340 2125 l0 -215 220 0 220 0 0 215 0 215 -220 0 -220 0 0 -215z
m405 0 l0 -190 -187 -3 -188 -2 0 188 c0 104 3 192 7 196 4 3 88 5 187 4 l181
-3 0 -190z"/>
<path d="M2539 2174 l-24 -26 23 6 c21 7 22 5 22 -43 0 -28 5 -51 10 -51 6 0
10 30 10 70 0 39 -4 70 -8 70 -5 0 -19 -12 -33 -26z"/>
<path d="M5187 2332 c-15 -3 -17 -23 -17 -213 l0 -209 210 0 210 0 0 210 c0
161 -3 210 -12 211 -48 3 -377 3 -391 1z m384 -16 c2 -2 3 -90 1 -195 l-3
-191 -192 2 -192 3 -3 180 c-1 98 0 185 2 192 4 10 50 13 194 13 104 0 191 -2
193 -4z"/>
<path d="M5359 2174 c-18 -21 -15 -83 5 -102 15 -15 18 -15 37 5 17 17 19 24
10 42 -7 11 -16 21 -22 21 -6 0 -3 -7 5 -16 19 -19 20 -28 3 -42 -21 -18 -36
1 -35 46 0 39 3 42 27 42 20 0 23 2 11 10 -20 13 -25 12 -41 -6z"/>
<path d="M2381 1306 c-17 -20 -10 -77 11 -90 14 -8 22 -7 35 7 22 21 8 50 -26
55 -28 4 -21 27 8 26 11 0 21 3 21 8 0 13 -37 9 -49 -6z m39 -61 c0 -28 -24
-34 -34 -9 -8 20 1 34 20 34 8 0 14 -10 14 -25z"/>
<path d="M7139 1313 c-8 -72 -6 -94 11 -103 30 -16 49 9 47 60 -2 41 -4 45
-29 48 -16 2 -28 0 -29 -5z m41 -24 c0 -5 -7 -9 -15 -9 -15 0 -20 12 -9 23 8
8 24 -1 24 -14z m0 -55 c0 -17 -22 -14 -28 4 -2 7 3 12 12 12 9 0 16 -7 16
-16z"/>
<path d="M6930 1291 c0 -5 11 -12 25 -15 14 -4 25 -10 25 -15 0 -5 -11 -12
-25 -15 -21 -5 -37 -26 -20 -26 17 0 66 33 63 42 -5 13 -68 40 -68 29z"/>
<path d="M2178 1283 c12 -2 30 -2 40 0 9 3 -1 5 -23 4 -22 0 -30 -2 -17 -4z"/>
<path d="M7048 1283 c12 -2 32 -2 45 0 12 2 2 4 -23 4 -25 0 -35 -2 -22 -4z"/>
<path d="M2110 1265 c7 -9 15 -13 17 -11 7 7 -7 26 -19 26 -6 0 -6 -6 2 -15z"/>
<path d="M2178 1243 c12 -2 32 -2 45 0 12 2 2 4 -23 4 -25 0 -35 -2 -22 -4z"/>
<path d="M2318 1243 c6 -2 18 -2 25 0 6 3 1 5 -13 5 -14 0 -19 -2 -12 -5z"/>
<path d="M7030 1242 c0 -12 68 -13 75 -2 4 6 -11 10 -34 10 -23 0 -41 -4 -41
-8z"/>
<path d="M2065 1230 c-3 -5 -2 -10 4 -10 5 0 13 5 16 10 3 6 2 10 -4 10 -5 0
-13 -4 -16 -10z"/>
<path d="M6590 905 l0 -215 215 0 215 0 0 215 0 215 -215 0 -215 0 0 -215z
m401 182 c0 -7 1 -93 1 -192 l2 -180 -190 0 -189 0 -3 184 c-2 140 1 186 10
192 22 14 368 9 369 -4z"/>
<path d="M6784 962 c-32 -22 -20 -82 16 -82 11 0 20 -5 20 -11 0 -7 -10 -9
-26 -5 -19 5 -25 3 -22 -6 8 -23 45 -21 62 4 20 28 20 57 0 86 -16 23 -31 27
-50 14z m34 -40 c2 -15 -2 -22 -12 -22 -11 0 -16 9 -16 26 0 31 23 28 28 -4z"/>
</g>
</svg>
