<?xml version="1.0" standalone="no"?>
<!DOCTYPE svg PUBLIC "-//W3C//DTD SVG 20010904//EN"
 "http://www.w3.org/TR/2001/REC-SVG-20010904/DTD/svg10.dtd">
<svg version="1.0" xmlns="http://www.w3.org/2000/svg"
 width="499.000000pt" height="480.000000pt" viewBox="0 0 499.000000 480.000000"
 preserveAspectRatio="xMidYMid meet">

<g transform="translate(0.000000,480.000000) scale(0.100000,-0.100000)"
fill="#000000" stroke="none">
<path d="M1680 4575 l0 -185 422 0 423 0 -135 -135 c-100 -100 -137 -132 -146
-124 -10 8 -19 -2 -39 -40 l-25 -51 -380 0 -380 0 0 -185 0 -185 161 0 c89 0
159 -4 157 -9 -1 -5 -85 -70 -186 -146 -144 -107 -186 -134 -197 -125 -10 9
-20 1 -45 -34 l-31 -46 -279 0 -280 0 0 -185 0 -185 62 0 63 0 -137 -137
c-111 -110 -139 -134 -151 -125 -11 10 -18 2 -37 -38 l-23 -50 -229 0 -228 0
0 -190 0 -190 228 0 227 0 140 -140 c111 -111 137 -142 127 -152 -10 -10 -4
-17 30 -35 l43 -22 -57 -1 -58 0 0 -185 0 -185 278 0 c245 0 280 -2 302 -17
24 -16 24 -16 11 0 -12 15 -10 17 18 17 l31 0 0 185 0 185 -155 0 c-85 0 -155
4 -155 9 0 5 7 25 15 44 20 48 20 47 -21 47 -34 0 -36 -2 -30 -25 3 -14 9 -36
12 -50 l6 -25 -86 0 -86 0 -25 51 c-22 43 -28 49 -41 38 -13 -11 -36 8 -152
124 l-137 137 43 0 42 0 0 190 0 190 -32 0 -33 1 38 20 c32 17 36 23 26 35
-11 13 9 37 127 155 l139 139 252 0 253 0 0 184 c0 167 -2 185 -17 189 -12 3
-8 7 14 12 27 6 31 10 23 25 -9 16 18 39 192 169 l201 151 114 0 113 0 0 -130
c0 -90 -3 -130 -11 -130 -11 0 -9 -21 7 -77 l6 -23 -136 0 -136 0 0 -185 0
-185 108 -1 c59 0 148 0 198 1 l91 1 53 -80 c29 -45 55 -81 57 -81 5 0 -6 19
-64 105 l-33 50 80 3 80 3 0 184 0 185 -140 0 c-77 0 -140 4 -140 9 0 5 7 25
15 44 19 46 19 47 -5 47 -20 0 -20 5 -18 128 l3 127 298 3 297 2 0 185 0 185
-202 0 -203 1 38 20 c30 16 37 24 32 40 -6 17 19 47 126 155 l133 134 171 0
171 0 133 -134 c107 -108 132 -138 126 -155 -5 -16 2 -24 32 -40 l38 -20 -122
-1 -123 0 0 -185 0 -185 218 -2 217 -3 3 -127 c2 -113 1 -128 -14 -128 -12 0
-15 -6 -10 -22 4 -13 9 -35 12 -50 l7 -28 -137 0 -136 0 0 -185 0 -185 109 0
c106 0 110 -1 114 -22 l4 -23 2 23 c1 21 5 22 96 22 l94 0 106 -140 c88 -117
102 -141 89 -148 -14 -8 -11 -14 22 -36 l39 -26 -63 0 -62 0 0 -190 0 -190 61
0 c45 0 58 -3 53 -12 -6 -10 -4 -10 7 0 9 9 68 12 221 12 l208 0 0 190 0 190
-202 2 -201 3 -17 49 c-10 31 -19 45 -24 38 -4 -7 -11 -12 -15 -12 -5 0 -54
61 -110 135 l-101 135 70 0 70 0 0 185 0 185 -140 0 c-77 0 -140 2 -140 5 0 3
7 22 15 42 8 19 15 39 15 44 0 5 -7 9 -15 9 -13 0 -15 21 -15 130 l0 130 129
0 128 0 177 -115 c97 -63 176 -112 176 -109 0 2 -73 53 -162 112 l-163 107 73
3 72 3 0 184 0 185 -305 0 -305 0 -25 51 c-20 38 -29 48 -39 40 -9 -8 -46 24
-146 124 l-135 135 428 0 427 0 0 185 0 185 -1030 0 -1030 0 0 -185z m310 0
l0 -175 -150 0 -150 0 0 175 0 175 150 0 150 0 0 -175z m318 3 l-3 -173 -152
-3 -153 -3 0 176 0 175 155 0 155 0 -2 -172z m312 -3 l0 -175 -150 0 -150 0 0
175 0 175 150 0 150 0 0 -175z m240 0 l0 -175 -115 0 -115 0 0 175 0 175 115
0 115 0 0 -175z m240 0 l0 -175 -115 0 -115 0 0 175 0 175 115 0 115 0 0 -175z
m320 0 l0 -176 -152 3 -153 3 -3 173 -2 172 155 0 155 0 0 -175z m310 0 l0
-175 -150 0 -150 0 0 175 0 175 150 0 150 0 0 -175z m-2000 -720 l0 -175 -150
0 -150 0 0 175 0 175 150 0 150 0 0 -175z m310 0 l0 -175 -150 0 -150 0 0 175
0 175 150 0 150 0 0 -175z m320 0 l0 -175 -155 0 -155 0 0 168 c0 93 3 172 7
175 3 4 73 7 155 7 l148 0 0 -175z m240 0 l0 -175 -115 0 -115 0 0 175 0 175
115 0 115 0 0 -175z m600 0 l0 -175 -115 0 -115 0 0 175 0 175 115 0 115 0 0
-175z m320 0 l0 -175 -155 0 -155 0 0 168 c0 93 3 172 7 175 3 4 73 7 155 7
l148 0 0 -175z m310 0 l0 -175 -150 0 -150 0 0 175 0 175 150 0 150 0 0 -175z
m-2800 -730 l0 -175 -150 0 -150 0 0 175 0 175 150 0 150 0 0 -175z m320 0 l0
-175 -155 0 -155 0 0 175 0 175 155 0 155 0 0 -175z m690 0 l0 -175 -150 0
-150 0 0 175 0 175 150 0 150 0 0 -175z m250 0 l0 -175 -120 0 -120 0 0 175 0
175 120 0 120 0 0 -175z m1080 0 l0 -175 -120 0 -120 0 0 175 0 175 120 0 120
0 0 -175z m310 0 l0 -175 -150 0 -150 0 0 175 0 175 150 0 150 0 0 -175z
m-3100 -726 l0 -179 -265 0 -265 0 0 180 0 180 265 -1 265 0 0 -180z m3630 1
l0 -180 -265 0 -265 0 0 180 0 179 265 1 265 0 0 -180z m-3180 -725 l0 -175
-150 0 -150 0 0 175 0 175 150 0 150 0 0 -175z m320 0 l0 -175 -155 0 -155 0
0 175 0 175 155 0 155 0 0 -175z"/>
<path d="M1766 4622 c-3 -5 5 -7 18 -5 31 6 45 -16 15 -24 l-23 -6 23 -9 c30
-11 21 -33 -12 -33 -16 1 -23 -3 -18 -8 5 -5 21 -7 35 -3 23 6 26 11 23 49 -2
37 -5 42 -29 45 -14 2 -29 -1 -32 -6z"/>
<path d="M1856 4618 c-3 -7 -4 -29 -3 -48 2 -32 5 -35 32 -35 29 0 30 2 30 45
0 42 -2 45 -28 48 -16 2 -29 -2 -31 -10z m49 -7 c3 -5 1 -13 -5 -16 -15 -9
-43 3 -35 15 8 13 32 13 40 1z m3 -48 c5 -17 -26 -29 -40 -15 -6 6 -7 15 -3
22 9 14 37 9 43 -7z"/>
<path d="M2076 4622 c-3 -5 4 -8 16 -8 31 1 32 -18 3 -53 l-27 -31 34 1 c25 1
27 3 10 6 l-24 5 22 23 c12 13 20 31 18 42 -3 19 -42 31 -52 15z"/>
<path d="M2183 4623 c32 -5 32 -4 7 -53 -11 -22 -18 -40 -15 -40 2 0 16 23 30
50 l25 50 -37 -1 c-30 -2 -33 -3 -10 -6z"/>
<path d="M2401 4601 c-27 -37 -26 -41 4 -41 17 0 25 -6 26 -17 0 -17 1 -16 8
0 8 23 2 87 -9 87 -5 0 -18 -13 -29 -29z m29 -6 c0 -18 -5 -25 -20 -25 -20 0
-20 1 -4 25 9 14 18 25 20 25 2 0 4 -11 4 -25z"/>
<path d="M2476 4622 c-3 -5 5 -7 18 -5 31 6 45 -16 15 -24 l-23 -6 23 -9 c30
-11 21 -33 -12 -33 -16 1 -23 -3 -18 -8 5 -5 21 -7 35 -3 23 6 26 11 23 49 -2
37 -5 42 -29 45 -14 2 -29 -1 -32 -6z"/>
<path d="M2716 4622 c-3 -5 5 -7 18 -5 31 6 45 -16 15 -24 l-23 -6 23 -9 c30
-11 21 -33 -12 -33 -16 1 -23 -3 -18 -8 5 -5 21 -7 35 -3 23 6 26 11 23 49 -2
37 -5 42 -29 45 -14 2 -29 -1 -32 -6z"/>
<path d="M2954 4616 c-11 -28 4 -49 31 -44 14 3 25 2 25 -2 0 -16 -30 -32 -47
-26 -14 6 -15 4 -7 -4 31 -31 82 29 58 68 -15 23 -52 28 -60 8z m54 -13 c5
-17 -26 -29 -40 -15 -6 6 -7 15 -3 22 9 14 37 9 43 -7z"/>
<path d="M3186 4618 c-3 -7 -4 -29 -3 -48 2 -32 5 -35 32 -35 29 0 30 2 30 45
0 42 -2 45 -28 48 -16 2 -29 -2 -31 -10z m49 -7 c3 -5 1 -13 -5 -16 -15 -9
-43 3 -35 15 8 13 32 13 40 1z m3 -48 c5 -17 -26 -29 -40 -15 -6 6 -7 15 -3
22 9 14 37 9 43 -7z"/>
<path d="M3276 4622 c-3 -5 4 -8 16 -8 31 1 32 -18 3 -53 l-27 -31 34 1 c25 1
27 3 10 6 l-24 5 22 23 c12 13 20 31 18 42 -3 19 -42 31 -52 15z"/>
<path d="M3504 4618 c-4 -7 -3 -8 4 -4 8 5 12 -5 12 -33 0 -22 -5 -42 -12 -44
-7 -3 1 -5 17 -5 17 0 24 2 18 5 -8 3 -13 23 -13 49 0 42 -11 56 -26 32z"/>
<path d="M3592 4618 c-17 -17 -15 -63 4 -79 22 -18 48 0 52 35 6 45 -29 71
-56 44z m43 -38 c0 -28 -4 -35 -20 -35 -13 0 -21 8 -23 23 -5 34 5 54 25 50
13 -2 18 -13 18 -38z"/>
<path d="M1496 3892 c-3 -5 5 -7 18 -5 31 6 45 -16 15 -24 l-23 -6 23 -9 c30
-11 21 -33 -12 -33 -16 1 -23 -3 -18 -8 5 -5 21 -7 35 -3 23 6 26 11 23 49 -2
37 -5 42 -29 45 -14 2 -29 -1 -32 -6z"/>
<path d="M1586 3888 c-3 -7 -4 -29 -3 -48 2 -32 5 -35 32 -35 29 0 30 2 30 45
0 42 -2 45 -28 48 -16 2 -29 -2 -31 -10z m49 -7 c3 -5 1 -13 -5 -16 -15 -9
-43 3 -35 15 8 13 32 13 40 1z m3 -48 c5 -17 -26 -29 -40 -15 -6 6 -7 15 -3
22 9 14 37 9 43 -7z"/>
<path d="M1816 3892 c-3 -5 4 -8 16 -8 31 1 32 -18 3 -53 l-27 -31 34 1 c25 1
27 3 10 6 l-24 5 22 23 c12 13 20 31 18 42 -3 19 -42 31 -52 15z"/>
<path d="M1923 3893 c32 -5 32 -4 7 -53 -11 -22 -18 -40 -15 -40 2 0 16 23 30
50 l25 50 -37 -1 c-30 -2 -33 -3 -10 -6z"/>
<path d="M2141 3871 c-27 -37 -26 -41 4 -41 17 0 25 -6 26 -17 0 -17 1 -16 8
0 8 23 2 87 -9 87 -5 0 -18 -13 -29 -29z m29 -6 c0 -18 -5 -25 -20 -25 -20 0
-20 1 -4 25 9 14 18 25 20 25 2 0 4 -11 4 -25z"/>
<path d="M2216 3892 c-3 -5 5 -7 18 -5 31 6 45 -16 15 -24 l-23 -6 23 -9 c30
-11 21 -33 -12 -33 -16 1 -23 -3 -18 -8 5 -5 21 -7 35 -3 23 6 26 11 23 49 -2
37 -5 42 -29 45 -14 2 -29 -1 -32 -6z"/>
<path d="M2456 3892 c-3 -5 5 -7 18 -5 31 6 45 -16 15 -24 l-23 -6 23 -9 c30
-11 21 -33 -12 -33 -16 1 -23 -3 -18 -8 5 -5 21 -7 35 -3 23 6 26 11 23 49 -2
37 -5 42 -29 45 -14 2 -29 -1 -32 -6z"/>
<path d="M3054 3886 c-11 -28 4 -49 31 -44 14 3 25 2 25 -2 0 -16 -30 -32 -47
-26 -14 6 -15 4 -7 -4 31 -31 82 29 58 68 -15 23 -52 28 -60 8z m54 -13 c5
-17 -26 -29 -40 -15 -6 6 -7 15 -3 22 9 14 37 9 43 -7z"/>
<path d="M3286 3888 c-3 -7 -4 -29 -3 -48 2 -32 5 -35 32 -35 29 0 30 2 30 45
0 42 -2 45 -28 48 -16 2 -29 -2 -31 -10z m49 -7 c3 -5 1 -13 -5 -16 -15 -9
-43 3 -35 15 8 13 32 13 40 1z m3 -48 c5 -17 -26 -29 -40 -15 -6 6 -7 15 -3
22 9 14 37 9 43 -7z"/>
<path d="M3376 3892 c-3 -5 4 -8 16 -8 31 1 32 -18 3 -53 l-27 -31 34 1 c25 1
27 3 10 6 l-24 5 22 23 c12 13 20 31 18 42 -3 19 -42 31 -52 15z"/>
<path d="M3604 3888 c-4 -7 -3 -8 4 -4 8 5 12 -5 12 -33 0 -22 -5 -42 -12 -44
-7 -3 1 -5 17 -5 17 0 24 2 18 5 -8 3 -13 23 -13 49 0 42 -11 56 -26 32z"/>
<path d="M3692 3888 c-17 -17 -15 -63 4 -79 22 -18 48 0 52 35 6 45 -29 71
-56 44z m43 -38 c0 -28 -4 -35 -20 -35 -13 0 -21 8 -23 23 -5 34 5 54 25 50
13 -2 18 -13 18 -38z"/>
<path d="M806 3172 c-3 -5 5 -7 18 -5 31 6 45 -16 15 -24 l-23 -6 23 -9 c30
-11 21 -33 -12 -33 -16 1 -23 -3 -18 -8 5 -5 21 -7 35 -3 23 6 26 11 23 49 -2
37 -5 42 -29 45 -14 2 -29 -1 -32 -6z"/>
<path d="M896 3168 c-3 -7 -4 -29 -3 -48 2 -32 5 -35 32 -35 29 0 30 2 30 45
0 42 -2 45 -28 48 -16 2 -29 -2 -31 -10z m49 -7 c3 -5 1 -13 -5 -16 -15 -9
-43 3 -35 15 8 13 32 13 40 1z m3 -48 c5 -17 -26 -29 -40 -15 -6 6 -7 15 -3
22 9 14 37 9 43 -7z"/>
<path d="M1116 3172 c-3 -5 4 -8 16 -8 31 1 32 -18 3 -53 l-27 -31 34 1 c25 1
27 3 10 6 l-24 5 22 23 c12 13 20 31 18 42 -3 19 -42 31 -52 15z"/>
<path d="M1223 3173 c32 -5 32 -4 7 -53 -11 -22 -18 -40 -15 -40 2 0 16 23 30
50 l25 50 -37 -1 c-30 -2 -33 -3 -10 -6z"/>
<path d="M1831 3151 c-27 -37 -26 -41 4 -41 17 0 25 -6 26 -17 0 -17 1 -16 8
0 8 23 2 87 -9 87 -5 0 -18 -13 -29 -29z m29 -6 c0 -18 -5 -25 -20 -25 -20 0
-20 1 -4 25 9 14 18 25 20 25 2 0 4 -11 4 -25z"/>
<path d="M1906 3172 c-3 -5 5 -7 18 -5 31 6 45 -16 15 -24 l-23 -6 23 -9 c30
-11 21 -33 -12 -33 -16 1 -23 -3 -18 -8 5 -5 21 -7 35 -3 23 6 26 11 23 49 -2
37 -5 42 -29 45 -14 2 -29 -1 -32 -6z"/>
<path d="M2136 3172 c-3 -5 5 -7 18 -5 31 6 45 -16 15 -24 l-23 -6 23 -9 c30
-11 21 -33 -12 -33 -16 1 -23 -3 -18 -8 5 -5 21 -7 35 -3 23 6 26 11 23 49 -2
37 -5 42 -29 45 -14 2 -29 -1 -32 -6z"/>
<path d="M3214 3166 c-11 -28 4 -49 31 -44 14 3 25 2 25 -2 0 -16 -30 -32 -47
-26 -14 6 -15 4 -7 -4 31 -31 82 29 58 68 -15 23 -52 28 -60 8z m54 -13 c5
-17 -26 -29 -40 -15 -6 6 -7 15 -3 22 9 14 37 9 43 -7z"/>
<path d="M3446 3168 c-3 -7 -4 -29 -3 -48 2 -32 5 -35 32 -35 29 0 30 2 30 45
0 42 -2 45 -28 48 -16 2 -29 -2 -31 -10z m49 -7 c3 -5 1 -13 -5 -16 -15 -9
-43 3 -35 15 8 13 32 13 40 1z m3 -48 c5 -17 -26 -29 -40 -15 -6 6 -7 15 -3
22 9 14 37 9 43 -7z"/>
<path d="M3536 3172 c-3 -5 4 -8 16 -8 31 1 32 -18 3 -53 l-27 -31 34 1 c25 1
27 3 10 6 l-24 5 22 23 c12 13 20 31 18 42 -3 19 -42 31 -52 15z"/>
<path d="M236 2442 c-3 -5 5 -7 18 -5 31 6 45 -16 15 -24 l-23 -6 23 -9 c30
-11 21 -33 -12 -33 -16 1 -23 -3 -18 -8 5 -5 21 -7 35 -3 23 6 26 11 23 49 -2
37 -5 42 -29 45 -14 2 -29 -1 -32 -6z"/>
<path d="M326 2438 c-3 -7 -4 -29 -3 -48 2 -32 5 -35 32 -35 29 0 30 2 30 45
0 42 -2 45 -28 48 -16 2 -29 -2 -31 -10z m49 -7 c3 -5 1 -13 -5 -16 -15 -9
-43 3 -35 15 8 13 32 13 40 1z m3 -48 c5 -17 -26 -29 -40 -15 -6 6 -7 15 -3
22 9 14 37 9 43 -7z"/>
<path d="M3876 2438 c-3 -7 -4 -29 -3 -48 2 -32 5 -35 32 -35 29 0 30 2 30 45
0 42 -2 45 -28 48 -16 2 -29 -2 -31 -10z m49 -7 c3 -5 1 -13 -5 -16 -15 -9
-43 3 -35 15 8 13 32 13 40 1z m3 -48 c5 -17 -26 -29 -40 -15 -6 6 -7 15 -3
22 9 14 37 9 43 -7z"/>
<path d="M3966 2442 c-3 -5 4 -8 16 -8 31 1 32 -18 3 -53 l-27 -31 34 1 c25 1
27 3 10 6 l-24 5 22 23 c12 13 20 31 18 42 -3 19 -42 31 -52 15z"/>
<path d="M806 1712 c-3 -5 4 -8 16 -8 31 1 32 -18 3 -53 l-27 -31 34 1 c23 1
26 3 11 6 l-23 4 22 29 c11 16 18 36 15 44 -7 17 -42 22 -51 8z"/>
<path d="M913 1713 c32 -5 32 -4 7 -53 -11 -22 -18 -40 -15 -40 2 0 16 23 30
50 l25 50 -37 -1 c-30 -2 -33 -3 -10 -6z"/>
<path d="M1116 1712 c-3 -5 5 -7 18 -5 31 6 45 -16 15 -24 l-23 -6 23 -9 c30
-11 21 -33 -12 -33 -16 1 -23 -3 -18 -8 5 -5 21 -7 35 -3 23 6 26 11 23 49 -2
37 -5 42 -29 45 -14 2 -29 -1 -32 -6z"/>
<path d="M1206 1708 c-3 -7 -4 -29 -3 -48 2 -32 5 -35 32 -35 29 0 30 2 30 45
0 42 -2 45 -28 48 -16 2 -29 -2 -31 -10z m49 -7 c3 -5 1 -13 -5 -16 -15 -9
-43 3 -35 15 8 13 32 13 40 1z m3 -48 c5 -17 -26 -29 -40 -15 -6 6 -7 15 -3
22 9 14 37 9 43 -7z"/>
<path d="M4030 3436 c0 -3 20 -19 45 -36 25 -17 45 -29 45 -26 0 3 -20 19 -45
36 -25 17 -45 29 -45 26z"/>
<path d="M4136 3368 c-23 -32 -21 -34 29 -48 l45 -13 0 -183 0 -184 164 0
c122 0 166 -3 169 -12 4 -10 6 -10 6 0 1 9 30 12 111 12 l110 0 0 185 0 185
-274 0 -275 0 -28 40 c-15 22 -31 40 -35 40 -4 0 -14 -10 -22 -22z m624 -243
l0 -175 -270 0 -270 0 0 175 0 175 270 0 270 0 0 -175z"/>
<path d="M4424 3168 c-4 -7 -3 -8 4 -4 8 5 12 -5 12 -33 0 -22 -5 -42 -12 -44
-7 -3 1 -5 17 -5 17 0 24 2 18 5 -8 3 -13 23 -13 49 0 42 -11 56 -26 32z"/>
<path d="M4512 3168 c-17 -17 -15 -63 4 -79 22 -18 48 0 52 35 6 45 -29 71
-56 44z m43 -38 c0 -28 -4 -35 -20 -35 -13 0 -21 8 -23 23 -5 34 5 54 25 50
13 -2 18 -13 18 -38z"/>
<path d="M4552 2890 c0 -14 2 -19 5 -12 2 6 2 18 0 25 -3 6 -5 1 -5 -13z"/>
<path d="M3331 2874 c0 -11 3 -14 6 -6 3 7 2 16 -1 19 -3 4 -6 -2 -5 -13z"/>
<path d="M4561 2844 c0 -11 3 -14 6 -6 3 7 2 16 -1 19 -3 4 -6 -2 -5 -13z"/>
<path d="M3321 2834 c0 -11 3 -14 6 -6 3 7 2 16 -1 19 -3 4 -6 -2 -5 -13z"/>
<path d="M4571 2804 c0 -11 3 -14 6 -6 3 7 2 16 -1 19 -3 4 -6 -2 -5 -13z"/>
<path d="M3311 2794 c0 -11 3 -14 6 -6 3 7 2 16 -1 19 -3 4 -6 -2 -5 -13z"/>
<path d="M4582 2760 c0 -14 2 -19 5 -12 2 6 2 18 0 25 -3 6 -5 1 -5 -13z"/>
<path d="M2254 2745 c9 -14 23 -36 32 -50 14 -21 14 -28 3 -41 -11 -13 -11
-17 1 -24 8 -5 24 -16 35 -24 19 -14 16 -15 -42 -16 l-63 0 0 -190 0 -190 71
0 c53 0 68 -3 63 -12 -6 -10 -4 -10 7 0 9 9 66 12 211 12 l198 0 0 190 0 190
-199 0 -198 0 -13 46 c-10 36 -17 45 -31 41 -13 -4 -27 8 -50 44 -17 27 -33
49 -36 49 -3 0 2 -11 11 -25z m506 -345 l0 -180 -265 0 -265 0 0 180 0 179
265 1 265 0 0 -180z"/>
<path d="M2466 2442 c-3 -5 5 -7 18 -5 31 6 45 -16 15 -24 l-23 -6 23 -9 c30
-11 21 -33 -12 -33 -16 1 -23 -3 -18 -8 5 -5 21 -7 35 -3 23 6 26 11 23 49 -2
37 -5 42 -29 45 -14 2 -29 -1 -32 -6z"/>
<path d="M3302 2750 c0 -14 2 -19 5 -12 2 6 2 18 0 25 -3 6 -5 1 -5 -13z"/>
<path d="M1864 2714 c-5 -19 -12 -24 -25 -21 -17 5 -19 -1 -19 -49 l0 -54
-165 0 -165 0 0 -190 0 -190 275 0 275 0 0 190 0 189 -100 3 -100 3 26 39 c20
29 23 40 14 46 -8 5 -10 18 -6 34 3 14 4 26 1 26 -2 0 -8 -12 -11 -26z m166
-314 l0 -180 -265 0 -265 0 0 180 0 180 265 0 265 -1 0 -179z"/>
<path d="M1711 2421 c-27 -37 -26 -41 4 -41 17 0 25 -6 26 -17 0 -17 1 -16 8
0 8 23 2 87 -9 87 -5 0 -18 -13 -29 -29z m29 -6 c0 -18 -5 -25 -20 -25 -20 0
-20 1 -4 25 9 14 18 25 20 25 2 0 4 -11 4 -25z"/>
<path d="M1786 2442 c-3 -5 5 -7 18 -5 31 6 45 -16 15 -24 l-23 -6 23 -9 c30
-11 21 -33 -12 -33 -16 1 -23 -3 -18 -8 5 -5 21 -7 35 -3 23 6 26 11 23 49 -2
37 -5 42 -29 45 -14 2 -29 -1 -32 -6z"/>
<path d="M4591 2714 c0 -11 3 -14 6 -6 3 7 2 16 -1 19 -3 4 -6 -2 -5 -13z"/>
<path d="M3291 2706 c-1 -12 -6 -16 -16 -12 -12 4 -15 -5 -15 -49 l0 -55 -160
0 -160 0 0 -190 0 -190 165 0 c125 0 165 -3 165 -12 0 -10 2 -10 8 -1 5 8 44
13 112 15 l105 3 0 185 0 185 -112 3 -113 3 27 40 c17 26 23 43 16 47 -6 4
-13 16 -16 27 -4 18 -5 18 -6 1z m194 -306 l0 -175 -265 0 -265 0 -3 165 c-1
90 0 170 2 177 4 10 61 13 268 11 l263 -3 0 -175z"/>
<path d="M3184 2435 c-11 -27 4 -48 31 -43 14 3 25 2 25 -2 0 -15 -30 -32 -45
-26 -9 3 -13 2 -10 -4 8 -14 38 -13 53 2 7 7 12 24 12 38 0 14 -5 31 -12 38
-17 17 -47 15 -54 -3z m54 -12 c5 -17 -26 -29 -40 -15 -6 6 -7 15 -3 22 9 14
37 9 43 -7z"/>
<path d="M4603 2688 c-18 -5 -33 -11 -33 -14 0 -3 11 -22 25 -42 l25 -37 -110
-3 -110 -3 0 -189 0 -190 275 0 275 0 0 190 0 190 -155 0 -154 0 -3 53 -3 53
-32 -8z m337 -288 l0 -180 -265 0 -265 0 0 180 0 179 265 1 265 0 0 -180z"/>
<path d="M4604 2438 c-4 -7 -3 -8 4 -4 8 5 12 -5 12 -33 0 -22 -5 -42 -12 -44
-7 -3 1 -5 17 -5 17 0 24 2 18 5 -8 3 -13 23 -13 49 0 42 -11 56 -26 32z"/>
<path d="M4692 2438 c-17 -17 -15 -63 4 -79 22 -18 48 0 52 35 6 45 -29 71
-56 44z m43 -38 c0 -28 -4 -35 -20 -35 -13 0 -21 8 -23 23 -5 34 5 54 25 50
13 -2 18 -13 18 -38z"/>
<path d="M1014 2663 c3 -16 8 -38 12 -50 l6 -23 -136 0 -136 0 0 -190 0 -190
278 2 277 3 0 185 0 185 -132 3 c-73 1 -133 4 -133 6 0 2 7 20 15 39 21 52 19
57 -21 57 -35 0 -36 -1 -30 -27z m291 -263 l0 -175 -265 0 -265 0 -3 165 c-1
90 0 170 2 177 4 10 61 12 268 10 l263 -2 0 -175z"/>
<path d="M966 2442 c-3 -5 4 -8 16 -8 31 1 32 -18 3 -53 l-27 -31 34 1 c25 1
27 3 10 6 l-24 5 22 23 c12 13 20 31 18 42 -3 19 -42 31 -52 15z"/>
<path d="M1073 2443 c32 -5 32 -4 7 -53 -11 -22 -18 -40 -15 -40 2 0 16 23 30
50 l25 50 -37 -1 c-30 -2 -33 -3 -10 -6z"/>
<path d="M3759 2163 c-13 -16 -12 -17 4 -4 16 13 21 21 13 21 -2 0 -10 -8 -17
-17z"/>
<path d="M3699 2083 c-13 -16 -12 -17 4 -4 16 13 21 21 13 21 -2 0 -10 -8 -17
-17z"/>
<path d="M3669 2043 c-13 -16 -12 -17 4 -4 16 13 21 21 13 21 -2 0 -10 -8 -17
-17z"/>
<path d="M3639 2003 c-13 -16 -12 -17 4 -4 16 13 21 21 13 21 -2 0 -10 -8 -17
-17z"/>
<path d="M3609 1963 c-13 -16 -12 -17 4 -4 16 13 21 21 13 21 -2 0 -10 -8 -17
-17z"/>
<path d="M4560 1973 c0 -7 -7 -10 -15 -7 -12 5 -15 -4 -15 -50 l0 -56 -160 0
-160 0 0 -183 c0 -132 -3 -187 -12 -198 -11 -12 -11 -12 2 -1 10 9 84 12 292
12 l278 0 0 185 0 185 -115 0 -115 0 26 39 c24 37 25 41 10 63 -9 12 -16 17
-16 11z m200 -298 l0 -175 -270 0 -270 0 0 175 0 175 270 0 270 0 0 -175z"/>
<path d="M4424 1708 c-4 -7 -3 -8 4 -4 8 5 12 -5 12 -33 0 -22 -5 -42 -12 -44
-7 -3 1 -5 17 -5 17 0 24 2 18 5 -8 3 -13 23 -13 49 0 42 -11 56 -26 32z"/>
<path d="M4512 1708 c-17 -17 -15 -63 4 -79 22 -18 48 0 52 35 6 45 -29 71
-56 44z m43 -38 c0 -28 -4 -35 -20 -35 -13 0 -21 8 -23 23 -5 34 5 54 25 50
13 -2 18 -13 18 -38z"/>
<path d="M1898 1953 c-8 -10 -4 -24 16 -53 l26 -40 -105 0 -105 0 0 -185 0
-184 133 -3 c72 -2 201 -2 285 0 l152 3 0 184 0 184 -77 3 -78 3 38 24 c30 18
35 26 27 37 -7 7 -8 19 -4 26 6 11 5 11 -8 0 -11 -9 -18 -10 -23 -2 -11 17
-22 3 -34 -45 l-11 -45 -90 0 -90 0 0 54 c0 49 -2 55 -21 53 -11 -1 -25 -7
-31 -14z m72 -278 l0 -175 -115 0 -115 0 0 175 0 175 115 0 115 0 0 -175z
m320 0 l0 -175 -155 0 -155 0 0 175 0 175 155 0 155 0 0 -175z"/>
<path d="M1826 1712 c-3 -5 5 -7 18 -5 31 6 45 -16 15 -24 l-23 -6 23 -9 c30
-11 21 -33 -12 -33 -16 1 -23 -3 -18 -8 5 -5 21 -7 35 -3 23 6 26 11 23 49 -2
37 -5 42 -29 45 -14 2 -29 -1 -32 -6z"/>
<path d="M2071 1691 c-27 -37 -26 -41 4 -41 17 0 25 -6 26 -17 0 -17 1 -16 8
0 8 23 2 87 -9 87 -5 0 -18 -13 -29 -29z m29 -6 c0 -18 -5 -25 -20 -25 -20 0
-20 1 -4 25 9 14 18 25 20 25 2 0 4 -11 4 -25z"/>
<path d="M2146 1712 c-3 -5 5 -7 18 -5 31 6 45 -16 15 -24 l-23 -6 23 -9 c30
-11 21 -33 -12 -33 -16 1 -23 -3 -18 -8 5 -5 21 -7 35 -3 23 6 26 11 23 49 -2
37 -5 42 -29 45 -14 2 -29 -1 -32 -6z"/>
<path d="M3330 1958 c-35 -13 -35 -12 -6 -55 l26 -38 -115 -3 -115 -3 0 -184
0 -184 148 -3 c81 -2 209 -2 285 0 l137 3 0 184 0 185 -72 0 -73 0 43 29 c32
21 40 31 30 37 -7 4 -23 14 -35 22 -21 13 -22 12 -36 -35 l-14 -48 -86 -3 -86
-3 -3 54 c-3 53 -4 54 -28 45z m40 -283 l0 -175 -120 0 -120 0 0 175 0 175
120 0 120 0 0 -175z m310 0 l0 -175 -150 0 -150 0 0 175 0 175 150 0 150 0 0
-175z"/>
<path d="M3214 1706 c-11 -28 4 -49 31 -44 14 3 25 2 25 -2 0 -16 -30 -32 -47
-26 -14 6 -15 4 -7 -4 31 -31 82 29 58 68 -15 23 -52 28 -60 8z m54 -13 c5
-17 -26 -29 -40 -15 -6 6 -7 15 -3 22 9 14 37 9 43 -7z"/>
<path d="M3446 1708 c-3 -7 -4 -29 -3 -48 2 -32 5 -35 32 -35 29 0 30 2 30 45
0 42 -2 45 -28 48 -16 2 -29 -2 -31 -10z m49 -7 c3 -5 1 -13 -5 -16 -15 -9
-43 3 -35 15 8 13 32 13 40 1z m3 -48 c5 -17 -26 -29 -40 -15 -6 6 -7 15 -3
22 9 14 37 9 43 -7z"/>
<path d="M3536 1712 c-3 -5 4 -8 16 -8 31 1 32 -18 3 -53 l-27 -31 34 1 c23 1
26 3 11 6 l-23 4 22 29 c11 16 18 36 15 44 -7 17 -42 22 -51 8z"/>
<path d="M1330 1456 c0 -2 8 -10 18 -17 15 -13 16 -12 3 4 -13 16 -21 21 -21
13z"/>
<path d="M1990 1230 c-9 -5 -9 -17 -1 -46 6 -22 11 -42 11 -46 0 -5 -52 -8
-115 -8 l-114 0 -31 46 c-26 36 -34 43 -46 33 -11 -9 -18 -8 -31 2 -17 13 -17
13 -3 -5 8 -11 14 -26 12 -36 -2 -10 8 -20 25 -27 22 -9 -3 -11 -124 -12
l-153 -1 0 -185 0 -185 383 0 c293 0 386 -3 396 -12 11 -10 13 -10 7 0 -6 9
37 12 198 12 l206 0 0 185 0 185 -295 0 c-196 0 -295 3 -295 10 0 6 7 27 15
47 8 19 15 37 15 38 0 7 -50 11 -60 5z m-330 -285 l0 -175 -115 0 -115 0 0
175 0 175 115 0 115 0 0 -175z m310 0 l0 -175 -150 0 -150 0 0 175 0 175 150
0 150 0 0 -175z m320 0 l0 -175 -155 0 -155 0 0 175 0 175 155 0 155 0 0 -175z
m310 0 l0 -175 -150 0 -150 0 0 175 0 175 150 0 150 0 0 -175z"/>
<path d="M1516 992 c-3 -5 5 -7 18 -5 31 6 45 -16 15 -24 l-23 -6 23 -9 c30
-11 21 -33 -12 -33 -16 1 -23 -3 -18 -8 5 -5 21 -7 35 -3 23 6 26 11 23 49 -2
37 -5 42 -29 45 -14 2 -29 -1 -32 -6z"/>
<path d="M1746 992 c-3 -5 4 -8 16 -8 31 1 32 -18 3 -53 l-27 -31 34 1 c23 1
26 3 11 6 l-23 4 22 29 c11 16 18 36 15 44 -7 17 -42 22 -51 8z"/>
<path d="M1853 993 c32 -5 32 -4 7 -53 -11 -22 -18 -40 -15 -40 2 0 16 23 30
50 l25 50 -37 -1 c-30 -2 -33 -3 -10 -6z"/>
<path d="M2056 992 c-3 -5 5 -7 18 -5 31 6 45 -16 15 -24 l-23 -6 23 -9 c30
-11 21 -33 -12 -33 -16 1 -23 -3 -18 -8 5 -5 21 -7 35 -3 23 6 26 11 23 49 -2
37 -5 42 -29 45 -14 2 -29 -1 -32 -6z"/>
<path d="M2146 988 c-3 -7 -4 -29 -3 -48 2 -32 5 -35 32 -35 29 0 30 2 30 45
0 42 -2 45 -28 48 -16 2 -29 -2 -31 -10z m49 -7 c3 -5 1 -13 -5 -16 -15 -9
-43 3 -35 15 8 13 32 13 40 1z m3 -48 c5 -17 -26 -29 -40 -15 -6 6 -7 15 -3
22 9 14 37 9 43 -7z"/>
<path d="M2381 971 c-27 -37 -26 -41 4 -41 17 0 25 -6 26 -17 0 -17 1 -16 8 0
8 23 2 87 -9 87 -5 0 -18 -13 -29 -29z m29 -6 c0 -18 -5 -25 -20 -25 -20 0
-20 1 -4 25 9 14 18 25 20 25 2 0 4 -11 4 -25z"/>
<path d="M2456 992 c-3 -5 5 -7 18 -5 31 6 45 -16 15 -24 l-23 -6 23 -9 c30
-11 21 -33 -12 -33 -16 1 -23 -3 -18 -8 5 -5 21 -7 35 -3 23 6 26 11 23 49 -2
37 -5 42 -29 45 -14 2 -29 -1 -32 -6z"/>
<path d="M3387 1232 c-11 -2 -16 -10 -13 -17 3 -8 8 -30 12 -49 l6 -36 -216 0
-216 0 0 -185 0 -185 126 0 c119 0 126 -1 113 -17 -13 -17 -13 -17 7 0 19 15
50 17 327 17 l307 0 0 185 0 185 -62 1 c-57 1 -60 2 -35 12 16 6 27 18 25 27
-1 8 1 21 6 29 6 10 5 12 -3 7 -6 -4 -18 -3 -26 4 -11 9 -20 2 -45 -34 l-31
-46 -129 0 c-72 0 -130 4 -130 9 0 5 7 25 15 44 8 20 15 38 15 41 0 7 -34 12
-53 8z m-187 -287 l0 -175 -115 0 -115 0 0 175 0 175 115 0 115 0 0 -175z
m320 0 l0 -176 -152 3 -153 3 -3 173 -2 172 155 0 155 0 0 -175z m310 0 l0
-175 -150 0 -150 0 0 175 0 175 150 0 150 0 0 -175z"/>
<path d="M3054 986 c-11 -28 4 -49 31 -44 14 3 25 2 25 -2 0 -16 -30 -32 -47
-26 -14 6 -15 4 -7 -4 31 -31 82 29 58 68 -15 23 -52 28 -60 8z m54 -13 c5
-17 -26 -29 -40 -15 -6 6 -7 15 -3 22 9 14 37 9 43 -7z"/>
<path d="M3294 988 c-4 -7 -3 -8 4 -4 8 5 12 -5 12 -33 0 -22 -5 -42 -12 -44
-7 -3 1 -5 17 -5 17 0 24 2 18 5 -8 3 -13 23 -13 49 0 42 -11 56 -26 32z"/>
<path d="M3382 988 c-17 -17 -15 -63 4 -79 22 -18 48 0 52 35 6 45 -29 71 -56
44z m43 -38 c0 -28 -4 -35 -20 -35 -13 0 -21 8 -23 23 -5 34 5 54 25 50 13 -2
18 -13 18 -38z"/>
<path d="M3596 988 c-3 -7 -4 -29 -3 -48 2 -32 5 -35 32 -35 29 0 30 2 30 45
0 42 -2 45 -28 48 -16 2 -29 -2 -31 -10z m49 -7 c3 -5 1 -13 -5 -16 -15 -9
-43 3 -35 15 8 13 32 13 40 1z m3 -48 c5 -17 -26 -29 -40 -15 -6 6 -7 15 -3
22 9 14 37 9 43 -7z"/>
<path d="M3686 992 c-3 -5 4 -8 16 -8 31 1 32 -18 3 -53 l-27 -31 34 1 c23 1
26 3 11 6 l-23 4 22 29 c11 16 18 36 15 44 -7 17 -42 22 -51 8z"/>
<path d="M2404 533 c41 -43 47 -55 37 -67 -10 -12 -6 -18 26 -35 l38 -20 -412
-1 -413 0 0 -185 0 -185 1030 0 1030 0 0 185 0 185 -417 0 -418 1 38 20 c32
17 36 23 26 35 -10 12 -4 24 37 67 l49 52 -52 -49 c-41 -39 -55 -47 -66 -38
-11 10 -18 2 -37 -38 l-23 -50 -172 0 -172 0 -23 50 c-19 40 -26 48 -37 38
-11 -9 -25 -1 -66 38 l-52 49 49 -52z m-484 -308 l0 -175 -115 0 -115 0 0 175
0 175 115 0 115 0 0 -175z m240 0 l0 -175 -115 0 -115 0 0 175 0 175 115 0
115 0 0 -175z m320 0 l0 -175 -150 0 -150 0 0 175 0 175 150 0 150 0 0 -175z
m310 0 l0 -175 -150 0 -150 0 0 175 0 175 150 0 150 0 0 -175z m310 0 l0 -175
-150 0 -150 0 0 175 0 175 150 0 150 0 0 -175z m320 0 l0 -175 -155 0 -155 0
0 175 0 175 155 0 155 0 0 -175z m310 0 l0 -175 -150 0 -150 0 0 175 0 175
150 0 150 0 0 -175z"/>
<path d="M1776 262 c-3 -5 5 -7 18 -5 31 6 45 -16 15 -24 l-23 -6 23 -9 c30
-11 21 -33 -12 -33 -16 1 -23 -3 -18 -8 5 -5 21 -7 35 -3 23 6 26 11 23 49 -2
37 -5 42 -29 45 -14 2 -29 -1 -32 -6z"/>
<path d="M2014 256 c-11 -28 4 -49 31 -44 14 3 25 2 25 -2 0 -16 -30 -32 -47
-26 -14 6 -15 4 -7 -4 31 -31 82 29 58 68 -15 23 -52 28 -60 8z m54 -13 c5
-17 -26 -29 -40 -15 -6 6 -7 15 -3 22 9 14 37 9 43 -7z"/>
<path d="M2254 258 c-4 -7 -3 -8 4 -4 8 5 12 -5 12 -33 0 -22 -5 -42 -12 -44
-7 -3 1 -5 17 -5 17 0 24 2 18 5 -8 3 -13 23 -13 49 0 42 -11 56 -26 32z"/>
<path d="M2342 258 c-17 -17 -15 -63 4 -79 22 -18 48 0 52 35 6 45 -29 71 -56
44z m43 -38 c0 -28 -4 -35 -20 -35 -13 0 -21 8 -23 23 -5 34 5 54 25 50 13 -2
18 -13 18 -38z"/>
<path d="M2556 262 c-3 -5 4 -8 16 -8 31 1 32 -18 3 -53 l-27 -31 34 1 c23 1
26 3 11 6 l-23 4 22 29 c11 16 18 36 15 44 -7 17 -42 22 -51 8z"/>
<path d="M2663 263 c32 -5 32 -4 7 -53 -11 -22 -18 -40 -15 -40 2 0 16 23 30
50 l25 50 -37 -1 c-30 -2 -33 -3 -10 -6z"/>
<path d="M2876 262 c-3 -5 5 -7 18 -5 31 6 45 -16 15 -24 l-23 -6 23 -9 c30
-11 21 -33 -12 -33 -16 1 -23 -3 -18 -8 5 -5 21 -7 35 -3 23 6 26 11 23 49 -2
37 -5 42 -29 45 -14 2 -29 -1 -32 -6z"/>
<path d="M2966 258 c-3 -7 -4 -29 -3 -48 2 -32 5 -35 32 -35 29 0 30 2 30 45
0 42 -2 45 -28 48 -16 2 -29 -2 -31 -10z m49 -7 c3 -5 1 -13 -5 -16 -15 -9
-43 3 -35 15 8 13 32 13 40 1z m3 -48 c5 -17 -26 -29 -40 -15 -6 6 -7 15 -3
22 9 14 37 9 43 -7z"/>
<path d="M3201 241 c-27 -37 -26 -41 4 -41 17 0 25 -6 26 -17 0 -17 1 -16 8 0
8 23 2 87 -9 87 -5 0 -18 -13 -29 -29z m29 -6 c0 -18 -5 -25 -20 -25 -20 0
-20 1 -4 25 9 14 18 25 20 25 2 0 4 -11 4 -25z"/>
<path d="M3276 262 c-3 -5 5 -7 18 -5 31 6 45 -16 15 -24 l-23 -6 23 -9 c30
-11 21 -33 -12 -33 -16 1 -23 -3 -18 -8 5 -5 21 -7 35 -3 23 6 26 11 23 49 -2
37 -5 42 -29 45 -14 2 -29 -1 -32 -6z"/>
<path d="M3496 258 c-3 -7 -4 -29 -3 -48 2 -32 5 -35 32 -35 29 0 30 2 30 45
0 42 -2 45 -28 48 -16 2 -29 -2 -31 -10z m49 -7 c3 -5 1 -13 -5 -16 -15 -9
-43 3 -35 15 8 13 32 13 40 1z m3 -48 c5 -17 -26 -29 -40 -15 -6 6 -7 15 -3
22 9 14 37 9 43 -7z"/>
<path d="M3586 262 c-3 -5 4 -8 16 -8 31 1 32 -18 3 -53 l-27 -31 34 1 c23 1
26 3 11 6 l-23 4 22 29 c11 16 18 36 15 44 -7 17 -42 22 -51 8z"/>
</g>
</svg>
