<?xml version="1.0" standalone="no"?>
<!DOCTYPE svg PUBLIC "-//W3C//DTD SVG 20010904//EN"
 "http://www.w3.org/TR/2001/REC-SVG-20010904/DTD/svg10.dtd">
<svg version="1.0" xmlns="http://www.w3.org/2000/svg"
 width="494.000000pt" height="543.000000pt" viewBox="0 0 494.000000 543.000000"
 preserveAspectRatio="xMidYMid meet">

<g transform="translate(0.000000,543.000000) scale(0.100000,-0.100000)"
fill="#000000" stroke="none">
<path d="M390 5320 c0 -16 7 -20 30 -20 l30 0 0 -85 c0 -78 2 -85 20 -85 18 0
20 7 20 85 l0 85 30 0 c23 0 30 4 30 20 0 18 -7 20 -80 20 -73 0 -80 -2 -80
-20z"/>
<path d="M580 5319 c0 -14 5 -19 17 -17 26 5 29 38 4 38 -15 0 -21 -6 -21 -21z"/>
<path d="M1179 5311 c-24 -24 -29 -38 -29 -76 0 -38 5 -52 29 -76 33 -32 67
-37 110 -14 34 17 49 55 21 55 -10 0 -23 -7 -30 -15 -18 -22 -67 -19 -80 4
-26 50 -4 111 39 111 16 0 34 -7 41 -15 7 -8 21 -15 31 -15 16 0 17 3 8 24
-24 52 -96 60 -140 17z"/>
<path d="M1970 5235 c0 -98 1 -105 20 -105 19 0 20 7 20 105 0 98 -1 105 -20
105 -19 0 -20 -7 -20 -105z"/>
<path d="M2370 5320 c0 -11 7 -20 15 -20 8 0 15 9 15 20 0 11 -7 20 -15 20 -8
0 -15 -9 -15 -20z"/>
<path d="M2450 5310 c0 -11 -4 -20 -10 -20 -5 0 -10 -7 -10 -15 0 -8 5 -15 10
-15 6 0 10 -24 10 -53 0 -29 5 -58 12 -65 17 -17 48 -15 48 3 0 8 -4 15 -10
15 -5 0 -10 23 -10 50 0 28 5 50 10 50 6 0 10 7 10 15 0 8 -4 15 -10 15 -5 0
-10 9 -10 20 0 13 -7 20 -20 20 -13 0 -20 -7 -20 -20z"/>
<path d="M580 5210 c0 -73 2 -80 20 -80 18 0 20 7 20 80 0 73 -2 80 -20 80
-18 0 -20 -7 -20 -80z"/>
<path d="M660 5208 c0 -63 3 -78 15 -78 11 0 15 12 15 48 0 60 20 93 44 73 11
-9 16 -30 16 -67 0 -41 4 -54 15 -54 11 0 15 12 15 48 0 60 20 93 44 73 11 -9
16 -30 16 -67 0 -41 4 -54 15 -54 12 0 15 14 15 68 0 40 -5 73 -12 80 -15 15
-51 15 -66 0 -8 -8 -15 -8 -24 0 -7 5 -34 10 -60 10 l-48 -1 0 -79z"/>
<path d="M925 5265 c-32 -31 -32 -75 -2 -111 20 -23 28 -26 60 -20 38 7 74 46
42 46 -8 0 -24 -5 -34 -12 -22 -14 -51 -4 -51 17 0 11 12 15 50 15 46 0 50 2
50 24 0 28 -42 66 -72 66 -10 0 -30 -11 -43 -25z m73 -22 c2 -9 -7 -13 -27
-13 -30 0 -39 9 -24 24 11 10 46 3 51 -11z"/>
<path d="M1389 5280 c-29 -17 -43 -66 -29 -100 34 -82 140 -59 140 30 0 63
-59 100 -111 70z m60 -29 c29 -19 12 -90 -21 -91 -13 0 -38 32 -38 50 0 18 25
50 38 50 4 0 13 -4 21 -9z"/>
<path d="M1540 5208 c0 -63 3 -78 15 -78 11 0 15 12 15 48 0 60 20 93 44 73
11 -9 16 -30 16 -67 0 -41 4 -54 15 -54 11 0 15 12 15 48 0 60 20 93 44 73 11
-9 16 -30 16 -67 0 -41 4 -54 15 -54 12 0 15 14 15 68 0 40 -5 73 -12 80 -15
15 -51 15 -66 0 -8 -8 -15 -8 -24 0 -7 5 -34 10 -60 10 l-48 -1 0 -79z"/>
<path d="M1790 5185 c0 -98 1 -105 20 -105 16 0 20 7 20 37 0 29 3 34 12 25
34 -34 98 12 98 69 0 15 -11 41 -24 56 -22 26 -27 27 -55 16 -17 -6 -31 -7
-31 -2 0 5 -9 9 -20 9 -19 0 -20 -7 -20 -105z m110 27 c0 -27 -15 -52 -31 -52
-14 0 -39 32 -39 50 0 10 7 26 16 34 22 23 54 4 54 -32z"/>
<path d="M2060 5268 c-43 -47 -13 -138 46 -138 28 0 89 49 61 50 -9 0 -26 -5
-36 -12 -22 -14 -51 -4 -51 17 0 11 12 15 50 15 44 0 50 3 50 20 0 29 -44 70
-74 70 -14 0 -34 -10 -46 -22z m70 -23 c11 -13 8 -15 -19 -15 -30 0 -39 9 -24
23 11 11 30 8 43 -8z"/>
<path d="M2216 5250 l27 -40 -27 -40 -26 -40 23 0 c15 0 29 9 37 26 l14 25 13
-25 c8 -15 22 -26 33 -26 25 0 25 5 -1 46 l-21 34 21 36 c26 43 26 44 2 44
-10 0 -25 -10 -33 -22 l-15 -22 -12 22 c-7 14 -21 22 -36 22 l-25 0 26 -40z"/>
<path d="M2370 5210 c0 -64 3 -80 15 -80 12 0 15 16 15 80 0 64 -3 80 -15 80
-12 0 -15 -16 -15 -80z"/>
<path d="M2530 5288 c0 -2 13 -40 29 -84 29 -81 30 -104 5 -104 -8 0 -14 -7
-14 -15 0 -21 33 -19 52 3 8 9 29 59 46 110 29 86 29 92 12 92 -15 0 -23 -14
-37 -57 l-17 -58 -16 55 c-13 42 -22 56 -39 58 -11 2 -21 2 -21 0z"/>
<path d="M400 4520 l0 -90 60 0 c47 0 60 3 60 15 0 11 -11 15 -40 15 l-40 0 0
75 c0 68 -2 75 -20 75 -19 0 -20 -7 -20 -90z"/>
<path d="M540 4595 c0 -8 7 -15 15 -15 8 0 15 7 15 15 0 8 -7 15 -15 15 -8 0
-15 -7 -15 -15z"/>
<path d="M1202 4594 c-34 -23 -26 -65 13 -76 61 -18 75 -27 69 -43 -8 -20 -63
-20 -70 0 -8 19 -34 20 -34 1 0 -21 40 -46 72 -46 16 0 37 9 48 20 37 37 23
65 -41 84 -45 14 -59 38 -25 44 10 2 29 -2 42 -9 33 -17 44 -1 15 22 -28 23
-59 24 -89 3z"/>
<path d="M1840 4520 c0 -73 3 -90 15 -90 10 0 15 10 15 34 0 47 9 66 31 66 16
0 19 -8 19 -50 0 -38 4 -50 15 -50 13 0 15 11 13 56 -3 66 -23 88 -58 66 -19
-11 -20 -10 -20 23 0 24 -5 35 -15 35 -12 0 -15 -17 -15 -90z"/>
<path d="M2225 4585 c-54 -53 -18 -155 55 -155 19 0 40 9 55 25 54 53 18 155
-55 155 -19 0 -40 -9 -55 -25z m95 -37 c13 -25 13 -31 0 -55 -19 -34 -45 -40
-71 -17 -24 21 -25 61 -2 86 23 25 54 19 73 -14z"/>
<path d="M2413 4598 c-15 -19 -33 -77 -33 -104 0 -35 30 -104 46 -104 11 0 10
6 -2 35 -18 44 -18 103 1 149 15 35 7 49 -12 24z"/>
<path d="M2613 4596 c31 -79 31 -119 2 -188 -12 -30 13 -20 30 12 20 38 19
113 -1 156 -15 32 -42 50 -31 20z"/>
<path d="M540 4495 c0 -51 3 -65 15 -65 12 0 15 14 15 65 0 51 -3 65 -15 65
-12 0 -15 -14 -15 -65z"/>
<path d="M610 4495 c0 -50 3 -65 14 -65 11 0 16 14 18 48 3 39 6 47 23 47 17
0 20 -8 23 -47 2 -35 7 -48 18 -48 12 0 14 12 12 56 -3 66 -23 88 -58 66 -12
-7 -20 -8 -20 -2 0 5 -7 10 -15 10 -12 0 -15 -14 -15 -65z"/>
<path d="M767 4542 c-22 -25 -21 -75 1 -95 21 -19 45 -21 73 -7 33 18 22 31
-21 24 -33 -5 -40 -4 -40 10 0 12 10 16 40 16 32 0 40 4 40 18 0 24 -31 52
-57 52 -11 0 -27 -8 -36 -18z m63 -22 c0 -5 -11 -10 -25 -10 -14 0 -25 5 -25
10 0 6 11 10 25 10 14 0 25 -4 25 -10z"/>
<path d="M902 4548 c-21 -21 -13 -29 23 -22 43 8 48 -11 6 -21 -41 -9 -55 -28
-41 -54 12 -23 40 -27 58 -9 9 9 12 9 12 0 0 -7 8 -12 19 -12 16 0 17 6 13 53
-2 28 -9 58 -14 65 -13 15 -60 16 -76 0z m55 -73 c-4 -8 -13 -15 -22 -15 -21
0 -19 28 3 32 22 5 26 2 19 -17z"/>
<path d="M1020 4494 c0 -57 2 -64 20 -64 17 0 20 7 20 46 0 37 4 47 20 51 35
9 22 29 -20 30 l-40 2 0 -65z"/>
<path d="M1357 4542 c-22 -25 -21 -75 1 -95 21 -19 45 -21 73 -7 33 18 22 31
-21 24 -33 -5 -40 -4 -40 10 0 12 10 16 40 16 32 0 40 4 40 18 0 24 -31 52
-57 52 -11 0 -27 -8 -36 -18z m63 -22 c0 -5 -11 -10 -25 -10 -14 0 -25 5 -25
10 0 6 11 10 25 10 14 0 25 -4 25 -10z"/>
<path d="M1492 4548 c-21 -21 -13 -29 23 -22 43 8 48 -11 6 -21 -41 -9 -55
-28 -41 -54 12 -23 40 -27 58 -9 9 9 12 9 12 0 0 -7 8 -12 19 -12 16 0 17 6
13 53 -2 28 -9 58 -14 65 -13 15 -60 16 -76 0z m55 -73 c-4 -8 -13 -15 -22
-15 -21 0 -19 28 3 32 22 5 26 2 19 -17z"/>
<path d="M1610 4494 c0 -57 2 -64 20 -64 17 0 20 7 20 46 0 37 4 47 20 51 35
9 22 29 -20 30 l-40 2 0 -65z"/>
<path d="M1720 4540 c-11 -11 -20 -31 -20 -45 0 -28 32 -65 56 -65 24 0 54 19
54 35 0 17 -16 20 -25 5 -3 -5 -15 -10 -25 -10 -21 0 -34 29 -24 54 7 18 39
22 49 6 9 -15 25 -12 25 5 0 16 -30 35 -54 35 -9 0 -25 -9 -36 -20z"/>
<path d="M2470 4494 c0 -49 3 -64 14 -64 11 0 16 14 18 48 3 39 6 47 23 47 17
0 20 -8 23 -47 2 -34 7 -48 18 -48 18 0 20 103 2 118 -7 5 -32 10 -55 9 l-43
0 0 -63z"/>
<path d="M2040 4495 c0 -10 11 -15 35 -15 24 0 35 5 35 15 0 10 -11 15 -35 15
-24 0 -35 -5 -35 -15z"/>
<path d="M400 3930 l0 -90 54 0 c36 0 60 5 70 16 18 18 21 55 5 71 -8 8 -8 17
0 30 7 15 6 25 -5 41 -12 18 -25 22 -70 22 l-54 0 0 -90z m100 40 c0 -16 -7
-20 -30 -20 -23 0 -30 4 -30 20 0 16 7 20 30 20 23 0 30 -4 30 -20z m5 -75 c0
-15 -8 -21 -32 -23 -30 -3 -33 -1 -33 23 0 24 3 26 33 23 24 -2 32 -8 32 -23z"/>
<path d="M570 4005 c0 -8 7 -15 15 -15 8 0 15 7 15 15 0 8 -7 15 -15 15 -8 0
-15 -7 -15 -15z"/>
<path d="M1230 4000 c-36 -36 -23 -60 46 -82 47 -16 52 -41 10 -46 -19 -2 -32
2 -38 12 -11 20 -38 21 -38 2 0 -20 39 -46 70 -46 36 0 70 27 70 54 0 30 -15
42 -62 51 -28 5 -38 12 -38 26 0 13 7 19 24 19 14 0 28 -4 31 -10 8 -13 35
-13 35 -1 0 39 -77 54 -110 21z"/>
<path d="M1870 3930 c0 -83 1 -90 20 -90 17 0 20 7 20 50 0 43 3 50 20 50 17
0 20 -7 20 -50 0 -44 2 -50 21 -50 20 0 21 4 17 56 -5 60 -19 77 -55 69 -20
-5 -23 -1 -23 25 0 23 -4 30 -20 30 -19 0 -20 -7 -20 -90z"/>
<path d="M2273 4010 c-49 -20 -60 -104 -18 -145 53 -54 135 -15 135 65 0 69
-53 106 -117 80z m69 -37 c35 -31 12 -103 -33 -103 -20 0 -49 36 -49 60 0 23
29 60 47 60 9 0 25 -7 35 -17z"/>
<path d="M2436 3986 c-9 -19 -16 -55 -16 -81 0 -46 22 -105 40 -105 13 0 13
-2 -6 54 -16 46 -13 86 12 150 12 31 -14 16 -30 -18z"/>
<path d="M2570 3930 c0 -73 3 -90 15 -90 12 0 15 17 15 90 0 73 -3 90 -15 90
-12 0 -15 -17 -15 -90z"/>
<path d="M3053 4008 c-15 -19 -33 -77 -33 -104 0 -35 30 -104 46 -104 11 0 10
6 -2 35 -18 44 -18 103 1 149 15 35 7 49 -12 24z"/>
<path d="M3253 4006 c31 -79 31 -119 2 -188 -12 -30 13 -20 30 12 20 38 19
113 -1 156 -15 32 -42 50 -31 20z"/>
<path d="M3406 3989 c16 -32 16 -117 -1 -166 -4 -13 -3 -23 2 -23 16 0 43 69
43 110 0 46 -28 110 -47 110 -11 0 -10 -6 3 -31z"/>
<path d="M570 3905 c0 -51 3 -65 15 -65 12 0 15 14 15 65 0 51 -3 65 -15 65
-12 0 -15 -14 -15 -65z"/>
<path d="M640 3905 c0 -50 3 -65 14 -65 11 0 16 14 18 48 3 39 6 47 23 47 17
0 20 -8 23 -47 2 -35 7 -48 18 -48 12 0 14 12 12 56 -3 66 -23 88 -58 66 -12
-7 -20 -8 -20 -2 0 5 -7 10 -15 10 -12 0 -15 -14 -15 -65z"/>
<path d="M798 3959 c-30 -17 -21 -30 17 -23 45 8 47 -10 3 -22 -26 -8 -34 -16
-36 -37 -2 -15 0 -28 5 -28 4 -1 29 -3 54 -4 l45 -2 -4 56 c-3 31 -10 59 -16
63 -16 11 -48 9 -68 -3z m52 -74 c0 -8 -9 -15 -20 -15 -11 0 -20 7 -20 15 0 8
9 15 20 15 11 0 20 -7 20 -15z"/>
<path d="M920 3905 c0 -51 3 -65 15 -65 11 0 15 12 15 44 0 36 4 46 20 51 11
3 20 13 20 21 0 17 -12 18 -28 2 -9 -9 -12 -9 -12 0 0 7 -7 12 -15 12 -12 0
-15 -14 -15 -65z"/>
<path d="M1028 3899 c24 -66 24 -73 9 -84 -22 -16 -21 -25 2 -25 26 0 35 14
64 103 23 70 24 77 8 77 -12 0 -21 -14 -30 -47 l-14 -48 -14 48 c-10 33 -19
47 -32 47 -17 0 -16 -5 7 -71z"/>
<path d="M1392 3954 c-54 -38 -7 -130 55 -108 42 15 40 34 -3 31 -22 -1 -39 3
-41 11 -3 8 9 12 41 12 52 0 60 16 26 50 -24 24 -48 25 -78 4z m58 -24 c0 -5
-12 -10 -26 -10 -14 0 -23 4 -19 10 3 6 15 10 26 10 10 0 19 -4 19 -10z"/>
<path d="M1528 3959 c-30 -17 -21 -30 17 -23 45 8 47 -10 3 -22 -26 -8 -34
-16 -36 -37 -2 -15 0 -28 5 -28 4 -1 29 -3 54 -4 l45 -2 -4 56 c-3 31 -10 59
-16 63 -16 11 -48 9 -68 -3z m52 -74 c0 -8 -9 -15 -20 -15 -11 0 -20 7 -20 15
0 8 9 15 20 15 11 0 20 -7 20 -15z"/>
<path d="M1650 3905 c0 -51 3 -65 15 -65 11 0 15 12 15 46 0 37 4 47 20 51 11
3 20 12 20 19 0 17 -12 18 -28 2 -9 -9 -12 -9 -12 0 0 7 -7 12 -15 12 -12 0
-15 -14 -15 -65z"/>
<path d="M1763 3962 c-32 -20 -32 -94 0 -114 22 -14 54 -8 72 12 23 26 12 37
-19 21 -31 -17 -46 -7 -46 30 0 32 17 38 50 17 27 -17 37 -2 15 22 -18 20 -50
26 -72 12z"/>
<path d="M2652 3954 c-34 -23 -27 -83 11 -104 24 -13 30 -13 55 0 37 21 44 81
10 104 -12 9 -29 16 -38 16 -9 0 -26 -7 -38 -16z m63 -49 c0 -25 -4 -30 -25
-30 -16 0 -26 6 -28 18 -6 30 6 49 30 45 18 -2 23 -9 23 -33z"/>
<path d="M2797 3952 c-38 -42 -9 -120 39 -108 17 5 24 2 24 -8 0 -23 -20 -30
-46 -15 -30 16 -46 2 -20 -17 26 -18 61 -18 80 2 22 22 23 164 1 164 -8 0 -15
-5 -15 -12 0 -9 -3 -9 -12 0 -17 17 -32 15 -51 -6z m58 -47 c0 -23 -4 -30 -20
-30 -21 0 -31 25 -21 51 11 28 41 12 41 -21z"/>
<path d="M3110 3904 c0 -49 3 -64 14 -64 11 0 16 14 18 48 3 39 6 47 23 47 17
0 20 -8 23 -47 2 -34 7 -48 18 -48 18 0 20 103 2 118 -7 5 -32 10 -55 9 l-43
0 0 -63z"/>
<path d="M2080 3905 c0 -10 10 -15 30 -15 20 0 30 5 30 15 0 10 -10 15 -30 15
-20 0 -30 -5 -30 -15z"/>
<path d="M2932 3908 c-13 -13 -16 -38 -6 -38 4 0 12 7 19 17 12 16 35 11 35
-8 0 -5 -13 -21 -30 -36 -42 -37 -39 -53 10 -53 22 0 40 5 40 10 0 6 -12 10
-27 10 l-27 0 27 28 c15 15 27 35 27 43 0 20 -20 39 -40 39 -9 0 -21 -5 -28
-12z"/>
<path d="M390 3415 c0 -9 9 -15 25 -15 24 0 25 -2 25 -75 0 -60 3 -75 15 -75
12 0 15 15 15 75 0 73 1 75 25 75 16 0 25 6 25 15 0 12 -14 15 -65 15 -51 0
-65 -3 -65 -15z"/>
<path d="M1346 3414 c-9 -8 -16 -26 -16 -40 0 -25 17 -37 73 -49 20 -4 27 -11
25 -23 -4 -23 -56 -29 -64 -8 -7 19 -34 21 -34 4 1 -52 111 -64 129 -15 14 37
1 56 -48 70 -52 14 -63 40 -18 45 15 2 27 -1 27 -7 0 -6 9 -11 20 -11 26 0 25
15 -2 34 -29 20 -72 20 -92 0z"/>
<path d="M1990 3340 c0 -72 3 -90 14 -90 11 0 16 14 18 48 3 39 6 47 23 47 17
0 20 -8 23 -47 2 -35 7 -48 18 -48 12 0 14 12 12 56 -3 66 -23 88 -58 66 -19
-11 -20 -10 -20 23 0 24 -5 35 -15 35 -12 0 -15 -17 -15 -90z"/>
<path d="M2373 3406 c-22 -19 -28 -32 -28 -66 0 -34 6 -47 28 -66 43 -37 104
-26 126 23 30 65 -11 133 -79 133 -10 0 -31 -11 -47 -24z m85 -18 c7 -7 12
-28 12 -48 0 -20 -5 -41 -12 -48 -30 -30 -78 0 -78 48 0 48 48 78 78 48z"/>
<path d="M2563 3418 c-15 -19 -33 -77 -33 -104 0 -35 30 -104 46 -104 11 0 10
6 -2 35 -18 44 -18 103 1 149 15 35 7 49 -12 24z"/>
<path d="M2680 3340 c0 -83 1 -90 20 -90 19 0 20 7 20 90 0 83 -1 90 -20 90
-19 0 -20 -7 -20 -90z"/>
<path d="M3156 3396 c-9 -19 -16 -55 -16 -81 0 -46 22 -105 40 -105 13 0 13
-2 -6 54 -16 46 -13 86 12 150 12 31 -14 16 -30 -18z"/>
<path d="M3375 3396 c19 -45 19 -107 1 -151 -12 -29 -13 -35 -2 -35 18 0 46
70 46 113 0 36 -28 99 -47 105 -9 3 -9 -6 2 -32z"/>
<path d="M3515 3413 c4 -10 13 -35 18 -55 11 -37 5 -77 -18 -130 -4 -11 -3
-18 4 -18 7 0 21 21 32 46 22 50 20 94 -7 146 -16 31 -41 40 -29 11z"/>
<path d="M542 3364 c-54 -38 -7 -130 55 -108 42 15 40 34 -3 31 -22 -1 -39 3
-41 11 -3 8 9 12 41 12 52 0 60 16 26 50 -24 24 -48 25 -78 4z m58 -24 c0 -5
-12 -10 -26 -10 -14 0 -23 4 -19 10 3 6 15 10 26 10 10 0 19 -4 19 -10z"/>
<path d="M660 3315 c0 -51 3 -65 15 -65 11 0 15 11 15 40 0 29 5 43 20 52 11
7 20 18 20 25 0 16 -12 17 -28 1 -9 -9 -12 -9 -12 0 0 7 -7 12 -15 12 -12 0
-15 -14 -15 -65z"/>
<path d="M750 3315 c0 -58 2 -65 20 -65 17 0 20 7 20 50 0 42 3 50 19 50 22 0
31 -19 31 -66 0 -24 5 -34 15 -34 11 0 15 12 15 48 0 65 -9 75 -69 79 l-51 3
0 -65z"/>
<path d="M912 3368 c-21 -21 -13 -29 23 -22 43 8 48 -11 6 -21 -41 -9 -55 -28
-41 -54 12 -23 40 -27 58 -9 9 9 12 9 12 0 0 -7 8 -12 19 -12 16 0 17 6 13 53
-2 28 -9 58 -14 65 -13 15 -60 16 -76 0z m55 -73 c-4 -8 -13 -15 -22 -15 -21
0 -19 28 3 32 22 5 26 2 19 -17z"/>
<path d="M1030 3314 c0 -57 2 -64 20 -64 17 0 20 7 20 46 0 37 4 47 20 51 35
9 22 29 -20 30 l-40 2 0 -65z"/>
<path d="M1125 3358 c4 -12 16 -44 25 -71 16 -41 16 -49 4 -61 -20 -20 -17
-28 8 -24 16 2 26 18 44 70 37 112 37 108 20 108 -9 0 -20 -18 -28 -47 l-14
-48 -15 45 c-10 27 -23 46 -33 48 -15 3 -17 -1 -11 -20z"/>
<path d="M1513 3372 c-20 -13 -31 -55 -21 -82 17 -45 51 -52 89 -20 l24 21
-42 -6 c-35 -6 -43 -4 -43 9 0 12 10 16 40 16 33 0 40 3 40 19 0 35 -57 62
-87 43z m52 -32 c4 -6 -5 -10 -19 -10 -14 0 -26 5 -26 10 0 6 9 10 19 10 11 0
23 -4 26 -10z"/>
<path d="M1642 3368 c-21 -21 -13 -29 23 -22 47 9 45 -10 -2 -22 -31 -7 -38
-14 -38 -33 0 -33 29 -50 55 -33 12 7 20 8 20 2 0 -5 8 -10 18 -10 14 0 17 8
14 52 -4 56 -20 78 -57 78 -12 0 -26 -5 -33 -12z m58 -67 c0 -6 -5 -13 -10
-16 -15 -9 -43 3 -35 15 8 13 45 13 45 1z"/>
<path d="M1760 3314 c0 -57 2 -64 20 -64 17 0 20 7 20 46 0 37 4 47 20 51 35
9 22 29 -20 30 l-40 2 0 -65z"/>
<path d="M1870 3360 c-47 -47 -3 -126 58 -104 30 10 43 44 18 44 -9 0 -16 -5
-16 -11 0 -6 -10 -9 -22 -7 -18 2 -23 10 -23 33 0 23 5 31 23 33 12 2 22 -1
22 -7 0 -6 7 -11 15 -11 22 0 19 27 -4 40 -29 15 -49 12 -71 -10z"/>
<path d="M2767 3368 c-28 -22 -32 -73 -8 -97 43 -43 105 -18 105 44 0 56 -53
85 -97 53z m62 -35 c12 -23 -4 -53 -29 -53 -23 0 -36 36 -20 55 17 20 37 19
49 -2z"/>
<path d="M2910 3360 c-24 -24 -26 -58 -4 -89 13 -18 23 -22 45 -17 32 6 38 -4
14 -24 -12 -10 -19 -10 -27 -2 -16 16 -38 15 -38 -2 0 -31 61 -35 90 -6 16 16
20 33 20 90 0 56 -3 70 -15 70 -8 0 -15 -5 -15 -12 0 -9 -3 -9 -12 0 -17 17
-35 15 -58 -8z m65 -29 c8 -26 -4 -51 -25 -51 -10 0 -21 7 -24 16 -10 25 3 54
24 54 10 0 21 -8 25 -19z"/>
<path d="M3220 3315 c0 -50 3 -65 14 -65 11 0 16 14 18 48 3 40 6 47 26 50 20
3 22 0 22 -47 0 -39 4 -51 15 -51 12 0 15 13 15 60 0 55 -2 60 -25 66 -15 4
-32 1 -40 -6 -10 -9 -15 -9 -15 -1 0 6 -7 11 -15 11 -12 0 -15 -14 -15 -65z"/>
<path d="M2190 3315 c0 -10 11 -15 35 -15 24 0 35 5 35 15 0 10 -11 15 -35 15
-24 0 -35 -5 -35 -15z"/>
<path d="M3040 3315 c-17 -20 -5 -32 15 -15 12 10 19 10 28 1 9 -9 9 -14 -3
-21 -12 -7 -12 -12 -2 -22 17 -17 15 -38 -3 -38 -8 0 -15 5 -15 10 0 6 -7 10
-15 10 -19 0 -19 -14 0 -30 31 -26 91 14 66 44 -6 7 -7 22 -4 35 10 37 -41 57
-67 26z"/>
<path d="M400 2750 c0 -73 3 -90 15 -90 12 0 15 17 15 90 0 73 -3 90 -15 90
-12 0 -15 -17 -15 -90z"/>
<path d="M1210 2750 c0 -73 3 -90 15 -90 12 0 15 17 15 90 0 73 -3 90 -15 90
-12 0 -15 -17 -15 -90z"/>
<path d="M1490 2825 c0 -8 7 -15 15 -15 8 0 15 7 15 15 0 8 -7 15 -15 15 -8 0
-15 -7 -15 -15z"/>
<path d="M1930 2820 c-36 -36 -23 -60 46 -82 47 -16 52 -41 10 -46 -19 -2 -32
2 -38 12 -11 20 -38 21 -38 2 0 -20 39 -46 70 -46 36 0 70 27 70 54 0 30 -15
42 -62 51 -28 5 -38 12 -38 26 0 13 7 19 24 19 14 0 28 -4 31 -10 8 -13 35
-13 35 -1 0 39 -77 54 -110 21z"/>
<path d="M2570 2750 c0 -83 1 -90 20 -90 17 0 20 7 20 50 0 43 3 50 20 50 17
0 20 -7 20 -50 0 -44 2 -50 21 -50 20 0 21 4 17 56 -5 60 -19 77 -55 69 -20
-5 -23 -1 -23 25 0 23 -4 30 -20 30 -19 0 -20 -7 -20 -90z"/>
<path d="M2973 2830 c-49 -20 -60 -104 -18 -145 53 -54 135 -15 135 65 0 69
-53 106 -117 80z m69 -37 c35 -31 12 -103 -33 -103 -20 0 -49 36 -49 60 0 23
29 60 47 60 9 0 25 -7 35 -17z"/>
<path d="M3136 2806 c-9 -19 -16 -55 -16 -81 0 -46 22 -105 40 -105 13 0 13
-2 -6 54 -16 46 -13 86 12 150 12 31 -14 16 -30 -18z"/>
<path d="M3270 2750 c0 -73 3 -90 15 -90 12 0 15 17 15 90 0 73 -3 90 -15 90
-12 0 -15 -17 -15 -90z"/>
<path d="M3753 2828 c-15 -19 -33 -77 -33 -104 0 -35 30 -104 46 -104 11 0 10
6 -2 35 -18 44 -18 103 1 149 15 35 7 49 -12 24z"/>
<path d="M3810 2750 c0 -73 3 -90 15 -90 12 0 15 17 15 90 0 73 -3 90 -15 90
-12 0 -15 -17 -15 -90z"/>
<path d="M4286 2812 c-27 -52 -29 -96 -7 -146 11 -25 25 -46 32 -46 7 0 8 7 4
18 -23 53 -29 93 -18 130 5 20 14 45 18 55 12 29 -13 20 -29 -11z"/>
<path d="M4493 2826 c31 -79 31 -119 2 -188 -12 -30 13 -20 30 12 20 38 19
113 -1 156 -15 32 -42 50 -31 20z"/>
<path d="M4573 2826 c31 -79 31 -119 2 -188 -12 -30 13 -20 30 12 20 38 19
113 -1 156 -15 32 -42 50 -31 20z"/>
<path d="M4726 2809 c16 -32 16 -117 -1 -166 -4 -13 -3 -23 2 -23 16 0 43 69
43 110 0 46 -28 110 -47 110 -11 0 -10 -6 3 -31z"/>
<path d="M612 2802 c-8 -17 -9 -28 -2 -30 5 -2 10 -26 10 -53 0 -36 4 -51 16
-56 19 -7 41 11 25 21 -15 10 -14 83 2 89 8 4 9 8 1 14 -6 4 -13 16 -17 26 -9
24 -20 21 -35 -11z"/>
<path d="M1412 2802 c-8 -17 -9 -28 -2 -30 5 -2 10 -26 10 -53 0 -36 4 -51 16
-56 19 -7 41 11 25 21 -15 10 -14 83 2 89 8 4 9 8 1 14 -6 4 -13 16 -17 26 -9
24 -20 21 -35 -11z"/>
<path d="M470 2724 c0 -49 3 -64 14 -64 11 0 16 14 18 48 3 39 6 47 23 47 17
0 20 -8 23 -47 2 -34 7 -48 18 -48 18 0 20 103 2 118 -7 5 -32 10 -55 9 l-43
0 0 -63z"/>
<path d="M700 2770 c-11 -11 -20 -31 -20 -45 0 -30 32 -65 59 -65 10 0 29 9
42 20 l24 20 -44 -3 c-28 -1 -45 3 -48 11 -3 8 9 12 41 12 34 0 46 4 46 15 0
22 -37 55 -60 55 -11 0 -29 -9 -40 -20z m65 -20 c4 -6 -7 -10 -25 -10 -18 0
-29 4 -25 10 3 6 15 10 25 10 10 0 22 -4 25 -10z"/>
<path d="M820 2724 c0 -57 2 -64 20 -64 17 0 20 7 20 46 0 37 4 47 20 51 35 9
22 29 -20 30 l-40 2 0 -65z"/>
<path d="M912 2702 c2 -69 6 -87 18 -87 9 0 16 11 18 28 3 22 7 27 21 22 28
-9 49 4 60 36 10 30 0 78 -16 80 -5 1 -30 3 -56 5 l-48 3 3 -87z m83 23 c0
-23 -4 -30 -20 -30 -21 0 -31 25 -21 51 11 28 41 12 41 -21z"/>
<path d="M1082 2774 c-34 -23 -27 -83 11 -104 24 -13 30 -13 55 0 37 21 44 81
10 104 -12 9 -29 16 -38 16 -9 0 -26 -7 -38 -16z m63 -49 c0 -25 -4 -30 -25
-30 -16 0 -26 6 -28 18 -6 30 6 49 30 45 18 -2 23 -9 23 -33z"/>
<path d="M1286 2774 c-23 -23 -20 -26 19 -18 44 8 48 -12 4 -21 -66 -15 -47
-69 25 -71 l46 -1 0 48 c0 53 -18 79 -55 79 -13 0 -31 -7 -39 -16z m58 -69
c-6 -16 -44 -21 -44 -7 0 14 12 22 31 22 12 0 16 -5 13 -15z"/>
<path d="M1490 2725 c0 -51 3 -65 15 -65 12 0 15 14 15 65 0 51 -3 65 -15 65
-12 0 -15 -14 -15 -65z"/>
<path d="M1570 2770 c-11 -11 -20 -31 -20 -45 0 -55 69 -85 105 -45 55 60 -27
148 -85 90z m65 -45 c0 -23 -5 -31 -21 -33 -24 -3 -38 20 -28 50 4 13 13 18
27 16 17 -2 22 -10 22 -33z"/>
<path d="M1700 2725 c0 -58 2 -65 20 -65 17 0 20 7 20 50 0 42 3 50 19 50 22
0 31 -19 31 -66 0 -24 5 -34 15 -34 11 0 15 12 15 48 0 65 -9 75 -69 79 l-51
3 0 -65z"/>
<path d="M2092 2774 c-54 -38 -7 -130 55 -108 42 15 40 34 -3 31 -22 -1 -39 3
-41 11 -3 8 9 12 41 12 52 0 60 16 26 50 -24 24 -48 25 -78 4z m58 -24 c0 -5
-12 -10 -26 -10 -14 0 -23 4 -19 10 3 6 15 10 26 10 10 0 19 -4 19 -10z"/>
<path d="M2228 2779 c-30 -17 -21 -30 17 -23 45 8 47 -10 3 -22 -26 -8 -34
-16 -36 -37 -2 -15 0 -28 5 -28 4 -1 29 -3 54 -4 l45 -2 -4 56 c-3 31 -10 59
-16 63 -16 11 -48 9 -68 -3z m52 -74 c0 -8 -9 -15 -20 -15 -11 0 -20 7 -20 15
0 8 9 15 20 15 11 0 20 -7 20 -15z"/>
<path d="M2350 2725 c0 -51 3 -65 15 -65 11 0 15 12 15 46 0 37 4 47 20 51 11
3 20 12 20 19 0 17 -12 18 -28 2 -9 -9 -12 -9 -12 0 0 7 -7 12 -15 12 -12 0
-15 -14 -15 -65z"/>
<path d="M2463 2782 c-32 -20 -32 -94 0 -114 22 -14 54 -8 72 12 23 26 12 37
-19 21 -31 -17 -46 -7 -46 30 0 32 17 38 50 17 27 -17 37 -2 15 22 -18 20 -50
26 -72 12z"/>
<path d="M3352 2774 c-34 -23 -27 -83 11 -104 24 -13 30 -13 55 0 37 21 44 81
10 104 -12 9 -29 16 -38 16 -9 0 -26 -7 -38 -16z m63 -49 c0 -25 -4 -30 -25
-30 -16 0 -26 6 -28 18 -6 30 6 49 30 45 18 -2 23 -9 23 -33z"/>
<path d="M3503 2782 c-6 -4 -16 -20 -22 -35 -19 -50 18 -98 63 -81 18 7 21 -3
6 -26 -7 -12 -12 -12 -34 0 -30 16 -45 7 -26 -15 17 -21 63 -19 83 3 23 26 25
162 2 162 -8 0 -15 -5 -15 -12 0 -9 -3 -9 -12 0 -14 14 -28 15 -45 4z m53 -48
c8 -29 -7 -49 -30 -41 -16 6 -22 48 -9 60 14 15 33 6 39 -19z"/>
<path d="M3890 2770 c-11 -11 -20 -31 -20 -45 0 -55 69 -85 105 -45 55 60 -27
148 -85 90z m65 -45 c0 -23 -5 -31 -21 -33 -24 -3 -38 20 -28 50 4 13 13 18
27 16 17 -2 22 -10 22 -33z"/>
<path d="M4037 2772 c-38 -42 -9 -120 39 -108 17 5 24 2 24 -8 0 -23 -20 -30
-46 -15 -30 16 -46 2 -20 -17 26 -18 61 -18 80 2 22 22 23 164 1 164 -8 0 -15
-5 -15 -12 0 -9 -3 -9 -12 0 -17 17 -32 15 -51 -6z m58 -47 c0 -23 -4 -30 -20
-30 -21 0 -31 25 -21 51 11 28 41 12 41 -21z"/>
<path d="M4350 2725 c0 -50 3 -65 14 -65 11 0 16 14 18 48 3 39 6 47 23 47 17
0 20 -8 23 -47 2 -35 7 -48 18 -48 12 0 14 12 12 56 -3 66 -23 88 -58 66 -12
-7 -20 -8 -20 -2 0 5 -7 10 -15 10 -12 0 -15 -14 -15 -65z"/>
<path d="M3632 2738 c-13 -13 -16 -38 -6 -38 4 0 12 7 19 17 12 16 35 11 35
-8 0 -5 -13 -21 -30 -36 -42 -37 -39 -53 10 -53 22 0 40 5 40 10 0 6 -12 10
-27 10 l-27 0 27 28 c15 15 27 35 27 43 0 20 -20 39 -40 39 -9 0 -21 -5 -28
-12z"/>
<path d="M4172 2738 c-14 -14 -16 -38 -2 -38 5 0 13 7 18 16 10 18 32 11 32
-11 0 -7 -13 -23 -30 -35 -43 -31 -39 -50 10 -50 22 0 40 5 40 10 0 6 -12 10
-27 10 l-28 1 28 22 c40 33 32 87 -13 87 -9 0 -21 -5 -28 -12z"/>
<path d="M2780 2725 c0 -10 10 -15 30 -15 20 0 30 5 30 15 0 10 -10 15 -30 15
-20 0 -30 -5 -30 -15z"/>
<path d="M400 2160 c0 -83 1 -90 20 -90 17 0 20 7 20 40 0 39 1 40 35 40 24 0
35 5 35 15 0 10 -11 15 -35 15 -28 0 -35 4 -35 20 0 17 7 20 40 20 29 0 40 4
40 15 0 12 -13 15 -60 15 l-60 0 0 -90z"/>
<path d="M540 2235 c0 -8 9 -15 20 -15 11 0 20 7 20 15 0 8 -9 15 -20 15 -11
0 -20 -7 -20 -15z"/>
<path d="M610 2161 l0 -90 46 3 c51 3 74 23 74 63 0 34 -36 66 -66 59 -21 -6
-24 -3 -24 24 0 20 -5 30 -15 30 -12 0 -15 -17 -15 -89z m85 -10 c9 -29 -5
-52 -29 -49 -37 5 -34 68 3 68 11 0 22 -8 26 -19z"/>
<path d="M1450 2235 c0 -8 7 -15 15 -15 8 0 15 7 15 15 0 8 -7 15 -15 15 -8 0
-15 -7 -15 -15z"/>
<path d="M1602 2234 c-34 -23 -26 -65 13 -76 61 -18 75 -27 69 -43 -8 -20 -63
-20 -70 0 -8 19 -34 20 -34 1 0 -21 40 -46 72 -46 16 0 37 9 48 20 37 37 23
65 -41 84 -45 14 -59 38 -25 44 10 2 29 -2 42 -9 33 -17 44 -1 15 22 -28 23
-59 24 -89 3z"/>
<path d="M2240 2160 c0 -73 3 -90 15 -90 10 0 15 10 15 34 0 47 9 66 31 66 16
0 19 -8 19 -50 0 -38 4 -50 15 -50 13 0 15 11 13 56 -3 66 -23 88 -58 66 -19
-11 -20 -10 -20 23 0 24 -5 35 -15 35 -12 0 -15 -17 -15 -90z"/>
<path d="M2625 2225 c-35 -34 -35 -96 0 -130 53 -54 135 -15 135 65 0 51 -34
90 -80 90 -19 0 -40 -9 -55 -25z m95 -37 c13 -25 13 -31 0 -55 -19 -34 -45
-40 -71 -17 -24 21 -25 61 -2 86 23 25 54 19 73 -14z"/>
<path d="M2813 2238 c-15 -19 -33 -77 -33 -104 0 -35 30 -104 46 -104 11 0 10
6 -2 35 -18 44 -18 103 1 149 15 35 7 49 -12 24z"/>
<path d="M2930 2160 c0 -83 1 -90 20 -90 19 0 20 7 20 90 0 83 -1 90 -20 90
-19 0 -20 -7 -20 -90z"/>
<path d="M3306 2210 c-9 -22 -16 -56 -16 -75 0 -41 28 -105 47 -105 11 0 11 6
-2 30 -19 37 -19 110 -1 155 12 29 13 35 2 35 -8 0 -21 -18 -30 -40z"/>
<path d="M3585 2233 c4 -10 13 -35 18 -55 11 -37 5 -77 -18 -130 -4 -11 -3
-18 4 -18 7 0 21 21 32 46 22 50 20 94 -7 146 -16 31 -41 40 -29 11z"/>
<path d="M3733 2236 c31 -79 31 -119 2 -188 -12 -30 13 -20 30 12 20 38 19
113 -1 156 -15 32 -42 50 -31 20z"/>
<path d="M540 2135 c0 -58 2 -65 20 -65 18 0 20 7 20 65 0 58 -2 65 -20 65
-18 0 -20 -7 -20 -65z"/>
<path d="M770 2180 c-11 -11 -20 -31 -20 -45 0 -55 69 -85 105 -45 55 60 -27
148 -85 90z m65 -45 c0 -23 -5 -31 -21 -33 -24 -3 -38 20 -28 50 4 13 13 18
27 16 17 -2 22 -10 22 -33z"/>
<path d="M900 2135 c0 -58 2 -65 20 -65 17 0 20 7 20 50 0 42 3 50 19 50 22 0
31 -19 31 -66 0 -24 5 -34 15 -34 11 0 15 12 15 48 0 65 -9 75 -69 79 l-51 3
0 -65z"/>
<path d="M1062 2188 c-21 -21 -13 -29 23 -22 47 9 45 -10 -2 -22 -31 -7 -38
-14 -38 -33 0 -33 29 -50 55 -33 12 7 20 8 20 2 0 -5 8 -10 18 -10 14 0 17 8
14 52 -4 56 -20 78 -57 78 -12 0 -26 -5 -33 -12z m58 -67 c0 -6 -5 -13 -10
-16 -15 -9 -43 3 -35 15 8 13 45 13 45 1z"/>
<path d="M1197 2182 c-52 -57 24 -150 77 -96 20 20 20 34 1 34 -8 0 -15 -5
-15 -11 0 -6 -10 -9 -22 -7 -18 2 -23 10 -23 33 0 23 5 31 23 33 12 2 22 -1
22 -7 0 -6 7 -11 15 -11 19 0 19 14 -1 34 -21 21 -57 20 -77 -2z"/>
<path d="M1330 2180 c-47 -47 -3 -126 58 -104 30 10 43 44 18 44 -9 0 -16 -5
-16 -11 0 -6 -10 -9 -22 -7 -18 2 -23 10 -23 33 0 23 5 31 23 33 12 2 22 -1
22 -7 0 -6 7 -11 15 -11 22 0 19 27 -4 40 -29 15 -49 12 -71 -10z"/>
<path d="M1450 2135 c0 -51 3 -65 15 -65 12 0 15 14 15 65 0 51 -3 65 -15 65
-12 0 -15 -14 -15 -65z"/>
<path d="M1757 2182 c-22 -25 -21 -75 1 -95 21 -19 45 -21 73 -7 33 18 22 31
-21 24 -33 -5 -40 -4 -40 10 0 12 10 16 40 16 32 0 40 4 40 18 0 24 -31 52
-57 52 -11 0 -27 -8 -36 -18z m63 -22 c0 -5 -11 -10 -25 -10 -14 0 -25 5 -25
10 0 6 11 10 25 10 14 0 25 -4 25 -10z"/>
<path d="M1892 2188 c-21 -21 -13 -29 23 -22 43 8 48 -11 6 -21 -41 -9 -55
-28 -41 -54 12 -23 40 -27 58 -9 9 9 12 9 12 0 0 -7 8 -12 19 -12 16 0 17 6
13 53 -2 28 -9 58 -14 65 -13 15 -60 16 -76 0z m55 -73 c-4 -8 -13 -15 -22
-15 -21 0 -19 28 3 32 22 5 26 2 19 -17z"/>
<path d="M2010 2134 c0 -57 2 -64 20 -64 17 0 20 7 20 46 0 37 4 47 20 51 35
9 22 29 -20 30 l-40 2 0 -65z"/>
<path d="M2120 2180 c-47 -47 -3 -126 58 -104 30 10 43 44 18 44 -9 0 -16 -5
-16 -11 0 -6 -10 -9 -22 -7 -18 2 -23 10 -23 33 0 23 5 31 23 33 12 2 22 -1
22 -7 0 -6 7 -11 15 -11 22 0 19 27 -4 40 -29 15 -49 12 -71 -10z"/>
<path d="M3015 2180 c-36 -40 -9 -110 42 -110 30 0 63 34 63 65 0 55 -69 85
-105 45z m70 -29 c9 -29 -5 -52 -29 -49 -37 5 -34 68 3 68 11 0 22 -8 26 -19z"/>
<path d="M3160 2180 c-24 -24 -26 -58 -4 -89 13 -18 23 -22 45 -17 32 6 38 -4
14 -24 -12 -10 -19 -10 -27 -2 -16 16 -38 15 -38 -2 0 -31 61 -35 90 -6 16 16
20 33 20 90 0 56 -3 70 -15 70 -8 0 -15 -5 -15 -12 0 -9 -3 -9 -12 0 -17 17
-35 15 -58 -8z m65 -29 c8 -26 -4 -51 -25 -51 -21 0 -33 25 -25 51 8 24 42 24
50 0z"/>
<path d="M3370 2135 c0 -58 2 -65 20 -65 17 0 20 7 20 50 0 42 3 50 19 50 22
0 31 -19 31 -66 0 -24 5 -34 15 -34 11 0 15 12 15 48 0 65 -9 75 -69 79 l-51
3 0 -65z"/>
<path d="M2440 2135 c0 -10 11 -15 35 -15 24 0 35 5 35 15 0 10 -11 15 -35 15
-24 0 -35 -5 -35 -15z"/>
<path d="M2723 1703 c-13 -5 -18 -43 -7 -43 4 0 13 8 20 18 12 14 15 15 23 2
7 -10 1 -24 -25 -52 -19 -21 -34 -40 -34 -43 0 -3 20 -5 45 -5 25 0 45 5 45
10 0 6 -12 10 -27 10 l-27 0 27 28 c15 15 27 35 27 43 0 31 -33 46 -67 32z"/>
<path d="M418 1658 c-39 -32 -17 -88 35 -88 31 0 51 -15 44 -34 -8 -20 -51
-21 -67 -1 -14 17 -40 20 -40 5 0 -20 41 -50 68 -50 38 0 72 26 72 55 0 27
-10 36 -60 50 -42 13 -54 45 -18 45 13 0 29 -5 35 -11 6 -6 19 -9 29 -7 17 3
17 5 -4 26 -24 24 -69 29 -94 10z"/>
<path d="M690 1580 c0 -83 1 -90 20 -90 19 0 20 7 20 90 0 83 -1 90 -20 90
-19 0 -20 -7 -20 -90z"/>
<path d="M1110 1655 c0 -8 7 -15 15 -15 8 0 15 7 15 15 0 8 -7 15 -15 15 -8 0
-15 -7 -15 -15z"/>
<path d="M1552 1654 c-34 -23 -26 -65 13 -76 61 -18 75 -27 69 -43 -8 -20 -63
-20 -70 0 -8 19 -34 20 -34 1 0 -21 40 -46 72 -46 16 0 37 9 48 20 37 37 23
65 -41 84 -45 14 -59 38 -25 44 10 2 29 -2 42 -9 33 -17 44 -1 15 22 -28 23
-59 24 -89 3z"/>
<path d="M2273 1660 c-49 -20 -60 -104 -18 -145 53 -54 135 -15 135 65 0 69
-53 106 -117 80z m69 -37 c35 -31 12 -103 -33 -103 -20 0 -49 36 -49 60 0 23
29 60 47 60 9 0 25 -7 35 -17z"/>
<path d="M2436 1636 c-9 -19 -16 -55 -16 -81 0 -46 22 -105 40 -105 13 0 13
-2 -6 54 -16 46 -13 86 12 150 12 31 -14 16 -30 -18z"/>
<path d="M2886 1639 c16 -32 16 -117 -1 -166 -4 -13 -3 -23 2 -23 16 0 43 69
43 110 0 46 -28 110 -47 110 -11 0 -10 -6 3 -31z"/>
<path d="M1031 1638 c-12 -36 1 -129 21 -142 23 -14 35 0 20 24 -15 24 -16 77
-2 82 12 4 -10 58 -23 58 -4 0 -11 -10 -16 -22z"/>
<path d="M1942 1632 c-8 -17 -9 -28 -2 -30 5 -2 10 -26 10 -53 0 -36 4 -51 16
-56 19 -7 41 11 25 21 -15 10 -14 83 2 89 8 4 9 8 1 14 -6 4 -13 16 -17 26 -9
24 -20 21 -35 -11z"/>
<path d="M570 1600 c-11 -11 -20 -31 -20 -45 0 -30 32 -65 59 -65 10 0 29 9
42 20 l24 20 -44 -3 c-28 -1 -45 3 -48 11 -3 8 9 12 41 12 34 0 46 4 46 15 0
22 -37 55 -60 55 -11 0 -29 -9 -40 -20z m65 -20 c4 -6 -7 -10 -25 -10 -18 0
-29 4 -25 10 3 6 15 10 25 10 10 0 22 -4 25 -10z"/>
<path d="M770 1600 c-11 -11 -20 -31 -20 -45 0 -30 32 -65 59 -65 10 0 29 9
42 20 l24 20 -44 -3 c-28 -1 -45 3 -48 11 -3 8 9 12 41 12 34 0 46 4 46 15 0
22 -37 55 -60 55 -11 0 -29 -9 -40 -20z m65 -20 c4 -6 -7 -10 -25 -10 -18 0
-29 4 -25 10 3 6 15 10 25 10 10 0 22 -4 25 -10z"/>
<path d="M907 1602 c-52 -57 24 -150 77 -96 20 20 20 34 1 34 -8 0 -15 -5 -15
-11 0 -6 -10 -9 -22 -7 -18 2 -23 10 -23 33 0 23 5 31 23 33 12 2 22 -1 22 -7
0 -6 7 -11 15 -11 19 0 19 14 -1 34 -21 21 -57 20 -77 -2z"/>
<path d="M1110 1555 c0 -51 3 -65 15 -65 12 0 15 14 15 65 0 51 -3 65 -15 65
-12 0 -15 -14 -15 -65z"/>
<path d="M1192 1604 c-34 -23 -27 -83 11 -104 24 -13 30 -13 55 0 37 21 44 81
10 104 -12 9 -29 16 -38 16 -9 0 -26 -7 -38 -16z m63 -49 c0 -25 -4 -30 -25
-30 -16 0 -26 6 -28 18 -6 30 6 49 30 45 18 -2 23 -9 23 -33z"/>
<path d="M1320 1555 c0 -50 3 -65 14 -65 11 0 16 14 18 48 3 40 6 47 26 50 20
3 22 0 22 -47 0 -39 4 -51 15 -51 12 0 15 13 15 60 0 55 -2 60 -25 66 -15 4
-32 1 -40 -6 -10 -9 -15 -9 -15 -1 0 6 -7 11 -15 11 -12 0 -15 -14 -15 -65z"/>
<path d="M1710 1600 c-11 -11 -20 -31 -20 -45 0 -55 69 -85 105 -45 55 60 -27
148 -85 90z m65 -45 c0 -23 -5 -31 -21 -33 -24 -3 -38 20 -28 50 4 13 13 18
27 16 17 -2 22 -10 22 -33z"/>
<path d="M1840 1555 c0 -51 3 -65 15 -65 11 0 15 11 15 40 0 29 5 43 20 52 11
7 20 18 20 25 0 16 -12 17 -28 1 -9 -9 -12 -9 -12 0 0 7 -7 12 -15 12 -12 0
-15 -14 -15 -65z"/>
<path d="M2570 1554 c0 -49 3 -64 14 -64 11 0 16 14 18 48 3 39 6 47 23 47 17
0 20 -8 23 -47 2 -34 7 -48 18 -48 18 0 20 103 2 118 -7 5 -32 10 -55 9 l-43
0 0 -63z"/>
<path d="M2080 1555 c0 -10 10 -15 30 -15 20 0 30 5 30 15 0 10 -10 15 -30 15
-20 0 -30 -5 -30 -15z"/>
<path d="M2462 1108 c-14 -14 -16 -38 -2 -38 5 0 13 7 18 16 10 18 32 11 32
-11 0 -7 -13 -23 -30 -35 -43 -31 -39 -50 10 -50 22 0 40 5 40 10 0 6 -12 10
-27 10 l-28 1 28 22 c40 33 32 87 -13 87 -9 0 -21 -5 -28 -12z"/>
<path d="M400 990 l0 -90 54 0 c36 0 60 5 70 16 18 18 21 55 5 71 -8 8 -8 17
0 30 7 15 6 25 -5 41 -12 18 -25 22 -70 22 l-54 0 0 -90z m100 40 c0 -16 -7
-20 -30 -20 -23 0 -30 4 -30 20 0 16 7 20 30 20 23 0 30 -4 30 -20z m5 -75 c0
-15 -8 -21 -32 -23 -30 -3 -33 -1 -33 23 0 24 3 26 33 23 24 -2 32 -8 32 -23z"/>
<path d="M720 991 l0 -90 46 3 c51 3 74 23 74 63 0 34 -36 66 -66 59 -21 -6
-24 -3 -24 24 0 20 -5 30 -15 30 -12 0 -15 -17 -15 -89z m85 -10 c9 -29 -5
-52 -29 -49 -37 5 -34 68 3 68 11 0 22 -8 26 -19z"/>
<path d="M860 991 l0 -88 43 -1 c52 0 77 21 77 63 0 41 -30 70 -65 61 -23 -6
-25 -4 -25 24 0 20 -5 30 -15 30 -12 0 -15 -17 -15 -89z m88 -24 c4 -34 -25
-49 -44 -22 -10 13 -10 23 -3 37 15 27 43 18 47 -15z"/>
<path d="M1010 990 c0 -73 3 -90 15 -90 12 0 15 17 15 90 0 73 -3 90 -15 90
-12 0 -15 -17 -15 -90z"/>
<path d="M1298 1068 c-39 -32 -17 -88 35 -88 31 0 51 -15 44 -34 -8 -20 -51
-21 -67 -1 -14 17 -40 20 -40 5 0 -20 41 -50 68 -50 38 0 72 26 72 55 0 27
-10 36 -60 50 -42 13 -54 45 -18 45 13 0 29 -5 35 -11 6 -6 19 -9 29 -7 17 3
17 5 -4 26 -24 24 -69 29 -94 10z"/>
<path d="M2003 1056 c-22 -19 -28 -32 -28 -66 0 -34 6 -47 28 -66 43 -37 104
-26 126 23 30 65 -11 133 -79 133 -10 0 -31 -11 -47 -24z m85 -18 c7 -7 12
-28 12 -48 0 -20 -5 -41 -12 -48 -30 -30 -78 0 -78 48 0 48 48 78 78 48z"/>
<path d="M2176 1040 c-9 -22 -16 -56 -16 -75 0 -41 28 -105 47 -105 11 0 11 6
-2 30 -19 37 -19 110 -1 155 12 29 13 35 2 35 -8 0 -21 -18 -30 -40z"/>
<path d="M2623 1066 c31 -79 31 -119 2 -188 -12 -30 13 -20 30 12 20 38 19
113 -1 156 -15 32 -42 50 -31 20z"/>
<path d="M1690 1051 c0 -11 -6 -22 -12 -24 -10 -4 -10 -7 -1 -14 6 -5 13 -31
15 -58 3 -43 6 -50 26 -53 22 -3 30 12 12 23 -14 9 -12 82 3 89 10 5 10 7 0
12 -7 3 -13 14 -13 25 0 10 -7 19 -15 19 -8 0 -15 -9 -15 -19z"/>
<path d="M570 976 c0 -63 10 -74 68 -73 l42 0 0 63 c0 49 -3 64 -14 64 -11 0
-16 -14 -18 -47 -3 -40 -6 -48 -23 -48 -17 0 -20 8 -23 48 -2 33 -7 47 -18 47
-10 0 -14 -14 -14 -54z"/>
<path d="M1092 1014 c-54 -38 -7 -130 55 -108 42 15 40 34 -3 31 -22 -1 -39 3
-41 11 -3 8 9 12 41 12 52 0 60 16 26 50 -24 24 -48 25 -78 4z m58 -24 c0 -5
-12 -10 -26 -10 -14 0 -23 4 -19 10 3 6 15 10 26 10 10 0 19 -4 19 -10z"/>
<path d="M1457 1018 c-28 -22 -32 -73 -8 -97 43 -43 105 -18 105 44 0 56 -53
85 -97 53z m62 -35 c12 -23 -4 -53 -29 -53 -23 0 -36 36 -20 55 17 20 37 19
49 -2z"/>
<path d="M1590 965 c0 -51 3 -65 15 -65 11 0 15 12 15 46 0 37 4 47 20 51 11
3 20 12 20 19 0 17 -12 18 -28 2 -9 -9 -12 -9 -12 0 0 7 -7 12 -15 12 -12 0
-15 -14 -15 -65z"/>
<path d="M2310 965 c0 -50 3 -65 14 -65 11 0 16 14 18 48 3 40 6 47 26 50 20
3 22 0 22 -47 0 -39 4 -51 15 -51 12 0 15 13 15 60 0 55 -2 60 -25 66 -15 4
-32 1 -40 -6 -10 -9 -15 -9 -15 -1 0 6 -7 11 -15 11 -12 0 -15 -14 -15 -65z"/>
<path d="M1820 965 c0 -10 11 -15 35 -15 24 0 35 5 35 15 0 10 -11 15 -35 15
-24 0 -35 -5 -35 -15z"/>
<path d="M400 400 c0 -73 3 -90 15 -90 12 0 15 14 15 63 1 68 13 62 25 -11 6
-40 27 -63 42 -49 3 4 11 30 19 59 l12 53 1 -57 c1 -51 3 -58 21 -58 19 0 20
7 20 90 l0 90 -29 0 c-27 0 -29 -4 -36 -46 -3 -26 -10 -56 -15 -68 -7 -19 -8
-19 -15 9 -24 104 -25 105 -50 105 -25 0 -25 -1 -25 -90z"/>
<path d="M1186 474 c-9 -8 -16 -26 -16 -40 0 -25 17 -37 73 -49 20 -4 27 -11
25 -23 -4 -23 -56 -29 -64 -8 -7 19 -34 21 -34 4 1 -52 111 -64 129 -15 14 37
1 56 -48 70 -52 14 -63 40 -18 45 15 2 27 -1 27 -7 0 -6 9 -11 20 -11 26 0 25
15 -2 34 -29 20 -72 20 -92 0z"/>
<path d="M1895 465 c-54 -53 -18 -155 55 -155 19 0 40 9 55 25 54 53 18 155
-55 155 -19 0 -40 -9 -55 -25z m95 -37 c13 -25 13 -31 0 -55 -19 -34 -45 -40
-71 -17 -24 21 -25 61 -2 86 23 25 54 19 73 -14z"/>
<path d="M2076 462 c-27 -52 -29 -96 -7 -146 11 -25 25 -46 32 -46 7 0 8 7 4
18 -4 9 -13 34 -18 55 -11 36 -5 76 18 130 12 29 -13 20 -29 -11z"/>
<path d="M2420 400 c0 -73 3 -90 15 -90 12 0 15 17 15 90 0 73 -3 90 -15 90
-12 0 -15 -17 -15 -90z"/>
<path d="M2903 478 c-15 -19 -33 -77 -33 -104 0 -35 30 -104 46 -104 11 0 10
6 -2 35 -18 44 -18 103 1 149 15 35 7 49 -12 24z"/>
<path d="M3245 456 c19 -45 19 -107 1 -151 -12 -29 -13 -35 -2 -35 18 0 46 70
46 113 0 36 -28 99 -47 105 -9 3 -9 -6 2 -32z"/>
<path d="M3383 476 c31 -79 31 -119 2 -188 -12 -30 13 -20 30 12 20 38 19 113
-1 156 -15 32 -42 50 -31 20z"/>
<path d="M1580 461 c0 -11 -6 -22 -12 -24 -10 -4 -10 -7 -1 -14 6 -5 13 -31
15 -58 3 -43 6 -50 26 -53 22 -3 30 12 12 23 -14 9 -12 82 3 89 10 5 10 7 0
12 -7 3 -13 14 -13 25 0 10 -7 19 -15 19 -8 0 -15 -9 -15 -19z"/>
<path d="M612 424 c-54 -38 -7 -130 55 -108 42 15 40 34 -3 31 -22 -1 -39 3
-41 11 -3 8 9 12 41 12 52 0 60 16 26 50 -24 24 -48 25 -78 4z m58 -24 c0 -5
-12 -10 -26 -10 -14 0 -23 4 -19 10 3 6 15 10 26 10 10 0 19 -4 19 -10z"/>
<path d="M730 375 c0 -51 3 -65 15 -65 11 0 15 11 15 40 0 29 5 43 20 52 11 7
20 18 20 25 0 16 -12 17 -28 1 -9 -9 -12 -9 -12 0 0 7 -7 12 -15 12 -12 0 -15
-14 -15 -65z"/>
<path d="M835 417 c-32 -46 -2 -117 45 -104 13 3 20 0 20 -9 0 -18 -32 -32
-38 -16 -2 7 -13 12 -24 12 -27 0 -18 -23 15 -34 17 -6 35 -6 52 2 24 11 25
16 25 91 l0 79 -40 0 c-30 1 -44 -5 -55 -21z m60 -42 c0 -23 -4 -30 -20 -30
-21 0 -31 25 -21 51 11 28 41 12 41 -21z"/>
<path d="M980 420 c-11 -11 -20 -31 -20 -45 0 -30 32 -65 59 -65 10 0 29 9 42
20 l24 20 -44 -3 c-28 -1 -45 3 -48 11 -3 8 9 12 41 12 34 0 46 4 46 15 0 22
-37 55 -60 55 -11 0 -29 -9 -40 -20z m65 -20 c4 -6 -7 -10 -25 -10 -18 0 -29
4 -25 10 3 6 15 10 25 10 10 0 22 -4 25 -10z"/>
<path d="M1345 420 c-36 -40 -9 -110 42 -110 30 0 63 34 63 65 0 55 -69 85
-105 45z m70 -29 c9 -29 -5 -52 -29 -49 -37 5 -34 68 3 68 11 0 22 -8 26 -19z"/>
<path d="M1480 375 c0 -51 3 -65 15 -65 11 0 15 12 15 44 0 36 4 46 20 51 11
3 20 13 20 21 0 17 -12 18 -28 2 -9 -9 -12 -9 -12 0 0 7 -7 12 -15 12 -12 0
-15 -14 -15 -65z"/>
<path d="M2200 375 c0 -58 2 -65 20 -65 17 0 20 7 20 50 0 42 3 50 19 50 22 0
31 -19 31 -66 0 -24 5 -34 15 -34 11 0 15 12 15 48 0 65 -9 75 -69 79 l-51 3
0 -65z"/>
<path d="M2502 424 c-34 -23 -27 -83 11 -104 24 -13 30 -13 55 0 37 21 44 81
10 104 -12 9 -29 16 -38 16 -9 0 -26 -7 -38 -16z m63 -49 c0 -25 -4 -30 -25
-30 -16 0 -26 6 -28 18 -6 30 6 49 30 45 18 -2 23 -9 23 -33z"/>
<path d="M2647 422 c-38 -42 -9 -120 39 -108 17 5 24 2 24 -8 0 -23 -20 -30
-46 -15 -30 16 -46 2 -20 -17 26 -18 61 -18 80 2 22 22 23 164 1 164 -8 0 -15
-5 -15 -12 0 -9 -3 -9 -12 0 -17 17 -32 15 -51 -6z m58 -47 c0 -23 -4 -30 -20
-30 -21 0 -31 25 -21 51 11 28 41 12 41 -21z"/>
<path d="M3020 375 c0 -58 2 -65 20 -65 17 0 20 7 20 50 0 42 3 50 19 50 22 0
31 -19 31 -66 0 -24 5 -34 15 -34 11 0 15 12 15 48 0 65 -9 75 -69 79 l-51 3
0 -65z"/>
<path d="M1710 375 c0 -10 11 -15 35 -15 24 0 35 5 35 15 0 10 -11 15 -35 15
-24 0 -35 -5 -35 -15z"/>
<path d="M2782 378 c-13 -13 -16 -38 -6 -38 4 0 12 7 19 17 12 16 35 11 35 -8
0 -5 -13 -21 -30 -36 -42 -37 -39 -53 10 -53 22 0 40 5 40 10 0 6 -12 10 -27
10 l-27 0 27 28 c15 15 27 35 27 43 0 20 -20 39 -40 39 -9 0 -21 -5 -28 -12z"/>
</g>
</svg>
